G04 Layer: TopSolderMaskLayer*
G04 EasyEDA v6.4.7, 2020-11-30T22:32:52--5:00*
G04 76768ecdb7b1411bbbfdaf268766b05e,f351316c249842cba096f2da4b91d990,10*
G04 Gerber Generator version 0.2*
G04 Scale: 100 percent, Rotated: No, Reflected: No *
G04 Dimensions in millimeters *
G04 leading zeros omitted , absolute positions ,3 integer and 3 decimal *
%FSLAX33Y33*%
%MOMM*%
G90*
D02*

%ADD37C,2.203196*%
%ADD38C,2.003196*%
%ADD41C,1.778000*%
%ADD42C,1.727200*%
%ADD43R,2.703195X2.203196*%
%ADD46C,1.854200*%
%ADD47R,2.103196X1.403198*%
%ADD49C,1.600200*%

%LPD*%
G54D37*
G01X45500Y157500D02*
G01X46000Y157500D01*
G01X45500Y160040D02*
G01X46000Y160040D01*
G01X45500Y67499D02*
G01X46000Y67499D01*
G01X45500Y70039D02*
G01X46000Y70039D01*
G01X45500Y82499D02*
G01X46000Y82499D01*
G01X45500Y85039D02*
G01X46000Y85039D01*
G01X45500Y52499D02*
G01X46000Y52499D01*
G01X45500Y55039D02*
G01X46000Y55039D01*
G01X45500Y37500D02*
G01X46000Y37500D01*
G01X45500Y40040D02*
G01X46000Y40040D01*
G01X45500Y127500D02*
G01X46000Y127500D01*
G01X45500Y130040D02*
G01X46000Y130040D01*
G01X45500Y142500D02*
G01X46000Y142500D01*
G01X45500Y145040D02*
G01X46000Y145040D01*
G01X45500Y22500D02*
G01X46000Y22500D01*
G01X45500Y25040D02*
G01X46000Y25040D01*
G01X45500Y7500D02*
G01X46000Y7500D01*
G01X45500Y10040D02*
G01X46000Y10040D01*
G01X45500Y97499D02*
G01X46000Y97499D01*
G01X45500Y100039D02*
G01X46000Y100039D01*
G01X45500Y112500D02*
G01X46000Y112500D01*
G01X45500Y115040D02*
G01X46000Y115040D01*
G01X64249Y137750D02*
G01X64249Y137250D01*
G01X66789Y137750D02*
G01X66789Y137250D01*
G01X16000Y154960D02*
G01X15500Y154960D01*
G01X16000Y157500D02*
G01X15500Y157500D01*
G01X16000Y64959D02*
G01X15500Y64959D01*
G01X16000Y67499D02*
G01X15500Y67499D01*
G01X16000Y79959D02*
G01X15500Y79959D01*
G01X16000Y82499D02*
G01X15500Y82499D01*
G01X16000Y49959D02*
G01X15500Y49959D01*
G01X16000Y52499D02*
G01X15500Y52499D01*
G01X16000Y34960D02*
G01X15500Y34960D01*
G01X16000Y37500D02*
G01X15500Y37500D01*
G01X16000Y124960D02*
G01X15500Y124960D01*
G01X16000Y127500D02*
G01X15500Y127500D01*
G01X16000Y139960D02*
G01X15500Y139960D01*
G01X16000Y142500D02*
G01X15500Y142500D01*
G01X16000Y19960D02*
G01X15500Y19960D01*
G01X16000Y22500D02*
G01X15500Y22500D01*
G01X16000Y4960D02*
G01X15500Y4960D01*
G01X16000Y7500D02*
G01X15500Y7500D01*
G01X16000Y94959D02*
G01X15500Y94959D01*
G01X16000Y97499D02*
G01X15500Y97499D01*
G01X16000Y109960D02*
G01X15500Y109960D01*
G01X16000Y112500D02*
G01X15500Y112500D01*
G01X45500Y172499D02*
G01X46000Y172499D01*
G01X45500Y175039D02*
G01X46000Y175039D01*
G01X16000Y169959D02*
G01X15500Y169959D01*
G01X16000Y172499D02*
G01X15500Y172499D01*

%LPD*%
G36*
G01X77240Y129864D02*
G01X77106Y129868D01*
G01X76971Y129867D01*
G01X76837Y129858D01*
G01X76704Y129843D01*
G01X76572Y129821D01*
G01X76442Y129791D01*
G01X76311Y129755D01*
G01X76182Y129712D01*
G01X76054Y129662D01*
G01X75927Y129605D01*
G01X75800Y129540D01*
G01X75775Y129528D01*
G01X75752Y129510D01*
G01X75729Y129487D01*
G01X75709Y129459D01*
G01X75691Y129430D01*
G01X75678Y129402D01*
G01X75667Y129375D01*
G01X75660Y129350D01*
G01X75648Y129335D01*
G01X75642Y129318D01*
G01X75641Y129302D01*
G01X75645Y129284D01*
G01X75661Y129250D01*
G01X75681Y129220D01*
G01X75690Y129206D01*
G01X75699Y129191D01*
G01X75719Y129165D01*
G01X75726Y129152D01*
G01X75729Y129141D01*
G01X75726Y129129D01*
G01X75719Y129119D01*
G01X75629Y129019D01*
G01X75552Y128917D01*
G01X75487Y128814D01*
G01X75435Y128710D01*
G01X75397Y128605D01*
G01X75371Y128499D01*
G01X75355Y128393D01*
G01X75347Y128287D01*
G01X75348Y128182D01*
G01X75359Y128077D01*
G01X75377Y127973D01*
G01X75404Y127869D01*
G01X75439Y127767D01*
G01X75480Y127666D01*
G01X75527Y127567D01*
G01X75580Y127470D01*
G01X75639Y127374D01*
G01X75704Y127280D01*
G01X75773Y127188D01*
G01X75845Y127099D01*
G01X75918Y127013D01*
G01X75994Y126929D01*
G01X76071Y126848D01*
G01X76151Y126769D01*
G01X76163Y126737D01*
G01X76183Y126721D01*
G01X76210Y126722D01*
G01X76245Y126739D01*
G01X76280Y126763D01*
G01X76311Y126785D01*
G01X76337Y126804D01*
G01X76359Y126820D01*
G01X76358Y126823D01*
G01X76355Y126830D01*
G01X76350Y126842D01*
G01X76344Y126858D01*
G01X76335Y126879D01*
G01X76317Y126919D01*
G01X76305Y126940D01*
G01X76294Y126960D01*
G01X76284Y126979D01*
G01X76276Y126996D01*
G01X76270Y127013D01*
G01X76266Y127029D01*
G01X76265Y127040D01*
G01X76266Y127047D01*
G01X76270Y127049D01*
G01X76373Y126967D01*
G01X76479Y126891D01*
G01X76589Y126822D01*
G01X76704Y126759D01*
G01X76820Y126699D01*
G01X76931Y126637D01*
G01X77037Y126575D01*
G01X77139Y126510D01*
G01X77233Y126397D01*
G01X77355Y126299D01*
G01X77498Y126217D01*
G01X77659Y126150D01*
G01X77832Y126096D01*
G01X78010Y126058D01*
G01X78185Y126037D01*
G01X78350Y126030D01*
G01X78460Y126033D01*
G01X78571Y126042D01*
G01X78681Y126058D01*
G01X78793Y126079D01*
G01X78904Y126106D01*
G01X79016Y126139D01*
G01X79125Y126179D01*
G01X79231Y126223D01*
G01X79335Y126271D01*
G01X79434Y126326D01*
G01X79531Y126385D01*
G01X79625Y126449D01*
G01X79714Y126519D01*
G01X79796Y126593D01*
G01X79874Y126672D01*
G01X79945Y126757D01*
G01X80010Y126846D01*
G01X80070Y126940D01*
G01X80122Y127038D01*
G01X80164Y127141D01*
G01X80197Y127247D01*
G01X80221Y127358D01*
G01X80235Y127472D01*
G01X80240Y127590D01*
G01X80241Y127603D01*
G01X80244Y127613D01*
G01X80249Y127619D01*
G01X80255Y127620D01*
G01X80286Y127620D01*
G01X80292Y127621D01*
G01X80298Y127623D01*
G01X80303Y127626D01*
G01X80309Y127630D01*
G01X80311Y127637D01*
G01X80309Y127649D01*
G01X80302Y127666D01*
G01X80291Y127689D01*
G01X80232Y127814D01*
G01X80169Y127936D01*
G01X80102Y128055D01*
G01X80030Y128171D01*
G01X79954Y128285D01*
G01X79874Y128396D01*
G01X79789Y128505D01*
G01X79700Y128611D01*
G01X79606Y128714D01*
G01X79508Y128814D01*
G01X79408Y128911D01*
G01X79305Y129004D01*
G01X79199Y129091D01*
G01X79091Y129175D01*
G01X78981Y129254D01*
G01X78868Y129329D01*
G01X78753Y129399D01*
G01X78636Y129465D01*
G01X78516Y129527D01*
G01X78393Y129584D01*
G01X78270Y129636D01*
G01X78145Y129684D01*
G01X78019Y129726D01*
G01X77892Y129762D01*
G01X77764Y129793D01*
G01X77635Y129819D01*
G01X77504Y129840D01*
G01X77372Y129854D01*
G01X77240Y129864D01*
G37*

%LPC*%
G36*
G01X78408Y128983D02*
G01X78289Y128985D01*
G01X78165Y128969D01*
G01X78037Y128933D01*
G01X77906Y128877D01*
G01X77774Y128799D01*
G01X77639Y128700D01*
G01X77515Y128637D01*
G01X77339Y128570D01*
G01X77239Y128534D01*
G01X77141Y128496D01*
G01X77043Y128456D01*
G01X76946Y128415D01*
G01X76769Y128327D01*
G01X76631Y128235D01*
G01X76554Y128138D01*
G01X76570Y128039D01*
G01X76612Y127930D01*
G01X76680Y127834D01*
G01X76772Y127750D01*
G01X76890Y127679D01*
G01X76979Y127638D01*
G01X77073Y127601D01*
G01X77172Y127569D01*
G01X77276Y127541D01*
G01X77385Y127518D01*
G01X77499Y127498D01*
G01X77617Y127485D01*
G01X77734Y127474D01*
G01X77854Y127467D01*
G01X77973Y127465D01*
G01X78094Y127466D01*
G01X78216Y127470D01*
G01X78334Y127477D01*
G01X78448Y127487D01*
G01X78556Y127499D01*
G01X78659Y127514D01*
G01X78758Y127530D01*
G01X78851Y127549D01*
G01X78891Y127556D01*
G01X78933Y127564D01*
G01X78977Y127576D01*
G01X79023Y127590D01*
G01X79070Y127607D01*
G01X79113Y127625D01*
G01X79152Y127646D01*
G01X79188Y127668D01*
G01X79220Y127696D01*
G01X79244Y127726D01*
G01X79261Y127760D01*
G01X79270Y127798D01*
G01X79269Y127841D01*
G01X79254Y127886D01*
G01X79228Y127936D01*
G01X79188Y127989D01*
G01X79167Y128106D01*
G01X79140Y128216D01*
G01X79109Y128320D01*
G01X79072Y128417D01*
G01X79031Y128507D01*
G01X78985Y128591D01*
G01X78908Y128701D01*
G01X78824Y128793D01*
G01X78731Y128867D01*
G01X78630Y128923D01*
G01X78521Y128962D01*
G01X78408Y128983D01*
G37*

%LPD*%
G36*
G01X72889Y125779D02*
G01X72838Y125784D01*
G01X72795Y125770D01*
G01X72758Y125735D01*
G01X72729Y125680D01*
G01X72688Y125537D01*
G01X72666Y125370D01*
G01X72656Y125192D01*
G01X72656Y125019D01*
G01X72658Y124943D01*
G01X72660Y124884D01*
G01X72660Y124843D01*
G01X72661Y124819D01*
G01X72648Y124790D01*
G01X72650Y124762D01*
G01X72667Y124735D01*
G01X72699Y124709D01*
G01X72739Y124685D01*
G01X72780Y124662D01*
G01X72864Y124620D01*
G01X72904Y124601D01*
G01X72937Y124581D01*
G01X72965Y124563D01*
G01X72986Y124544D01*
G01X72992Y124527D01*
G01X72978Y124510D01*
G01X72944Y124494D01*
G01X72889Y124478D01*
G01X72878Y124449D01*
G01X72883Y124409D01*
G01X72905Y124357D01*
G01X72945Y124295D01*
G01X73052Y124162D01*
G01X73184Y124034D01*
G01X73330Y123920D01*
G01X73478Y123828D01*
G01X73609Y123782D01*
G01X73699Y123800D01*
G01X73806Y123766D01*
G01X73964Y123704D01*
G01X74057Y123668D01*
G01X74152Y123634D01*
G01X74248Y123603D01*
G01X74345Y123574D01*
G01X74533Y123536D01*
G01X74705Y123533D01*
G01X74839Y123590D01*
G01X74908Y123729D01*
G01X74922Y123737D01*
G01X74933Y123749D01*
G01X74940Y123767D01*
G01X74944Y123790D01*
G01X74947Y123815D01*
G01X74949Y123840D01*
G01X74952Y123867D01*
G01X74954Y123894D01*
G01X74958Y123920D01*
G01X74963Y123944D01*
G01X74970Y123964D01*
G01X74980Y123980D01*
G01X74991Y123992D01*
G01X75005Y123999D01*
G01X75021Y124001D01*
G01X75041Y123998D01*
G01X75161Y124034D01*
G01X75305Y124059D01*
G01X75459Y124073D01*
G01X75610Y124074D01*
G01X75754Y124059D01*
G01X75889Y124024D01*
G01X75949Y123999D01*
G01X75999Y123966D01*
G01X76039Y123926D01*
G01X76069Y123879D01*
G01X76087Y123830D01*
G01X76089Y123781D01*
G01X76074Y123732D01*
G01X76044Y123683D01*
G01X75962Y123591D01*
G01X75864Y123500D01*
G01X75763Y123410D01*
G01X75670Y123320D01*
G01X75632Y123275D01*
G01X75610Y123230D01*
G01X75602Y123184D01*
G01X75610Y123140D01*
G01X75664Y122994D01*
G01X75730Y122857D01*
G01X75807Y122729D01*
G01X75894Y122609D01*
G01X75990Y122497D01*
G01X76092Y122390D01*
G01X76201Y122288D01*
G01X76316Y122190D01*
G01X76434Y122097D01*
G01X76554Y122008D01*
G01X76678Y121924D01*
G01X76803Y121844D01*
G01X76930Y121768D01*
G01X77055Y121693D01*
G01X77178Y121621D01*
G01X77299Y121550D01*
G01X77433Y121459D01*
G01X77565Y121378D01*
G01X77693Y121307D01*
G01X77819Y121245D01*
G01X77941Y121190D01*
G01X78058Y121142D01*
G01X78168Y121100D01*
G01X78274Y121064D01*
G01X78463Y121010D01*
G01X78619Y120978D01*
G01X78684Y120971D01*
G01X78737Y120967D01*
G01X78779Y120967D01*
G01X78810Y120971D01*
G01X78843Y120976D01*
G01X78886Y120982D01*
G01X78936Y120989D01*
G01X78995Y120998D01*
G01X79122Y121028D01*
G01X79254Y121075D01*
G01X79384Y121143D01*
G01X79503Y121240D01*
G01X79599Y121369D01*
G01X79651Y121539D01*
G01X79685Y121574D01*
G01X79721Y121607D01*
G01X79758Y121639D01*
G01X79795Y121669D01*
G01X79835Y121699D01*
G01X79878Y121727D01*
G01X79926Y121753D01*
G01X79978Y121778D01*
G01X79986Y121789D01*
G01X79988Y121801D01*
G01X79986Y121815D01*
G01X79978Y121829D01*
G01X79969Y121845D01*
G01X79960Y121862D01*
G01X79940Y121900D01*
G01X79931Y121920D01*
G01X79924Y121942D01*
G01X79918Y121965D01*
G01X79915Y121989D01*
G01X79915Y122015D01*
G01X79921Y122042D01*
G01X79933Y122070D01*
G01X79950Y122098D01*
G01X79966Y122115D01*
G01X79984Y122124D01*
G01X80005Y122125D01*
G01X80029Y122119D01*
G01X80055Y122107D01*
G01X80080Y122094D01*
G01X80107Y122078D01*
G01X80133Y122060D01*
G01X80161Y122041D01*
G01X80187Y122022D01*
G01X80212Y122005D01*
G01X80235Y121989D01*
G01X80256Y121977D01*
G01X80272Y121971D01*
G01X80284Y121972D01*
G01X80291Y121979D01*
G01X80298Y122002D01*
G01X80301Y122031D01*
G01X80302Y122064D01*
G01X80298Y122103D01*
G01X80293Y122147D01*
G01X80285Y122189D01*
G01X80274Y122232D01*
G01X80260Y122274D01*
G01X80244Y122316D01*
G01X80226Y122357D01*
G01X80206Y122396D01*
G01X80184Y122434D01*
G01X80161Y122470D01*
G01X80138Y122501D01*
G01X80114Y122528D01*
G01X80090Y122550D01*
G01X80031Y122652D01*
G01X79965Y122750D01*
G01X79891Y122841D01*
G01X79811Y122929D01*
G01X79728Y123014D01*
G01X79649Y123098D01*
G01X79574Y123181D01*
G01X79503Y123264D01*
G01X79442Y123347D01*
G01X79392Y123431D01*
G01X79353Y123515D01*
G01X79326Y123599D01*
G01X79314Y123687D01*
G01X79324Y123780D01*
G01X79356Y123878D01*
G01X79409Y123980D01*
G01X79444Y124021D01*
G01X79489Y124054D01*
G01X79542Y124078D01*
G01X79605Y124095D01*
G01X79742Y124115D01*
G01X79884Y124125D01*
G01X80023Y124135D01*
G01X80149Y124153D01*
G01X80203Y124170D01*
G01X80245Y124195D01*
G01X80274Y124229D01*
G01X80291Y124270D01*
G01X80193Y124311D01*
G01X80121Y124365D01*
G01X80075Y124433D01*
G01X80055Y124514D01*
G01X80051Y124692D01*
G01X80070Y124874D01*
G01X80089Y125049D01*
G01X80085Y125200D01*
G01X80063Y125261D01*
G01X80013Y125305D01*
G01X79935Y125331D01*
G01X79828Y125339D01*
G01X79691Y125357D01*
G01X79569Y125359D01*
G01X79461Y125344D01*
G01X79369Y125314D01*
G01X79211Y125232D01*
G01X79079Y125134D01*
G01X78961Y125034D01*
G01X78845Y124943D01*
G01X78713Y124888D01*
G01X78548Y124890D01*
G01X78364Y124892D01*
G01X78228Y124938D01*
G01X78177Y124975D01*
G01X78133Y125014D01*
G01X78096Y125055D01*
G01X78066Y125098D01*
G01X78040Y125143D01*
G01X78017Y125186D01*
G01X77999Y125228D01*
G01X77984Y125268D01*
G01X77971Y125304D01*
G01X77958Y125329D01*
G01X77943Y125344D01*
G01X77929Y125349D01*
G01X77827Y125322D01*
G01X77724Y125298D01*
G01X77618Y125278D01*
G01X77508Y125263D01*
G01X77397Y125252D01*
G01X77283Y125245D01*
G01X76941Y125233D01*
G01X76713Y125227D01*
G01X76600Y125225D01*
G01X76488Y125223D01*
G01X76378Y125221D01*
G01X76270Y125217D01*
G01X76164Y125214D01*
G01X76061Y125210D01*
G01X75960Y125205D01*
G01X75815Y125193D01*
G01X75680Y125173D01*
G01X75555Y125145D01*
G01X75439Y125108D01*
G01X75402Y125046D01*
G01X75370Y124997D01*
G01X75343Y124963D01*
G01X75320Y124943D01*
G01X75301Y124935D01*
G01X75284Y124934D01*
G01X75271Y124941D01*
G01X75259Y124953D01*
G01X75250Y124974D01*
G01X75243Y124999D01*
G01X75237Y125029D01*
G01X75231Y125101D01*
G01X75229Y125136D01*
G01X75226Y125169D01*
G01X75223Y125200D01*
G01X75220Y125227D01*
G01X75216Y125249D01*
G01X75212Y125266D01*
G01X75206Y125278D01*
G01X75196Y125283D01*
G01X75182Y125277D01*
G01X75163Y125259D01*
G01X75140Y125230D01*
G01X74991Y125127D01*
G01X74856Y125048D01*
G01X74733Y124994D01*
G01X74624Y124963D01*
G01X74524Y124954D01*
G01X74429Y124960D01*
G01X74340Y124980D01*
G01X74256Y125014D01*
G01X74173Y125061D01*
G01X74092Y125118D01*
G01X74011Y125186D01*
G01X73931Y125263D01*
G01X73846Y125346D01*
G01X73753Y125430D01*
G01X73651Y125514D01*
G01X73539Y125598D01*
G01X73515Y125611D01*
G01X73501Y125605D01*
G01X73499Y125584D01*
G01X73509Y125545D01*
G01X73523Y125498D01*
G01X73534Y125453D01*
G01X73543Y125410D01*
G01X73550Y125370D01*
G01X73551Y125334D01*
G01X73546Y125309D01*
G01X73533Y125294D01*
G01X73514Y125289D01*
G01X73428Y125344D01*
G01X73260Y125509D01*
G01X73244Y125533D01*
G01X73224Y125552D01*
G01X73203Y125567D01*
G01X73179Y125578D01*
G01X73154Y125589D01*
G01X73127Y125600D01*
G01X73099Y125612D01*
G01X73070Y125624D01*
G01X73040Y125637D01*
G01X73012Y125651D01*
G01X72985Y125665D01*
G01X72960Y125680D01*
G01X72937Y125697D01*
G01X72917Y125720D01*
G01X72901Y125747D01*
G01X72889Y125779D01*
G37*

%LPC*%
G36*
G01X76422Y123794D02*
G01X76388Y123795D01*
G01X76358Y123784D01*
G01X76333Y123759D01*
G01X76320Y123733D01*
G01X76323Y123714D01*
G01X76343Y123703D01*
G01X76379Y123698D01*
G01X76441Y123610D01*
G01X76505Y123522D01*
G01X76573Y123437D01*
G01X76643Y123353D01*
G01X76718Y123273D01*
G01X76796Y123196D01*
G01X76876Y123121D01*
G01X76958Y123048D01*
G01X77044Y122982D01*
G01X77131Y122920D01*
G01X77219Y122865D01*
G01X77309Y122815D01*
G01X77399Y122770D01*
G01X77489Y122733D01*
G01X77580Y122703D01*
G01X77669Y122680D01*
G01X77715Y122670D01*
G01X77771Y122659D01*
G01X77837Y122647D01*
G01X77913Y122634D01*
G01X78086Y122610D01*
G01X78274Y122588D01*
G01X78372Y122580D01*
G01X78471Y122573D01*
G01X78570Y122570D01*
G01X78670Y122568D01*
G01X78856Y122576D01*
G01X79016Y122599D01*
G01X79083Y122616D01*
G01X79140Y122639D01*
G01X79187Y122667D01*
G01X79224Y122700D01*
G01X79248Y122738D01*
G01X79256Y122784D01*
G01X79246Y122837D01*
G01X79219Y122898D01*
G01X79186Y123007D01*
G01X79069Y123130D01*
G01X78985Y123194D01*
G01X78893Y123257D01*
G01X78793Y123318D01*
G01X78685Y123378D01*
G01X78572Y123437D01*
G01X78456Y123492D01*
G01X78339Y123543D01*
G01X78221Y123589D01*
G01X78106Y123631D01*
G01X78002Y123666D01*
G01X77910Y123696D01*
G01X77829Y123719D01*
G01X77718Y123742D01*
G01X77586Y123758D01*
G01X77431Y123770D01*
G01X77255Y123775D01*
G01X77129Y123777D01*
G01X77000Y123778D01*
G01X76869Y123779D01*
G01X76735Y123779D01*
G01X76599Y123780D01*
G01X76460Y123780D01*
G01X76422Y123794D01*
G37*

%LPD*%
G36*
G01X76359Y121270D02*
G01X76265Y121287D01*
G01X76120Y121260D01*
G01X75947Y121199D01*
G01X75770Y121115D01*
G01X75682Y121065D01*
G01X75601Y121011D01*
G01X75525Y120952D01*
G01X75455Y120889D01*
G01X75354Y120762D01*
G01X75320Y120640D01*
G01X75326Y120594D01*
G01X75343Y120545D01*
G01X75373Y120493D01*
G01X75414Y120440D01*
G01X75523Y120327D01*
G01X75655Y120209D01*
G01X75728Y120149D01*
G01X75804Y120088D01*
G01X75881Y120027D01*
G01X75960Y119965D01*
G01X76114Y119842D01*
G01X76255Y119723D01*
G01X76376Y119613D01*
G01X76471Y119510D01*
G01X76503Y119462D01*
G01X76522Y119417D01*
G01X76527Y119376D01*
G01X76519Y119340D01*
G01X76490Y119291D01*
G01X76452Y119254D01*
G01X76405Y119231D01*
G01X76349Y119220D01*
G01X76222Y119219D01*
G01X76079Y119233D01*
G01X75780Y119284D01*
G01X75640Y119293D01*
G01X75521Y119269D01*
G01X75434Y119223D01*
G01X75375Y119164D01*
G01X75344Y119091D01*
G01X75340Y119005D01*
G01X75356Y118912D01*
G01X75383Y118817D01*
G01X75421Y118721D01*
G01X75470Y118624D01*
G01X75526Y118529D01*
G01X75586Y118437D01*
G01X75648Y118347D01*
G01X75714Y118260D01*
G01X75822Y118123D01*
G01X75879Y118050D01*
G01X75881Y118046D01*
G01X75886Y118047D01*
G01X75896Y118052D01*
G01X75922Y118068D01*
G01X75932Y118072D01*
G01X75938Y118073D01*
G01X75940Y118070D01*
G01X76046Y117932D01*
G01X76145Y117775D01*
G01X76251Y117626D01*
G01X76379Y117508D01*
G01X76401Y117499D01*
G01X76425Y117492D01*
G01X76452Y117487D01*
G01X76481Y117483D01*
G01X76509Y117482D01*
G01X76536Y117482D01*
G01X76561Y117484D01*
G01X76585Y117488D01*
G01X76606Y117494D01*
G01X76624Y117502D01*
G01X76638Y117512D01*
G01X76648Y117524D01*
G01X76654Y117538D01*
G01X76651Y117556D01*
G01X76640Y117577D01*
G01X76620Y117600D01*
G01X76621Y117628D01*
G01X76612Y117664D01*
G01X76593Y117708D01*
G01X76565Y117760D01*
G01X76536Y117812D01*
G01X76515Y117857D01*
G01X76503Y117897D01*
G01X76499Y117930D01*
G01X76549Y118038D01*
G01X76699Y118123D01*
G01X76803Y118159D01*
G01X76915Y118189D01*
G01X77033Y118215D01*
G01X77159Y118235D01*
G01X77288Y118251D01*
G01X77415Y118264D01*
G01X77538Y118273D01*
G01X77659Y118278D01*
G01X77860Y118286D01*
G01X77979Y118288D01*
G01X78035Y118286D01*
G01X78092Y118279D01*
G01X78151Y118267D01*
G01X78210Y118250D01*
G01X78332Y118207D01*
G01X78459Y118159D01*
G01X78561Y118124D01*
G01X78655Y118087D01*
G01X78741Y118049D01*
G01X78820Y118009D01*
G01X78960Y117952D01*
G01X79079Y117940D01*
G01X79123Y117926D01*
G01X79165Y117921D01*
G01X79204Y117928D01*
G01X79239Y117945D01*
G01X79275Y117969D01*
G01X79310Y117997D01*
G01X79344Y118029D01*
G01X79379Y118065D01*
G01X79415Y118102D01*
G01X79493Y118180D01*
G01X79534Y118220D01*
G01X79579Y118256D01*
G01X79626Y118287D01*
G01X79676Y118311D01*
G01X79729Y118329D01*
G01X79761Y118342D01*
G01X79793Y118348D01*
G01X79828Y118349D01*
G01X79864Y118344D01*
G01X79902Y118337D01*
G01X79940Y118328D01*
G01X79977Y118319D01*
G01X80051Y118299D01*
G01X80088Y118292D01*
G01X80124Y118287D01*
G01X80159Y118283D01*
G01X80192Y118284D01*
G01X80222Y118292D01*
G01X80248Y118307D01*
G01X80270Y118329D01*
G01X80280Y118345D01*
G01X80280Y118363D01*
G01X80269Y118383D01*
G01X80250Y118405D01*
G01X80224Y118427D01*
G01X80196Y118450D01*
G01X80165Y118474D01*
G01X80133Y118499D01*
G01X80103Y118524D01*
G01X80074Y118547D01*
G01X80048Y118568D01*
G01X80024Y118588D01*
G01X80007Y118608D01*
G01X80000Y118626D01*
G01X80004Y118643D01*
G01X80019Y118659D01*
G01X80067Y118829D01*
G01X80080Y118968D01*
G01X80059Y119077D01*
G01X80004Y119154D01*
G01X79919Y119211D01*
G01X79810Y119255D01*
G01X79677Y119289D01*
G01X79519Y119309D01*
G01X79509Y119312D01*
G01X79503Y119320D01*
G01X79498Y119332D01*
G01X79496Y119350D01*
G01X79492Y119367D01*
G01X79485Y119379D01*
G01X79474Y119386D01*
G01X79460Y119388D01*
G01X79340Y119391D01*
G01X79219Y119393D01*
G01X78977Y119393D01*
G01X78856Y119391D01*
G01X78734Y119388D01*
G01X78613Y119387D01*
G01X78492Y119388D01*
G01X78373Y119392D01*
G01X78253Y119398D01*
G01X78134Y119407D01*
G01X78015Y119419D01*
G01X77897Y119434D01*
G01X77780Y119455D01*
G01X77664Y119479D01*
G01X77550Y119508D01*
G01X77436Y119541D01*
G01X77324Y119579D01*
G01X77213Y119623D01*
G01X77104Y119675D01*
G01X76995Y119735D01*
G01X76888Y119802D01*
G01X76783Y119877D01*
G01X76679Y119960D01*
G01X76653Y119966D01*
G01X76635Y119975D01*
G01X76624Y119987D01*
G01X76620Y120000D01*
G01X76625Y120013D01*
G01X76638Y120024D01*
G01X76659Y120032D01*
G01X76689Y120038D01*
G01X76723Y120053D01*
G01X76762Y120064D01*
G01X76807Y120073D01*
G01X76859Y120079D01*
G01X77024Y120094D01*
G01X77080Y120099D01*
G01X77133Y120105D01*
G01X77180Y120114D01*
G01X77222Y120123D01*
G01X77261Y120135D01*
G01X77289Y120150D01*
G01X77307Y120169D01*
G01X77313Y120192D01*
G01X77309Y120219D01*
G01X77262Y120330D01*
G01X77208Y120438D01*
G01X77146Y120541D01*
G01X77076Y120641D01*
G01X76999Y120737D01*
G01X76915Y120828D01*
G01X76826Y120916D01*
G01X76735Y120998D01*
G01X76643Y121075D01*
G01X76549Y121146D01*
G01X76455Y121211D01*
G01X76359Y121270D01*
G37*

%LPD*%
G36*
G01X77240Y117044D02*
G01X77106Y117049D01*
G01X76971Y117048D01*
G01X76837Y117039D01*
G01X76704Y117023D01*
G01X76572Y117001D01*
G01X76442Y116972D01*
G01X76311Y116935D01*
G01X76182Y116891D01*
G01X76054Y116841D01*
G01X75927Y116784D01*
G01X75800Y116719D01*
G01X75775Y116706D01*
G01X75752Y116689D01*
G01X75729Y116667D01*
G01X75709Y116640D01*
G01X75691Y116610D01*
G01X75678Y116581D01*
G01X75667Y116554D01*
G01X75660Y116528D01*
G01X75648Y116514D01*
G01X75642Y116499D01*
G01X75641Y116482D01*
G01X75645Y116465D01*
G01X75653Y116447D01*
G01X75661Y116431D01*
G01X75671Y116414D01*
G01X75681Y116399D01*
G01X75690Y116384D01*
G01X75699Y116370D01*
G01X75709Y116357D01*
G01X75719Y116345D01*
G01X75726Y116333D01*
G01X75729Y116321D01*
G01X75726Y116310D01*
G01X75719Y116299D01*
G01X75629Y116199D01*
G01X75552Y116098D01*
G01X75487Y115995D01*
G01X75435Y115891D01*
G01X75397Y115786D01*
G01X75371Y115680D01*
G01X75355Y115574D01*
G01X75347Y115468D01*
G01X75348Y115362D01*
G01X75359Y115258D01*
G01X75377Y115153D01*
G01X75404Y115050D01*
G01X75439Y114948D01*
G01X75480Y114847D01*
G01X75527Y114748D01*
G01X75580Y114650D01*
G01X75639Y114554D01*
G01X75704Y114460D01*
G01X75773Y114368D01*
G01X75845Y114279D01*
G01X75918Y114192D01*
G01X75994Y114108D01*
G01X76071Y114028D01*
G01X76151Y113950D01*
G01X76163Y113918D01*
G01X76183Y113902D01*
G01X76210Y113903D01*
G01X76245Y113919D01*
G01X76280Y113944D01*
G01X76311Y113965D01*
G01X76337Y113983D01*
G01X76359Y113998D01*
G01X76355Y114008D01*
G01X76350Y114021D01*
G01X76344Y114039D01*
G01X76326Y114079D01*
G01X76317Y114100D01*
G01X76305Y114120D01*
G01X76294Y114139D01*
G01X76284Y114158D01*
G01X76276Y114176D01*
G01X76270Y114194D01*
G01X76266Y114210D01*
G01X76265Y114221D01*
G01X76266Y114227D01*
G01X76270Y114229D01*
G01X76373Y114148D01*
G01X76479Y114072D01*
G01X76589Y114003D01*
G01X76704Y113940D01*
G01X76820Y113879D01*
G01X76931Y113817D01*
G01X77037Y113754D01*
G01X77139Y113688D01*
G01X77233Y113577D01*
G01X77355Y113480D01*
G01X77498Y113397D01*
G01X77659Y113330D01*
G01X77832Y113277D01*
G01X78010Y113239D01*
G01X78185Y113216D01*
G01X78350Y113208D01*
G01X78460Y113212D01*
G01X78571Y113221D01*
G01X78681Y113236D01*
G01X78793Y113258D01*
G01X78904Y113286D01*
G01X79016Y113320D01*
G01X79125Y113359D01*
G01X79231Y113403D01*
G01X79335Y113452D01*
G01X79434Y113506D01*
G01X79531Y113566D01*
G01X79625Y113630D01*
G01X79714Y113699D01*
G01X79796Y113773D01*
G01X79874Y113852D01*
G01X79945Y113936D01*
G01X80010Y114026D01*
G01X80070Y114120D01*
G01X80122Y114219D01*
G01X80164Y114321D01*
G01X80197Y114427D01*
G01X80221Y114538D01*
G01X80235Y114653D01*
G01X80240Y114770D01*
G01X80241Y114783D01*
G01X80244Y114792D01*
G01X80249Y114797D01*
G01X80255Y114798D01*
G01X80286Y114798D01*
G01X80292Y114799D01*
G01X80298Y114801D01*
G01X80303Y114804D01*
G01X80309Y114808D01*
G01X80311Y114816D01*
G01X80309Y114829D01*
G01X80302Y114847D01*
G01X80291Y114869D01*
G01X80232Y114994D01*
G01X80169Y115116D01*
G01X80102Y115236D01*
G01X80030Y115352D01*
G01X79954Y115466D01*
G01X79874Y115577D01*
G01X79789Y115686D01*
G01X79700Y115791D01*
G01X79606Y115895D01*
G01X79508Y115995D01*
G01X79408Y116092D01*
G01X79305Y116184D01*
G01X79199Y116272D01*
G01X79091Y116356D01*
G01X78981Y116435D01*
G01X78868Y116510D01*
G01X78753Y116580D01*
G01X78636Y116646D01*
G01X78516Y116707D01*
G01X78393Y116764D01*
G01X78270Y116817D01*
G01X78145Y116864D01*
G01X78019Y116905D01*
G01X77892Y116942D01*
G01X77764Y116973D01*
G01X77635Y116998D01*
G01X77504Y117019D01*
G01X77372Y117035D01*
G01X77240Y117044D01*
G37*

%LPC*%
G36*
G01X78408Y116164D02*
G01X78289Y116166D01*
G01X78165Y116150D01*
G01X78037Y116114D01*
G01X77906Y116057D01*
G01X77774Y115979D01*
G01X77639Y115880D01*
G01X77515Y115817D01*
G01X77339Y115748D01*
G01X77239Y115713D01*
G01X77141Y115676D01*
G01X77043Y115635D01*
G01X76946Y115593D01*
G01X76769Y115506D01*
G01X76631Y115413D01*
G01X76554Y115318D01*
G01X76570Y115220D01*
G01X76612Y115111D01*
G01X76680Y115014D01*
G01X76772Y114930D01*
G01X76890Y114859D01*
G01X76979Y114819D01*
G01X77073Y114782D01*
G01X77172Y114750D01*
G01X77276Y114722D01*
G01X77385Y114698D01*
G01X77499Y114679D01*
G01X77617Y114664D01*
G01X77734Y114653D01*
G01X77854Y114646D01*
G01X77973Y114643D01*
G01X78094Y114644D01*
G01X78216Y114648D01*
G01X78334Y114657D01*
G01X78448Y114667D01*
G01X78556Y114679D01*
G01X78659Y114694D01*
G01X78758Y114711D01*
G01X78851Y114730D01*
G01X78891Y114736D01*
G01X78933Y114745D01*
G01X78977Y114757D01*
G01X79023Y114770D01*
G01X79070Y114786D01*
G01X79113Y114804D01*
G01X79152Y114825D01*
G01X79188Y114849D01*
G01X79220Y114877D01*
G01X79244Y114907D01*
G01X79261Y114941D01*
G01X79270Y114979D01*
G01X79269Y115021D01*
G01X79254Y115067D01*
G01X79228Y115116D01*
G01X79188Y115169D01*
G01X79167Y115286D01*
G01X79140Y115396D01*
G01X79109Y115499D01*
G01X79072Y115596D01*
G01X79031Y115686D01*
G01X78985Y115769D01*
G01X78908Y115880D01*
G01X78824Y115973D01*
G01X78731Y116048D01*
G01X78630Y116104D01*
G01X78521Y116143D01*
G01X78408Y116164D01*
G37*

%LPD*%
G36*
G01X79000Y112820D02*
G01X78991Y112825D01*
G01X78972Y112819D01*
G01X78945Y112802D01*
G01X78909Y112774D01*
G01X78874Y112745D01*
G01X78850Y112722D01*
G01X78835Y112703D01*
G01X78830Y112690D01*
G01X78831Y112670D01*
G01X78834Y112649D01*
G01X78839Y112629D01*
G01X78845Y112609D01*
G01X78852Y112590D01*
G01X78857Y112574D01*
G01X78860Y112561D01*
G01X78861Y112550D01*
G01X78847Y112493D01*
G01X78807Y112422D01*
G01X78739Y112337D01*
G01X78645Y112238D01*
G01X78571Y112169D01*
G01X78494Y112100D01*
G01X78414Y112031D01*
G01X78331Y111962D01*
G01X78245Y111893D01*
G01X78155Y111824D01*
G01X78064Y111757D01*
G01X77974Y111693D01*
G01X77886Y111632D01*
G01X77799Y111575D01*
G01X77713Y111520D01*
G01X77629Y111468D01*
G01X77424Y111361D01*
G01X77309Y111339D01*
G01X77264Y111359D01*
G01X77228Y111389D01*
G01X77202Y111429D01*
G01X77184Y111479D01*
G01X77161Y111599D01*
G01X77144Y111735D01*
G01X77125Y111879D01*
G01X77101Y112020D01*
G01X77048Y112147D01*
G01X76951Y112248D01*
G01X76909Y112271D01*
G01X76866Y112278D01*
G01X76822Y112268D01*
G01X76775Y112243D01*
G01X76728Y112210D01*
G01X76681Y112173D01*
G01X76635Y112132D01*
G01X76590Y112088D01*
G01X76544Y112045D01*
G01X76498Y112003D01*
G01X76451Y111962D01*
G01X76405Y111923D01*
G01X76358Y111893D01*
G01X76314Y111876D01*
G01X76271Y111871D01*
G01X76229Y111880D01*
G01X76082Y111928D01*
G01X75940Y111989D01*
G01X75802Y112051D01*
G01X75665Y112093D01*
G01X75533Y112114D01*
G01X75409Y112103D01*
G01X75295Y112051D01*
G01X75190Y111938D01*
G01X75168Y111912D01*
G01X75142Y111879D01*
G01X75112Y111842D01*
G01X75079Y111799D01*
G01X75046Y111753D01*
G01X75015Y111707D01*
G01X74986Y111658D01*
G01X74959Y111608D01*
G01X74936Y111560D01*
G01X74919Y111514D01*
G01X74906Y111471D01*
G01X74898Y111430D01*
G01X74900Y111394D01*
G01X74912Y111364D01*
G01X74935Y111343D01*
G01X74969Y111329D01*
G01X75041Y111200D01*
G01X75126Y111072D01*
G01X75224Y110945D01*
G01X75335Y110818D01*
G01X75414Y110739D01*
G01X75497Y110667D01*
G01X75583Y110602D01*
G01X75672Y110544D01*
G01X75763Y110494D01*
G01X75858Y110450D01*
G01X75895Y110436D01*
G01X75922Y110432D01*
G01X75940Y110441D01*
G01X75950Y110460D01*
G01X75954Y110485D01*
G01X75955Y110513D01*
G01X75954Y110543D01*
G01X75950Y110574D01*
G01X75945Y110607D01*
G01X75942Y110639D01*
G01X75940Y110669D01*
G01X75940Y110699D01*
G01X75943Y110725D01*
G01X75952Y110742D01*
G01X75968Y110751D01*
G01X75991Y110750D01*
G01X76117Y110658D01*
G01X76255Y110564D01*
G01X76394Y110467D01*
G01X76524Y110363D01*
G01X76639Y110256D01*
G01X76735Y110140D01*
G01X76798Y110014D01*
G01X76819Y109878D01*
G01X76811Y109825D01*
G01X76789Y109783D01*
G01X76752Y109752D01*
G01X76699Y109734D01*
G01X76567Y109720D01*
G01X76410Y109728D01*
G01X76237Y109756D01*
G01X76059Y109800D01*
G01X75894Y109842D01*
G01X75759Y109868D01*
G01X75633Y109893D01*
G01X75507Y109919D01*
G01X75382Y109949D01*
G01X75256Y109983D01*
G01X75131Y110020D01*
G01X75006Y110059D01*
G01X74880Y110102D01*
G01X74755Y110148D01*
G01X74630Y110197D01*
G01X74505Y110249D01*
G01X74400Y110294D01*
G01X74294Y110340D01*
G01X74188Y110385D01*
G01X74081Y110432D01*
G01X73972Y110478D01*
G01X73863Y110525D01*
G01X73753Y110571D01*
G01X73642Y110618D01*
G01X73418Y110714D01*
G01X73304Y110762D01*
G01X73189Y110811D01*
G01X73176Y110838D01*
G01X73159Y110852D01*
G01X73137Y110852D01*
G01X73110Y110838D01*
G01X73083Y110820D01*
G01X73064Y110800D01*
G01X73053Y110780D01*
G01X73049Y110760D01*
G01X73056Y110644D01*
G01X73095Y110513D01*
G01X73150Y110380D01*
G01X73209Y110249D01*
G01X73238Y110186D01*
G01X73264Y110126D01*
G01X73286Y110069D01*
G01X73306Y110015D01*
G01X73316Y109966D01*
G01X73313Y109923D01*
G01X73298Y109887D01*
G01X73270Y109858D01*
G01X73247Y109823D01*
G01X73210Y109797D01*
G01X73157Y109779D01*
G01X73090Y109769D01*
G01X72936Y109760D01*
G01X72775Y109754D01*
G01X72617Y109740D01*
G01X72475Y109708D01*
G01X72374Y109642D01*
G01X72341Y109520D01*
G01X72343Y109497D01*
G01X72351Y109467D01*
G01X72365Y109431D01*
G01X72384Y109388D01*
G01X72408Y109343D01*
G01X72435Y109298D01*
G01X72464Y109252D01*
G01X72495Y109205D01*
G01X72527Y109157D01*
G01X72595Y109065D01*
G01X72630Y109020D01*
G01X72663Y108978D01*
G01X72692Y108942D01*
G01X72717Y108913D01*
G01X72739Y108890D01*
G01X72830Y108783D01*
G01X72921Y108671D01*
G01X73013Y108554D01*
G01X73105Y108433D01*
G01X73169Y108352D01*
G01X73235Y108272D01*
G01X73304Y108193D01*
G01X73376Y108114D01*
G01X73451Y108036D01*
G01X73529Y107958D01*
G01X73547Y107927D01*
G01X73570Y107911D01*
G01X73599Y107910D01*
G01X73633Y107925D01*
G01X73667Y107950D01*
G01X73691Y107980D01*
G01X73705Y108017D01*
G01X73710Y108060D01*
G01X73704Y108080D01*
G01X73694Y108100D01*
G01X73683Y108120D01*
G01X73669Y108138D01*
G01X73654Y108159D01*
G01X73639Y108181D01*
G01X73625Y108202D01*
G01X73611Y108225D01*
G01X73596Y108248D01*
G01X73584Y108269D01*
G01X73573Y108289D01*
G01X73565Y108309D01*
G01X73559Y108328D01*
G01X73559Y108347D01*
G01X73562Y108364D01*
G01X73570Y108380D01*
G01X73621Y108512D01*
G01X73776Y108608D01*
G01X73884Y108646D01*
G01X74007Y108678D01*
G01X74143Y108705D01*
G01X74294Y108725D01*
G01X74400Y108735D01*
G01X74511Y108743D01*
G01X74626Y108749D01*
G01X74743Y108753D01*
G01X74865Y108754D01*
G01X74990Y108753D01*
G01X75116Y108752D01*
G01X75240Y108749D01*
G01X75361Y108747D01*
G01X75481Y108743D01*
G01X75598Y108739D01*
G01X75714Y108735D01*
G01X75882Y108728D01*
G01X76040Y108719D01*
G01X76189Y108710D01*
G01X76328Y108700D01*
G01X76554Y108685D01*
G01X76689Y108679D01*
G01X76842Y108680D01*
G01X76988Y108681D01*
G01X77126Y108682D01*
G01X77258Y108684D01*
G01X77382Y108687D01*
G01X77499Y108690D01*
G01X77662Y108689D01*
G01X77812Y108677D01*
G01X77947Y108654D01*
G01X78068Y108618D01*
G01X78229Y108566D01*
G01X78371Y108504D01*
G01X78663Y108358D01*
G01X78715Y108334D01*
G01X78766Y108313D01*
G01X78815Y108293D01*
G01X78861Y108280D01*
G01X78906Y108272D01*
G01X78949Y108268D01*
G01X78990Y108271D01*
G01X79094Y108293D01*
G01X79198Y108331D01*
G01X79301Y108387D01*
G01X79404Y108458D01*
G01X79507Y108536D01*
G01X79611Y108609D01*
G01X79714Y108677D01*
G01X79818Y108740D01*
G01X79844Y108752D01*
G01X79872Y108758D01*
G01X79900Y108758D01*
G01X79930Y108753D01*
G01X79960Y108747D01*
G01X79992Y108739D01*
G01X80025Y108730D01*
G01X80060Y108720D01*
G01X80094Y108711D01*
G01X80126Y108702D01*
G01X80156Y108696D01*
G01X80184Y108690D01*
G01X80210Y108689D01*
G01X80234Y108695D01*
G01X80254Y108709D01*
G01X80270Y108730D01*
G01X80281Y108750D01*
G01X80285Y108769D01*
G01X80281Y108789D01*
G01X80270Y108809D01*
G01X80254Y108829D01*
G01X80234Y108849D01*
G01X80210Y108867D01*
G01X80184Y108885D01*
G01X80158Y108902D01*
G01X80134Y108920D01*
G01X80111Y108939D01*
G01X80090Y108959D01*
G01X80073Y108979D01*
G01X80062Y108999D01*
G01X80058Y109020D01*
G01X80060Y109040D01*
G01X80081Y109111D01*
G01X80094Y109174D01*
G01X80099Y109228D01*
G01X80095Y109274D01*
G01X80085Y109315D01*
G01X80069Y109351D01*
G01X80046Y109382D01*
G01X80019Y109408D01*
G01X79987Y109433D01*
G01X79951Y109456D01*
G01X79910Y109476D01*
G01X79864Y109495D01*
G01X79815Y109514D01*
G01X79764Y109534D01*
G01X79709Y109556D01*
G01X79651Y109579D01*
G01X79622Y109592D01*
G01X79596Y109611D01*
G01X79573Y109635D01*
G01X79554Y109665D01*
G01X79537Y109697D01*
G01X79522Y109730D01*
G01X79508Y109765D01*
G01X79496Y109800D01*
G01X79483Y109833D01*
G01X79469Y109865D01*
G01X79455Y109896D01*
G01X79440Y109924D01*
G01X79423Y109949D01*
G01X79402Y109966D01*
G01X79377Y109977D01*
G01X79348Y109980D01*
G01X79229Y109992D01*
G01X79108Y109998D01*
G01X78986Y109997D01*
G01X78863Y109990D01*
G01X78741Y109979D01*
G01X78619Y109967D01*
G01X78498Y109954D01*
G01X78376Y109939D01*
G01X78253Y109925D01*
G01X78131Y109911D01*
G01X78010Y109900D01*
G01X77890Y109888D01*
G01X77771Y109882D01*
G01X77652Y109883D01*
G01X77536Y109893D01*
G01X77421Y109909D01*
G01X77297Y109950D01*
G01X77169Y110054D01*
G01X77105Y110124D01*
G01X77043Y110201D01*
G01X76983Y110284D01*
G01X76925Y110374D01*
G01X76870Y110468D01*
G01X76821Y110564D01*
G01X76777Y110663D01*
G01X76740Y110765D01*
G01X76686Y110955D01*
G01X76669Y111120D01*
G01X76677Y111132D01*
G01X76702Y111128D01*
G01X76744Y111109D01*
G01X76803Y111075D01*
G01X76949Y110980D01*
G01X77111Y110869D01*
G01X77193Y110811D01*
G01X77273Y110754D01*
G01X77351Y110699D01*
G01X77426Y110645D01*
G01X77491Y110598D01*
G01X77541Y110563D01*
G01X77577Y110540D01*
G01X77598Y110529D01*
G01X77626Y110521D01*
G01X77657Y110529D01*
G01X77692Y110551D01*
G01X77730Y110590D01*
G01X77769Y110629D01*
G01X77805Y110657D01*
G01X77839Y110673D01*
G01X77870Y110678D01*
G01X77911Y110672D01*
G01X77956Y110662D01*
G01X78004Y110648D01*
G01X78056Y110630D01*
G01X78107Y110611D01*
G01X78159Y110592D01*
G01X78209Y110575D01*
G01X78259Y110559D01*
G01X78308Y110546D01*
G01X78352Y110535D01*
G01X78392Y110528D01*
G01X78429Y110523D01*
G01X78460Y110526D01*
G01X78485Y110538D01*
G01X78501Y110559D01*
G01X78510Y110590D01*
G01X78544Y110691D01*
G01X78588Y110774D01*
G01X78641Y110838D01*
G01X78703Y110884D01*
G01X78777Y110922D01*
G01X78861Y110957D01*
G01X78955Y110991D01*
G01X79059Y111024D01*
G01X79175Y111060D01*
G01X79303Y111104D01*
G01X79443Y111153D01*
G01X79595Y111209D01*
G01X79702Y111254D01*
G01X79816Y111309D01*
G01X79936Y111374D01*
G01X80061Y111449D01*
G01X80192Y111534D01*
G01X80329Y111628D01*
G01X80400Y111692D01*
G01X80435Y111759D01*
G01X80431Y111830D01*
G01X80390Y111905D01*
G01X80322Y111983D01*
G01X80237Y112062D01*
G01X80136Y112141D01*
G01X80019Y112220D01*
G01X79891Y112300D01*
G01X79757Y112379D01*
G01X79617Y112457D01*
G01X79470Y112535D01*
G01X79329Y112611D01*
G01X79203Y112684D01*
G01X79093Y112754D01*
G01X79000Y112820D01*
G37*

%LPD*%
G36*
G01X79372Y107886D02*
G01X79343Y107892D01*
G01X79310Y107890D01*
G01X79177Y107854D01*
G01X79047Y107809D01*
G01X78921Y107754D01*
G01X78800Y107689D01*
G01X78680Y107619D01*
G01X78564Y107548D01*
G01X78451Y107477D01*
G01X78340Y107404D01*
G01X78230Y107334D01*
G01X78122Y107269D01*
G01X78016Y107207D01*
G01X77911Y107150D01*
G01X77806Y107102D01*
G01X77700Y107067D01*
G01X77595Y107046D01*
G01X77489Y107039D01*
G01X77391Y107043D01*
G01X77296Y107054D01*
G01X77205Y107073D01*
G01X77118Y107100D01*
G01X76958Y107160D01*
G01X76813Y107224D01*
G01X76685Y107286D01*
G01X76570Y107338D01*
G01X76516Y107360D01*
G01X76465Y107374D01*
G01X76416Y107380D01*
G01X76369Y107379D01*
G01X76318Y107369D01*
G01X76264Y107351D01*
G01X76206Y107323D01*
G01X76145Y107285D01*
G01X76024Y107196D01*
G01X75914Y107100D01*
G01X75818Y107002D01*
G01X75739Y106904D01*
G01X75709Y106861D01*
G01X75688Y106826D01*
G01X75675Y106799D01*
G01X75670Y106780D01*
G01X75676Y106769D01*
G01X75690Y106756D01*
G01X75715Y106741D01*
G01X75749Y106724D01*
G01X75790Y106705D01*
G01X75830Y106682D01*
G01X75870Y106658D01*
G01X75909Y106630D01*
G01X75948Y106597D01*
G01X75982Y106561D01*
G01X76012Y106520D01*
G01X76039Y106475D01*
G01X76057Y106425D01*
G01X76062Y106373D01*
G01X76052Y106317D01*
G01X76029Y106259D01*
G01X75976Y106156D01*
G01X75917Y106063D01*
G01X75851Y105983D01*
G01X75780Y105913D01*
G01X75634Y105799D01*
G01X75495Y105705D01*
G01X75370Y105627D01*
G01X75264Y105565D01*
G01X75223Y105537D01*
G01X75193Y105506D01*
G01X75176Y105473D01*
G01X75170Y105438D01*
G01X75203Y105314D01*
G01X75300Y105139D01*
G01X75367Y105038D01*
G01X75441Y104937D01*
G01X75520Y104834D01*
G01X75604Y104730D01*
G01X75692Y104627D01*
G01X75778Y104528D01*
G01X75865Y104434D01*
G01X75950Y104344D01*
G01X76095Y104200D01*
G01X76189Y104120D01*
G01X76212Y104080D01*
G01X76231Y104049D01*
G01X76245Y104029D01*
G01X76255Y104019D01*
G01X76262Y104017D01*
G01X76267Y104020D01*
G01X76272Y104029D01*
G01X76275Y104044D01*
G01X76278Y104063D01*
G01X76283Y104085D01*
G01X76288Y104109D01*
G01X76295Y104135D01*
G01X76304Y104160D01*
G01X76316Y104181D01*
G01X76331Y104197D01*
G01X76349Y104209D01*
G01X76359Y104227D01*
G01X76361Y104249D01*
G01X76354Y104277D01*
G01X76339Y104308D01*
G01X76319Y104344D01*
G01X76300Y104378D01*
G01X76280Y104412D01*
G01X76260Y104445D01*
G01X76241Y104476D01*
G01X76226Y104503D01*
G01X76213Y104528D01*
G01X76204Y104549D01*
G01X76202Y104567D01*
G01X76210Y104577D01*
G01X76230Y104582D01*
G01X76260Y104580D01*
G01X76333Y104525D01*
G01X76413Y104465D01*
G01X76500Y104401D01*
G01X76593Y104333D01*
G01X76692Y104260D01*
G01X76798Y104184D01*
G01X76910Y104106D01*
G01X77023Y104031D01*
G01X77139Y103956D01*
G01X77256Y103882D01*
G01X77377Y103810D01*
G01X77499Y103739D01*
G01X77623Y103671D01*
G01X77746Y103606D01*
G01X77870Y103544D01*
G01X77993Y103485D01*
G01X78115Y103430D01*
G01X78238Y103378D01*
G01X78359Y103333D01*
G01X78476Y103297D01*
G01X78586Y103269D01*
G01X78692Y103250D01*
G01X78793Y103240D01*
G01X78889Y103239D01*
G01X79003Y103249D01*
G01X79116Y103269D01*
G01X79227Y103300D01*
G01X79336Y103340D01*
G01X79439Y103389D01*
G01X79537Y103446D01*
G01X79629Y103511D01*
G01X79714Y103584D01*
G01X79793Y103664D01*
G01X79864Y103749D01*
G01X79928Y103840D01*
G01X79983Y103935D01*
G01X80031Y104034D01*
G01X80066Y104136D01*
G01X80089Y104241D01*
G01X80100Y104349D01*
G01X80102Y104379D01*
G01X80108Y104406D01*
G01X80119Y104432D01*
G01X80133Y104455D01*
G01X80149Y104476D01*
G01X80160Y104496D01*
G01X80167Y104513D01*
G01X80169Y104529D01*
G01X80159Y104595D01*
G01X80130Y104674D01*
G01X80081Y104765D01*
G01X80014Y104869D01*
G01X79934Y104980D01*
G01X79849Y105091D01*
G01X79759Y105203D01*
G01X79663Y105314D01*
G01X79567Y105424D01*
G01X79472Y105529D01*
G01X79378Y105627D01*
G01X79285Y105720D01*
G01X79130Y105864D01*
G01X79039Y105939D01*
G01X79034Y105937D01*
G01X79031Y105933D01*
G01X79029Y105925D01*
G01X79028Y105913D01*
G01X79028Y105901D01*
G01X79027Y105890D01*
G01X79023Y105870D01*
G01X79021Y105861D01*
G01X79016Y105852D01*
G01X79010Y105846D01*
G01X79000Y105840D01*
G01X78988Y105837D01*
G01X78972Y105840D01*
G01X78953Y105847D01*
G01X78929Y105860D01*
G01X78908Y105866D01*
G01X78884Y105872D01*
G01X78858Y105880D01*
G01X78830Y105888D01*
G01X78800Y105899D01*
G01X78772Y105911D01*
G01X78744Y105925D01*
G01X78718Y105939D01*
G01X78696Y105954D01*
G01X78675Y105969D01*
G01X78656Y105985D01*
G01X78640Y106000D01*
G01X78629Y106015D01*
G01X78625Y106030D01*
G01X78629Y106044D01*
G01X78640Y106058D01*
G01X78716Y106142D01*
G01X78797Y106215D01*
G01X78882Y106276D01*
G01X78970Y106325D01*
G01X79061Y106364D01*
G01X79155Y106398D01*
G01X79250Y106426D01*
G01X79348Y106449D01*
G01X79449Y106468D01*
G01X79550Y106481D01*
G01X79652Y106490D01*
G01X79755Y106495D01*
G01X79856Y106498D01*
G01X79956Y106499D01*
G01X80054Y106500D01*
G01X80149Y106500D01*
G01X80165Y106503D01*
G01X80175Y106509D01*
G01X80178Y106519D01*
G01X80174Y106533D01*
G01X80165Y106552D01*
G01X80156Y106574D01*
G01X80144Y106598D01*
G01X80131Y106625D01*
G01X80115Y106653D01*
G01X80099Y106680D01*
G01X80065Y106734D01*
G01X80049Y106761D01*
G01X80038Y106786D01*
G01X80031Y106809D01*
G01X80029Y106830D01*
G01X80033Y106843D01*
G01X80043Y106852D01*
G01X80061Y106857D01*
G01X80085Y106858D01*
G01X80108Y106860D01*
G01X80125Y106863D01*
G01X80135Y106870D01*
G01X80138Y106879D01*
G01X80130Y106913D01*
G01X80113Y106945D01*
G01X80089Y106974D01*
G01X80055Y107001D01*
G01X80019Y107026D01*
G01X79988Y107055D01*
G01X79962Y107086D01*
G01X79940Y107120D01*
G01X79922Y107172D01*
G01X79907Y107227D01*
G01X79897Y107286D01*
G01X79889Y107348D01*
G01X79880Y107410D01*
G01X79862Y107466D01*
G01X79836Y107516D01*
G01X79801Y107559D01*
G01X79794Y107568D01*
G01X79787Y107572D01*
G01X79777Y107573D01*
G01X79765Y107569D01*
G01X79753Y107564D01*
G01X79741Y107557D01*
G01X79730Y107549D01*
G01X79719Y107539D01*
G01X79698Y107519D01*
G01X79674Y107498D01*
G01X79663Y107490D01*
G01X79654Y107486D01*
G01X79647Y107485D01*
G01X79641Y107488D01*
G01X79617Y107511D01*
G01X79595Y107536D01*
G01X79575Y107566D01*
G01X79559Y107600D01*
G01X79544Y107634D01*
G01X79528Y107670D01*
G01X79496Y107740D01*
G01X79477Y107773D01*
G01X79459Y107803D01*
G01X79439Y107830D01*
G01X79420Y107854D01*
G01X79398Y107874D01*
G01X79372Y107886D01*
G37*

%LPC*%
G36*
G01X77640Y105907D02*
G01X77560Y105908D01*
G01X77445Y105869D01*
G01X77344Y105789D01*
G01X77263Y105680D01*
G01X77205Y105550D01*
G01X77172Y105409D01*
G01X77164Y105263D01*
G01X77186Y105130D01*
G01X77240Y105019D01*
G01X77356Y104916D01*
G01X77545Y104824D01*
G01X77659Y104784D01*
G01X77777Y104747D01*
G01X77899Y104714D01*
G01X78025Y104684D01*
G01X78151Y104659D01*
G01X78276Y104638D01*
G01X78399Y104622D01*
G01X78520Y104610D01*
G01X78727Y104602D01*
G01X78868Y104618D01*
G01X78927Y104618D01*
G01X78971Y104625D01*
G01X79001Y104638D01*
G01X79016Y104659D01*
G01X79020Y104686D01*
G01X79022Y104716D01*
G01X79020Y104748D01*
G01X79016Y104783D01*
G01X79008Y104821D01*
G01X79000Y104858D01*
G01X78993Y104895D01*
G01X78985Y104930D01*
G01X78982Y104962D01*
G01X78988Y104990D01*
G01X79004Y105012D01*
G01X79028Y105029D01*
G01X78939Y105150D01*
G01X78790Y105294D01*
G01X78697Y105370D01*
G01X78599Y105445D01*
G01X78495Y105518D01*
G01X78386Y105588D01*
G01X78273Y105657D01*
G01X78160Y105719D01*
G01X78047Y105775D01*
G01X77934Y105824D01*
G01X77826Y105865D01*
G01X77728Y105893D01*
G01X77640Y105907D01*
G37*

%LPD*%
G36*
G01X79228Y102661D02*
G01X79175Y102662D01*
G01X79110Y102656D01*
G01X79033Y102639D01*
G01X78865Y102609D01*
G01X78691Y102599D01*
G01X78539Y102591D01*
G01X78392Y102582D01*
G01X78249Y102570D01*
G01X78111Y102557D01*
G01X77978Y102542D01*
G01X77850Y102525D01*
G01X77724Y102508D01*
G01X77600Y102496D01*
G01X77479Y102486D01*
G01X77360Y102480D01*
G01X77243Y102478D01*
G01X77128Y102479D01*
G01X76980Y102488D01*
G01X76844Y102504D01*
G01X76721Y102528D01*
G01X76610Y102558D01*
G01X76425Y102609D01*
G01X76290Y102619D01*
G01X76256Y102616D01*
G01X76223Y102608D01*
G01X76192Y102594D01*
G01X76163Y102573D01*
G01X76137Y102551D01*
G01X76110Y102527D01*
G01X76085Y102502D01*
G01X76059Y102474D01*
G01X76034Y102447D01*
G01X76010Y102420D01*
G01X75987Y102395D01*
G01X75965Y102370D01*
G01X75942Y102347D01*
G01X75918Y102327D01*
G01X75894Y102311D01*
G01X75869Y102299D01*
G01X75713Y102235D01*
G01X75574Y102182D01*
G01X75453Y102139D01*
G01X75350Y102108D01*
G01X75208Y102052D01*
G01X75160Y101979D01*
G01X75166Y101933D01*
G01X75183Y101884D01*
G01X75213Y101833D01*
G01X75254Y101778D01*
G01X75356Y101669D01*
G01X75470Y101560D01*
G01X75588Y101453D01*
G01X75704Y101354D01*
G01X75757Y101311D01*
G01X75801Y101274D01*
G01X75835Y101243D01*
G01X75858Y101219D01*
G01X75971Y101124D01*
G01X76125Y101034D01*
G01X76212Y100991D01*
G01X76298Y100945D01*
G01X76382Y100896D01*
G01X76466Y100844D01*
G01X76617Y100733D01*
G01X76740Y100610D01*
G01X76814Y100465D01*
G01X76819Y100290D01*
G01X76768Y100157D01*
G01X76674Y100099D01*
G01X76551Y100089D01*
G01X76410Y100099D01*
G01X76255Y100115D01*
G01X76090Y100120D01*
G01X75927Y100090D01*
G01X75780Y100000D01*
G01X75756Y99985D01*
G01X75724Y99969D01*
G01X75686Y99952D01*
G01X75640Y99934D01*
G01X75589Y99916D01*
G01X75539Y99898D01*
G01X75439Y99858D01*
G01X75391Y99838D01*
G01X75346Y99817D01*
G01X75304Y99794D01*
G01X75264Y99769D01*
G01X75232Y99743D01*
G01X75209Y99714D01*
G01X75195Y99683D01*
G01X75190Y99650D01*
G01X75220Y99542D01*
G01X75310Y99419D01*
G01X75439Y99291D01*
G01X75589Y99165D01*
G01X75669Y99103D01*
G01X75751Y99042D01*
G01X75832Y98982D01*
G01X75914Y98923D01*
G01X76059Y98823D01*
G01X76161Y98748D01*
G01X76278Y98671D01*
G01X76430Y98598D01*
G01X76597Y98527D01*
G01X76755Y98448D01*
G01X76894Y98363D01*
G01X76999Y98265D01*
G01X77050Y98151D01*
G01X77019Y98019D01*
G01X76929Y97904D01*
G01X76796Y97859D01*
G01X76636Y97863D01*
G01X76466Y97895D01*
G01X76289Y97942D01*
G01X76110Y97994D01*
G01X75940Y98033D01*
G01X75790Y98039D01*
G01X75750Y98035D01*
G01X75711Y98032D01*
G01X75672Y98030D01*
G01X75635Y98029D01*
G01X75600Y98026D01*
G01X75573Y98017D01*
G01X75552Y98001D01*
G01X75538Y97978D01*
G01X75535Y97972D01*
G01X75535Y97963D01*
G01X75537Y97950D01*
G01X75543Y97935D01*
G01X75559Y97899D01*
G01X75566Y97879D01*
G01X75574Y97859D01*
G01X75582Y97840D01*
G01X75589Y97822D01*
G01X75597Y97806D01*
G01X75604Y97790D01*
G01X75610Y97777D01*
G01X75611Y97765D01*
G01X75608Y97756D01*
G01X75599Y97750D01*
G01X75421Y97684D01*
G01X75293Y97617D01*
G01X75216Y97549D01*
G01X75190Y97478D01*
G01X75194Y97456D01*
G01X75206Y97426D01*
G01X75226Y97388D01*
G01X75254Y97343D01*
G01X75330Y97243D01*
G01X75424Y97130D01*
G01X75535Y97007D01*
G01X75660Y96879D01*
G01X75787Y96753D01*
G01X75909Y96635D01*
G01X76024Y96528D01*
G01X76130Y96434D01*
G01X76177Y96396D01*
G01X76217Y96364D01*
G01X76252Y96339D01*
G01X76280Y96320D01*
G01X76306Y96307D01*
G01X76335Y96298D01*
G01X76368Y96294D01*
G01X76405Y96294D01*
G01X76440Y96299D01*
G01X76469Y96309D01*
G01X76492Y96322D01*
G01X76509Y96340D01*
G01X76512Y96347D01*
G01X76510Y96357D01*
G01X76504Y96371D01*
G01X76493Y96388D01*
G01X76482Y96409D01*
G01X76469Y96429D01*
G01X76455Y96449D01*
G01X76440Y96470D01*
G01X76425Y96490D01*
G01X76394Y96530D01*
G01X76379Y96548D01*
G01X76366Y96568D01*
G01X76356Y96587D01*
G01X76351Y96604D01*
G01X76349Y96620D01*
G01X76356Y96658D01*
G01X76379Y96695D01*
G01X76417Y96731D01*
G01X76471Y96764D01*
G01X76608Y96824D01*
G01X76780Y96868D01*
G01X76876Y96888D01*
G01X76977Y96906D01*
G01X77081Y96921D01*
G01X77189Y96934D01*
G01X77299Y96947D01*
G01X77406Y96957D01*
G01X77511Y96967D01*
G01X77614Y96975D01*
G01X77806Y96985D01*
G01X77969Y96985D01*
G01X78038Y96983D01*
G01X78094Y96979D01*
G01X78138Y96975D01*
G01X78170Y96970D01*
G01X78229Y96948D01*
G01X78286Y96923D01*
G01X78341Y96895D01*
G01X78393Y96863D01*
G01X78446Y96832D01*
G01X78497Y96802D01*
G01X78546Y96772D01*
G01X78594Y96744D01*
G01X78642Y96718D01*
G01X78689Y96693D01*
G01X78735Y96670D01*
G01X78779Y96650D01*
G01X78824Y96634D01*
G01X78869Y96625D01*
G01X78914Y96624D01*
G01X78960Y96630D01*
G01X79119Y96672D01*
G01X79275Y96759D01*
G01X79434Y96859D01*
G01X79600Y96940D01*
G01X79630Y96952D01*
G01X79661Y96960D01*
G01X79695Y96962D01*
G01X79729Y96960D01*
G01X79765Y96954D01*
G01X79800Y96947D01*
G01X79835Y96939D01*
G01X79869Y96929D01*
G01X79904Y96920D01*
G01X79938Y96912D01*
G01X79972Y96905D01*
G01X80004Y96899D01*
G01X80036Y96896D01*
G01X80069Y96899D01*
G01X80100Y96907D01*
G01X80131Y96919D01*
G01X80150Y96934D01*
G01X80161Y96957D01*
G01X80162Y96988D01*
G01X80154Y97028D01*
G01X80142Y97071D01*
G01X80129Y97105D01*
G01X80115Y97132D01*
G01X80100Y97150D01*
G01X80081Y97167D01*
G01X80055Y97177D01*
G01X80020Y97181D01*
G01X79978Y97178D01*
G01X79940Y97177D01*
G01X79914Y97183D01*
G01X79901Y97198D01*
G01X79900Y97219D01*
G01X79956Y97351D01*
G01X80024Y97465D01*
G01X80058Y97516D01*
G01X80081Y97563D01*
G01X80096Y97608D01*
G01X80100Y97648D01*
G01X80093Y97706D01*
G01X80072Y97756D01*
G01X80037Y97799D01*
G01X79988Y97834D01*
G01X79854Y97892D01*
G01X79668Y97935D01*
G01X79558Y97952D01*
G01X79436Y97967D01*
G01X79302Y97981D01*
G01X79155Y97994D01*
G01X79051Y98003D01*
G01X78943Y98013D01*
G01X78829Y98026D01*
G01X78710Y98039D01*
G01X78587Y98054D01*
G01X78459Y98070D01*
G01X78326Y98083D01*
G01X78196Y98099D01*
G01X78068Y98119D01*
G01X77944Y98144D01*
G01X77826Y98175D01*
G01X77716Y98211D01*
G01X77614Y98252D01*
G01X77520Y98298D01*
G01X77427Y98352D01*
G01X77339Y98409D01*
G01X77257Y98470D01*
G01X77179Y98535D01*
G01X77055Y98669D01*
G01X76984Y98804D01*
G01X76976Y98934D01*
G01X77040Y99055D01*
G01X77103Y99110D01*
G01X77194Y99159D01*
G01X77312Y99201D01*
G01X77459Y99238D01*
G01X77568Y99252D01*
G01X77675Y99252D01*
G01X77779Y99238D01*
G01X77880Y99210D01*
G01X77978Y99173D01*
G01X78075Y99131D01*
G01X78170Y99085D01*
G01X78264Y99035D01*
G01X78356Y98983D01*
G01X78447Y98934D01*
G01X78536Y98888D01*
G01X78625Y98845D01*
G01X78796Y98785D01*
G01X78960Y98779D01*
G01X79060Y98799D01*
G01X79160Y98831D01*
G01X79260Y98875D01*
G01X79359Y98928D01*
G01X79457Y98992D01*
G01X79551Y99060D01*
G01X79639Y99133D01*
G01X79724Y99210D01*
G01X79803Y99291D01*
G01X79874Y99372D01*
G01X79938Y99454D01*
G01X79994Y99535D01*
G01X80074Y99685D01*
G01X80100Y99810D01*
G01X80067Y99937D01*
G01X79966Y100018D01*
G01X79807Y100069D01*
G01X79605Y100099D01*
G01X79488Y100108D01*
G01X79363Y100115D01*
G01X79230Y100119D01*
G01X79089Y100120D01*
G01X78944Y100122D01*
G01X78797Y100127D01*
G01X78649Y100137D01*
G01X78500Y100150D01*
G01X78458Y100156D01*
G01X78414Y100161D01*
G01X78368Y100167D01*
G01X78320Y100173D01*
G01X78271Y100181D01*
G01X78225Y100190D01*
G01X78181Y100199D01*
G01X78139Y100209D01*
G01X78047Y100256D01*
G01X77911Y100338D01*
G01X77829Y100390D01*
G01X77745Y100446D01*
G01X77656Y100504D01*
G01X77565Y100564D01*
G01X77473Y100628D01*
G01X77384Y100694D01*
G01X77296Y100762D01*
G01X77210Y100833D01*
G01X77129Y100905D01*
G01X77056Y100973D01*
G01X76992Y101038D01*
G01X76935Y101100D01*
G01X76889Y101157D01*
G01X76857Y101209D01*
G01X76838Y101257D01*
G01X76834Y101298D01*
G01X76846Y101335D01*
G01X76878Y101362D01*
G01X76929Y101381D01*
G01X76999Y101390D01*
G01X77116Y101393D01*
G01X77232Y101393D01*
G01X77346Y101390D01*
G01X77459Y101384D01*
G01X77571Y101373D01*
G01X77682Y101360D01*
G01X77792Y101344D01*
G01X77901Y101324D01*
G01X78043Y101296D01*
G01X78183Y101268D01*
G01X78321Y101241D01*
G01X78457Y101213D01*
G01X78591Y101186D01*
G01X78724Y101159D01*
G01X78855Y101134D01*
G01X78985Y101110D01*
G01X79114Y101089D01*
G01X79241Y101071D01*
G01X79366Y101054D01*
G01X79491Y101039D01*
G01X79613Y101030D01*
G01X79732Y101029D01*
G01X79849Y101037D01*
G01X79965Y101053D01*
G01X80078Y101077D01*
G01X80189Y101110D01*
G01X80224Y101122D01*
G01X80245Y101140D01*
G01X80254Y101164D01*
G01X80250Y101194D01*
G01X80238Y101229D01*
G01X80222Y101265D01*
G01X80202Y101303D01*
G01X80179Y101344D01*
G01X80154Y101388D01*
G01X80128Y101434D01*
G01X80099Y101481D01*
G01X80070Y101529D01*
G01X80042Y101578D01*
G01X80022Y101624D01*
G01X80007Y101668D01*
G01X79999Y101710D01*
G01X80002Y101718D01*
G01X80013Y101724D01*
G01X80030Y101726D01*
G01X80055Y101725D01*
G01X80078Y101724D01*
G01X80094Y101726D01*
G01X80101Y101732D01*
G01X80100Y101740D01*
G01X80088Y101764D01*
G01X80070Y101787D01*
G01X80047Y101809D01*
G01X80019Y101829D01*
G01X79992Y101850D01*
G01X79970Y101872D01*
G01X79953Y101896D01*
G01X79940Y101921D01*
G01X79922Y101972D01*
G01X79907Y102027D01*
G01X79897Y102087D01*
G01X79889Y102149D01*
G01X79880Y102212D01*
G01X79862Y102270D01*
G01X79836Y102322D01*
G01X79801Y102370D01*
G01X79782Y102384D01*
G01X79756Y102388D01*
G01X79723Y102382D01*
G01X79684Y102365D01*
G01X79644Y102347D01*
G01X79608Y102339D01*
G01X79577Y102340D01*
G01X79549Y102350D01*
G01X79511Y102374D01*
G01X79476Y102407D01*
G01X79444Y102447D01*
G01X79384Y102543D01*
G01X79350Y102585D01*
G01X79312Y102621D01*
G01X79270Y102649D01*
G01X79228Y102661D01*
G37*

%LPD*%
G36*
G01X77240Y95845D02*
G01X77106Y95850D01*
G01X76971Y95849D01*
G01X76837Y95840D01*
G01X76704Y95825D01*
G01X76572Y95802D01*
G01X76442Y95773D01*
G01X76311Y95736D01*
G01X76182Y95692D01*
G01X76054Y95642D01*
G01X75927Y95585D01*
G01X75800Y95520D01*
G01X75775Y95507D01*
G01X75752Y95489D01*
G01X75729Y95466D01*
G01X75709Y95438D01*
G01X75691Y95410D01*
G01X75678Y95382D01*
G01X75667Y95355D01*
G01X75660Y95329D01*
G01X75648Y95314D01*
G01X75642Y95298D01*
G01X75641Y95281D01*
G01X75645Y95263D01*
G01X75661Y95231D01*
G01X75681Y95200D01*
G01X75690Y95185D01*
G01X75699Y95171D01*
G01X75709Y95157D01*
G01X75719Y95144D01*
G01X75726Y95132D01*
G01X75729Y95120D01*
G01X75726Y95109D01*
G01X75719Y95098D01*
G01X75629Y94998D01*
G01X75552Y94896D01*
G01X75487Y94793D01*
G01X75435Y94690D01*
G01X75397Y94584D01*
G01X75371Y94478D01*
G01X75355Y94372D01*
G01X75347Y94266D01*
G01X75348Y94161D01*
G01X75359Y94056D01*
G01X75377Y93952D01*
G01X75404Y93848D01*
G01X75439Y93746D01*
G01X75480Y93645D01*
G01X75527Y93546D01*
G01X75580Y93449D01*
G01X75639Y93353D01*
G01X75704Y93259D01*
G01X75773Y93168D01*
G01X75845Y93078D01*
G01X75918Y92992D01*
G01X75994Y92908D01*
G01X76071Y92827D01*
G01X76151Y92749D01*
G01X76163Y92718D01*
G01X76183Y92702D01*
G01X76210Y92702D01*
G01X76245Y92718D01*
G01X76280Y92742D01*
G01X76311Y92764D01*
G01X76337Y92783D01*
G01X76359Y92799D01*
G01X76355Y92810D01*
G01X76350Y92822D01*
G01X76344Y92840D01*
G01X76335Y92859D01*
G01X76317Y92899D01*
G01X76305Y92919D01*
G01X76294Y92939D01*
G01X76284Y92958D01*
G01X76276Y92977D01*
G01X76270Y92995D01*
G01X76266Y93011D01*
G01X76265Y93022D01*
G01X76266Y93028D01*
G01X76270Y93031D01*
G01X76373Y92949D01*
G01X76479Y92873D01*
G01X76589Y92802D01*
G01X76704Y92738D01*
G01X76820Y92678D01*
G01X76931Y92616D01*
G01X77037Y92554D01*
G01X77139Y92489D01*
G01X77233Y92377D01*
G01X77355Y92279D01*
G01X77498Y92197D01*
G01X77659Y92129D01*
G01X77832Y92077D01*
G01X78010Y92040D01*
G01X78185Y92017D01*
G01X78350Y92009D01*
G01X78460Y92012D01*
G01X78571Y92022D01*
G01X78681Y92037D01*
G01X78793Y92058D01*
G01X78904Y92086D01*
G01X79016Y92119D01*
G01X79125Y92159D01*
G01X79231Y92203D01*
G01X79335Y92252D01*
G01X79434Y92306D01*
G01X79531Y92365D01*
G01X79625Y92429D01*
G01X79714Y92498D01*
G01X79796Y92572D01*
G01X79874Y92652D01*
G01X79945Y92736D01*
G01X80010Y92825D01*
G01X80070Y92919D01*
G01X80122Y93017D01*
G01X80164Y93120D01*
G01X80197Y93226D01*
G01X80221Y93337D01*
G01X80235Y93451D01*
G01X80240Y93569D01*
G01X80241Y93583D01*
G01X80244Y93592D01*
G01X80249Y93598D01*
G01X80255Y93599D01*
G01X80286Y93599D01*
G01X80292Y93600D01*
G01X80298Y93602D01*
G01X80303Y93606D01*
G01X80309Y93610D01*
G01X80311Y93617D01*
G01X80309Y93629D01*
G01X80302Y93647D01*
G01X80291Y93668D01*
G01X80232Y93794D01*
G01X80169Y93915D01*
G01X80102Y94035D01*
G01X80030Y94152D01*
G01X79954Y94266D01*
G01X79874Y94377D01*
G01X79789Y94485D01*
G01X79700Y94591D01*
G01X79606Y94694D01*
G01X79508Y94793D01*
G01X79408Y94890D01*
G01X79305Y94983D01*
G01X79199Y95071D01*
G01X79091Y95155D01*
G01X78981Y95234D01*
G01X78868Y95309D01*
G01X78753Y95380D01*
G01X78636Y95446D01*
G01X78516Y95508D01*
G01X78393Y95565D01*
G01X78270Y95618D01*
G01X78145Y95665D01*
G01X78019Y95707D01*
G01X77892Y95743D01*
G01X77764Y95774D01*
G01X77635Y95800D01*
G01X77504Y95820D01*
G01X77372Y95836D01*
G01X77240Y95845D01*
G37*

%LPC*%
G36*
G01X78408Y94963D02*
G01X78289Y94965D01*
G01X78165Y94948D01*
G01X78037Y94914D01*
G01X77906Y94857D01*
G01X77774Y94779D01*
G01X77639Y94679D01*
G01X77515Y94616D01*
G01X77339Y94549D01*
G01X77239Y94513D01*
G01X77141Y94475D01*
G01X77043Y94436D01*
G01X76946Y94394D01*
G01X76769Y94307D01*
G01X76631Y94214D01*
G01X76554Y94119D01*
G01X76570Y94019D01*
G01X76612Y93911D01*
G01X76680Y93815D01*
G01X76772Y93732D01*
G01X76890Y93660D01*
G01X76979Y93619D01*
G01X77073Y93582D01*
G01X77172Y93550D01*
G01X77276Y93522D01*
G01X77385Y93499D01*
G01X77499Y93480D01*
G01X77617Y93465D01*
G01X77734Y93454D01*
G01X77854Y93447D01*
G01X77973Y93444D01*
G01X78094Y93445D01*
G01X78216Y93450D01*
G01X78334Y93458D01*
G01X78448Y93467D01*
G01X78556Y93480D01*
G01X78659Y93494D01*
G01X78758Y93510D01*
G01X78851Y93528D01*
G01X78891Y93535D01*
G01X78933Y93544D01*
G01X78977Y93555D01*
G01X79023Y93569D01*
G01X79070Y93586D01*
G01X79113Y93605D01*
G01X79152Y93626D01*
G01X79188Y93650D01*
G01X79220Y93677D01*
G01X79244Y93707D01*
G01X79261Y93742D01*
G01X79270Y93780D01*
G01X79269Y93821D01*
G01X79254Y93867D01*
G01X79228Y93917D01*
G01X79188Y93970D01*
G01X79167Y94087D01*
G01X79140Y94196D01*
G01X79109Y94299D01*
G01X79072Y94396D01*
G01X79031Y94486D01*
G01X78985Y94570D01*
G01X78908Y94680D01*
G01X78824Y94773D01*
G01X78731Y94848D01*
G01X78630Y94905D01*
G01X78521Y94943D01*
G01X78408Y94963D01*
G37*

%LPD*%
G36*
G01X76323Y91664D02*
G01X76174Y91683D01*
G01X76039Y91649D01*
G01X76027Y91643D01*
G01X76020Y91634D01*
G01X76019Y91622D01*
G01X76024Y91608D01*
G01X76032Y91593D01*
G01X76041Y91576D01*
G01X76052Y91556D01*
G01X76076Y91512D01*
G01X76086Y91488D01*
G01X76094Y91465D01*
G01X76100Y91440D01*
G01X76101Y91415D01*
G01X76095Y91390D01*
G01X76081Y91364D01*
G01X76059Y91339D01*
G01X76035Y91342D01*
G01X76013Y91351D01*
G01X75993Y91365D01*
G01X75975Y91385D01*
G01X75922Y91455D01*
G01X75904Y91479D01*
G01X75886Y91504D01*
G01X75869Y91529D01*
G01X75836Y91580D01*
G01X75816Y91603D01*
G01X75794Y91622D01*
G01X75768Y91637D01*
G01X75739Y91649D01*
G01X75717Y91668D01*
G01X75701Y91674D01*
G01X75691Y91668D01*
G01X75688Y91649D01*
G01X75690Y91621D01*
G01X75695Y91585D01*
G01X75702Y91541D01*
G01X75714Y91489D01*
G01X75742Y91372D01*
G01X75775Y91240D01*
G01X75807Y91102D01*
G01X75831Y90968D01*
G01X75838Y90906D01*
G01X75841Y90848D01*
G01X75840Y90794D01*
G01X75836Y90745D01*
G01X75824Y90702D01*
G01X75804Y90670D01*
G01X75776Y90650D01*
G01X75739Y90640D01*
G01X75655Y90611D01*
G01X75521Y90645D01*
G01X75361Y90714D01*
G01X75201Y90790D01*
G01X75053Y90858D01*
G01X74929Y90905D01*
G01X74883Y90913D01*
G01X74855Y90901D01*
G01X74843Y90869D01*
G01X74850Y90818D01*
G01X74856Y90788D01*
G01X74864Y90754D01*
G01X74874Y90718D01*
G01X74886Y90678D01*
G01X74896Y90641D01*
G01X74905Y90607D01*
G01X74913Y90576D01*
G01X74919Y90549D01*
G01X74923Y90519D01*
G01X74916Y90498D01*
G01X74896Y90485D01*
G01X74865Y90480D01*
G01X74826Y90482D01*
G01X74786Y90486D01*
G01X74744Y90494D01*
G01X74700Y90503D01*
G01X74656Y90516D01*
G01X74613Y90529D01*
G01X74573Y90541D01*
G01X74535Y90554D01*
G01X74503Y90564D01*
G01X74481Y90568D01*
G01X74470Y90567D01*
G01X74469Y90559D01*
G01X74505Y90394D01*
G01X74571Y90198D01*
G01X74612Y90094D01*
G01X74657Y89989D01*
G01X74706Y89882D01*
G01X74759Y89774D01*
G01X74816Y89669D01*
G01X74876Y89567D01*
G01X74939Y89469D01*
G01X75005Y89375D01*
G01X75072Y89288D01*
G01X75136Y89209D01*
G01X75199Y89139D01*
G01X75259Y89078D01*
G01X75277Y89063D01*
G01X75301Y89055D01*
G01X75331Y89055D01*
G01X75366Y89063D01*
G01X75440Y89088D01*
G01X75477Y89101D01*
G01X75516Y89114D01*
G01X75552Y89125D01*
G01X75587Y89133D01*
G01X75622Y89138D01*
G01X75655Y89139D01*
G01X75684Y89134D01*
G01X75708Y89117D01*
G01X75726Y89089D01*
G01X75739Y89050D01*
G01X75759Y89037D01*
G01X75767Y89015D01*
G01X75764Y88986D01*
G01X75749Y88949D01*
G01X75733Y88912D01*
G01X75726Y88880D01*
G01X75728Y88852D01*
G01X75739Y88829D01*
G01X75826Y88715D01*
G01X75916Y88603D01*
G01X76009Y88493D01*
G01X76105Y88385D01*
G01X76208Y88284D01*
G01X76321Y88196D01*
G01X76445Y88121D01*
G01X76580Y88060D01*
G01X76613Y88032D01*
G01X76635Y88031D01*
G01X76644Y88055D01*
G01X76641Y88105D01*
G01X76617Y88245D01*
G01X76585Y88415D01*
G01X76556Y88598D01*
G01X76539Y88779D01*
G01X76557Y88927D01*
G01X76631Y89010D01*
G01X76673Y89043D01*
G01X76720Y89063D01*
G01X76772Y89070D01*
G01X76829Y89063D01*
G01X76951Y89035D01*
G01X77199Y88953D01*
G01X77319Y88918D01*
G01X77377Y88911D01*
G01X77431Y88915D01*
G01X77483Y88931D01*
G01X77530Y88959D01*
G01X77707Y88956D01*
G01X77896Y88949D01*
G01X77992Y88944D01*
G01X78089Y88938D01*
G01X78187Y88931D01*
G01X78284Y88923D01*
G01X78381Y88917D01*
G01X78477Y88911D01*
G01X78572Y88907D01*
G01X78665Y88903D01*
G01X78839Y88903D01*
G01X78990Y88908D01*
G01X79088Y88923D01*
G01X79189Y88956D01*
G01X79295Y89008D01*
G01X79404Y89078D01*
G01X79515Y89162D01*
G01X79622Y89251D01*
G01X79725Y89347D01*
G01X79823Y89449D01*
G01X79917Y89555D01*
G01X80004Y89661D01*
G01X80082Y89767D01*
G01X80154Y89873D01*
G01X80257Y90065D01*
G01X80291Y90209D01*
G01X80268Y90341D01*
G01X80199Y90513D01*
G01X80152Y90615D01*
G01X80098Y90723D01*
G01X80037Y90838D01*
G01X79971Y90960D01*
G01X79919Y91036D01*
G01X79854Y91113D01*
G01X79778Y91191D01*
G01X79689Y91270D01*
G01X79595Y91346D01*
G01X79504Y91415D01*
G01X79416Y91476D01*
G01X79331Y91529D01*
G01X79180Y91605D01*
G01X79069Y91634D01*
G01X79027Y91597D01*
G01X79079Y91479D01*
G01X79102Y91457D01*
G01X79128Y91424D01*
G01X79159Y91377D01*
G01X79193Y91319D01*
G01X79261Y91192D01*
G01X79310Y91070D01*
G01X79325Y91014D01*
G01X79331Y90968D01*
G01X79328Y90929D01*
G01X79315Y90899D01*
G01X79244Y90896D01*
G01X79099Y90988D01*
G01X79083Y91003D01*
G01X79062Y91003D01*
G01X79038Y90991D01*
G01X79011Y90965D01*
G01X78981Y90936D01*
G01X78952Y90911D01*
G01X78925Y90892D01*
G01X78899Y90879D01*
G01X78897Y90871D01*
G01X78901Y90856D01*
G01X78912Y90834D01*
G01X78929Y90805D01*
G01X78947Y90773D01*
G01X78960Y90743D01*
G01X78967Y90715D01*
G01X78970Y90689D01*
G01X78926Y90545D01*
G01X78795Y90435D01*
G01X78702Y90390D01*
G01X78600Y90353D01*
G01X78487Y90323D01*
G01X78365Y90300D01*
G01X78234Y90282D01*
G01X78097Y90270D01*
G01X77953Y90262D01*
G01X77804Y90259D01*
G01X77655Y90262D01*
G01X77512Y90269D01*
G01X77375Y90280D01*
G01X77245Y90295D01*
G01X77122Y90314D01*
G01X77009Y90335D01*
G01X76906Y90358D01*
G01X76813Y90384D01*
G01X76738Y90413D01*
G01X76684Y90443D01*
G01X76651Y90475D01*
G01X76641Y90508D01*
G01X76642Y90530D01*
G01X76644Y90553D01*
G01X76648Y90578D01*
G01X76653Y90605D01*
G01X76661Y90632D01*
G01X76668Y90658D01*
G01X76673Y90684D01*
G01X76679Y90709D01*
G01X76682Y90733D01*
G01X76684Y90754D01*
G01X76682Y90771D01*
G01X76679Y90785D01*
G01X76671Y90795D01*
G01X76659Y90800D01*
G01X76642Y90802D01*
G01X76620Y90800D01*
G01X76538Y90879D01*
G01X76514Y90999D01*
G01X76526Y91138D01*
G01X76554Y91275D01*
G01X76573Y91341D01*
G01X76591Y91402D01*
G01X76611Y91460D01*
G01X76631Y91514D01*
G01X76644Y91560D01*
G01X76647Y91592D01*
G01X76639Y91612D01*
G01X76620Y91618D01*
G01X76476Y91630D01*
G01X76323Y91664D01*
G37*

%LPD*%
G36*
G01X79408Y87734D02*
G01X79393Y87735D01*
G01X79375Y87734D01*
G01X79353Y87730D01*
G01X79331Y87724D01*
G01X79306Y87718D01*
G01X79279Y87712D01*
G01X79249Y87704D01*
G01X79219Y87697D01*
G01X79189Y87689D01*
G01X79130Y87674D01*
G01X79101Y87667D01*
G01X79074Y87662D01*
G01X79050Y87659D01*
G01X79028Y87658D01*
G01X78898Y87657D01*
G01X78769Y87653D01*
G01X78644Y87646D01*
G01X78521Y87637D01*
G01X78400Y87624D01*
G01X78283Y87609D01*
G01X78168Y87590D01*
G01X78056Y87570D01*
G01X77909Y87542D01*
G01X77768Y87519D01*
G01X77631Y87501D01*
G01X77499Y87488D01*
G01X77372Y87481D01*
G01X77250Y87478D01*
G01X77082Y87484D01*
G01X76928Y87502D01*
G01X76789Y87532D01*
G01X76664Y87575D01*
G01X76463Y87645D01*
G01X76328Y87669D01*
G01X76290Y87665D01*
G01X76254Y87653D01*
G01X76220Y87633D01*
G01X76189Y87605D01*
G01X76160Y87571D01*
G01X76131Y87535D01*
G01X76102Y87496D01*
G01X76074Y87455D01*
G01X76047Y87413D01*
G01X76021Y87372D01*
G01X75995Y87333D01*
G01X75970Y87295D01*
G01X75944Y87260D01*
G01X75917Y87231D01*
G01X75888Y87207D01*
G01X75858Y87189D01*
G01X75739Y87126D01*
G01X75640Y87066D01*
G01X75560Y87009D01*
G01X75500Y86955D01*
G01X75428Y86845D01*
G01X75414Y86729D01*
G01X75452Y86603D01*
G01X75533Y86465D01*
G01X75589Y86389D01*
G01X75648Y86306D01*
G01X75712Y86216D01*
G01X75780Y86119D01*
G01X75865Y86028D01*
G01X75960Y85935D01*
G01X76064Y85840D01*
G01X76178Y85743D01*
G01X76296Y85647D01*
G01X76408Y85551D01*
G01X76515Y85455D01*
G01X76615Y85360D01*
G01X76705Y85266D01*
G01X76780Y85173D01*
G01X76842Y85083D01*
G01X76890Y84994D01*
G01X76914Y84908D01*
G01X76909Y84825D01*
G01X76873Y84746D01*
G01X76808Y84669D01*
G01X76692Y84546D01*
G01X76572Y84447D01*
G01X76448Y84371D01*
G01X76321Y84318D01*
G01X76193Y84284D01*
G01X76071Y84258D01*
G01X75955Y84242D01*
G01X75846Y84234D01*
G01X75648Y84236D01*
G01X75485Y84250D01*
G01X75422Y84254D01*
G01X75376Y84245D01*
G01X75349Y84223D01*
G01X75340Y84189D01*
G01X75364Y84077D01*
G01X75434Y83960D01*
G01X75531Y83838D01*
G01X75635Y83714D01*
G01X75736Y83589D01*
G01X75831Y83465D01*
G01X75892Y83347D01*
G01X75899Y83239D01*
G01X75912Y83225D01*
G01X75931Y83202D01*
G01X75985Y83130D01*
G01X76018Y83084D01*
G01X76055Y83038D01*
G01X76094Y82991D01*
G01X76135Y82944D01*
G01X76177Y82898D01*
G01X76220Y82852D01*
G01X76262Y82808D01*
G01X76305Y82764D01*
G01X76345Y82727D01*
G01X76379Y82701D01*
G01X76407Y82686D01*
G01X76430Y82680D01*
G01X76441Y82681D01*
G01X76455Y82682D01*
G01X76471Y82683D01*
G01X76488Y82685D01*
G01X76509Y82689D01*
G01X76529Y82693D01*
G01X76549Y82699D01*
G01X76570Y82705D01*
G01X76589Y82713D01*
G01X76608Y82720D01*
G01X76625Y82729D01*
G01X76641Y82738D01*
G01X76652Y82748D01*
G01X76659Y82756D01*
G01X76661Y82763D01*
G01X76659Y82769D01*
G01X76560Y82928D01*
G01X76544Y83064D01*
G01X76596Y83177D01*
G01X76699Y83269D01*
G01X76848Y83340D01*
G01X77034Y83394D01*
G01X77138Y83415D01*
G01X77241Y83431D01*
G01X77344Y83443D01*
G01X77448Y83450D01*
G01X77552Y83454D01*
G01X77652Y83456D01*
G01X77748Y83457D01*
G01X77840Y83455D01*
G01X77995Y83446D01*
G01X78099Y83429D01*
G01X78220Y83391D01*
G01X78340Y83335D01*
G01X78457Y83269D01*
G01X78569Y83203D01*
G01X78624Y83173D01*
G01X78678Y83144D01*
G01X78732Y83118D01*
G01X78785Y83094D01*
G01X78836Y83074D01*
G01X78888Y83060D01*
G01X78939Y83051D01*
G01X78990Y83048D01*
G01X79045Y83052D01*
G01X79099Y83064D01*
G01X79154Y83083D01*
G01X79209Y83109D01*
G01X79321Y83176D01*
G01X79435Y83254D01*
G01X79547Y83340D01*
G01X79656Y83424D01*
G01X79708Y83465D01*
G01X79759Y83502D01*
G01X79809Y83538D01*
G01X79859Y83569D01*
G01X79885Y83582D01*
G01X79913Y83591D01*
G01X79942Y83595D01*
G01X79973Y83594D01*
G01X80038Y83589D01*
G01X80100Y83584D01*
G01X80129Y83582D01*
G01X80157Y83578D01*
G01X80184Y83574D01*
G01X80209Y83569D01*
G01X80232Y83566D01*
G01X80250Y83566D01*
G01X80263Y83571D01*
G01X80270Y83579D01*
G01X80291Y83577D01*
G01X80305Y83579D01*
G01X80313Y83587D01*
G01X80314Y83599D01*
G01X80310Y83616D01*
G01X80305Y83634D01*
G01X80299Y83653D01*
G01X80291Y83673D01*
G01X80281Y83697D01*
G01X80272Y83721D01*
G01X80263Y83748D01*
G01X80255Y83775D01*
G01X80251Y83800D01*
G01X80252Y83822D01*
G01X80258Y83842D01*
G01X80270Y83859D01*
G01X80261Y83873D01*
G01X80242Y83884D01*
G01X80215Y83893D01*
G01X80179Y83899D01*
G01X80144Y83905D01*
G01X80120Y83912D01*
G01X80105Y83921D01*
G01X80100Y83930D01*
G01X80112Y83992D01*
G01X80112Y84049D01*
G01X80097Y84101D01*
G01X80070Y84148D01*
G01X79983Y84231D01*
G01X79864Y84298D01*
G01X79721Y84350D01*
G01X79559Y84384D01*
G01X79393Y84407D01*
G01X79234Y84425D01*
G01X79091Y84438D01*
G01X78970Y84445D01*
G01X78921Y84448D01*
G01X78883Y84449D01*
G01X78856Y84450D01*
G01X78840Y84450D01*
G01X78746Y84492D01*
G01X78584Y84580D01*
G01X78483Y84638D01*
G01X78378Y84702D01*
G01X78266Y84772D01*
G01X78150Y84849D01*
G01X78030Y84931D01*
G01X77909Y85016D01*
G01X77787Y85104D01*
G01X77664Y85195D01*
G01X77548Y85287D01*
G01X77440Y85377D01*
G01X77343Y85467D01*
G01X77255Y85555D01*
G01X77181Y85640D01*
G01X77121Y85720D01*
G01X77078Y85798D01*
G01X77050Y85870D01*
G01X77062Y85990D01*
G01X77179Y86068D01*
G01X77288Y86105D01*
G01X77400Y86134D01*
G01X77516Y86155D01*
G01X77635Y86168D01*
G01X77758Y86173D01*
G01X77885Y86170D01*
G01X78013Y86162D01*
G01X78141Y86149D01*
G01X78268Y86133D01*
G01X78395Y86114D01*
G01X78523Y86091D01*
G01X78650Y86063D01*
G01X78775Y86034D01*
G01X78898Y86003D01*
G01X79019Y85969D01*
G01X79138Y85934D01*
G01X79254Y85896D01*
G01X79369Y85855D01*
G01X79532Y85795D01*
G01X79682Y85740D01*
G01X79818Y85692D01*
G01X79940Y85649D01*
G01X80135Y85588D01*
G01X80260Y85565D01*
G01X80297Y85597D01*
G01X80230Y85700D01*
G01X80211Y85723D01*
G01X80186Y85755D01*
G01X80154Y85796D01*
G01X80115Y85845D01*
G01X80036Y85956D01*
G01X79971Y86079D01*
G01X79924Y86213D01*
G01X79905Y86355D01*
G01X79931Y86492D01*
G01X80019Y86609D01*
G01X80039Y86617D01*
G01X80068Y86620D01*
G01X80106Y86617D01*
G01X80154Y86609D01*
G01X80200Y86603D01*
G01X80234Y86602D01*
G01X80254Y86608D01*
G01X80260Y86620D01*
G01X80253Y86650D01*
G01X80240Y86680D01*
G01X80222Y86710D01*
G01X80199Y86739D01*
G01X80174Y86769D01*
G01X80148Y86798D01*
G01X80122Y86826D01*
G01X80095Y86853D01*
G01X80014Y86937D01*
G01X79988Y86965D01*
G01X79966Y86992D01*
G01X79947Y87018D01*
G01X79932Y87044D01*
G01X79920Y87069D01*
G01X79907Y87098D01*
G01X79897Y87134D01*
G01X79891Y87176D01*
G01X79889Y87224D01*
G01X79888Y87273D01*
G01X79884Y87315D01*
G01X79878Y87351D01*
G01X79869Y87379D01*
G01X79865Y87373D01*
G01X79851Y87365D01*
G01X79827Y87356D01*
G01X79795Y87343D01*
G01X79761Y87335D01*
G01X79733Y87335D01*
G01X79713Y87343D01*
G01X79699Y87359D01*
G01X79679Y87375D01*
G01X79660Y87394D01*
G01X79642Y87416D01*
G01X79625Y87440D01*
G01X79608Y87465D01*
G01X79591Y87492D01*
G01X79575Y87520D01*
G01X79559Y87549D01*
G01X79544Y87579D01*
G01X79528Y87607D01*
G01X79512Y87634D01*
G01X79496Y87658D01*
G01X79477Y87682D01*
G01X79459Y87702D01*
G01X79439Y87718D01*
G01X79420Y87730D01*
G01X79408Y87734D01*
G37*

%LPD*%
G36*
G01X79372Y82506D02*
G01X79343Y82512D01*
G01X79310Y82510D01*
G01X79177Y82475D01*
G01X79047Y82430D01*
G01X78921Y82374D01*
G01X78800Y82309D01*
G01X78680Y82239D01*
G01X78564Y82168D01*
G01X78451Y82097D01*
G01X78340Y82025D01*
G01X78230Y81955D01*
G01X78122Y81889D01*
G01X78016Y81827D01*
G01X77911Y81768D01*
G01X77806Y81720D01*
G01X77700Y81686D01*
G01X77595Y81666D01*
G01X77489Y81659D01*
G01X77391Y81663D01*
G01X77296Y81674D01*
G01X77205Y81693D01*
G01X77118Y81720D01*
G01X76958Y81780D01*
G01X76813Y81844D01*
G01X76685Y81906D01*
G01X76570Y81959D01*
G01X76516Y81980D01*
G01X76465Y81994D01*
G01X76416Y82001D01*
G01X76369Y81999D01*
G01X76318Y81990D01*
G01X76264Y81971D01*
G01X76206Y81943D01*
G01X76145Y81905D01*
G01X76024Y81816D01*
G01X75914Y81720D01*
G01X75818Y81620D01*
G01X75739Y81524D01*
G01X75709Y81482D01*
G01X75688Y81447D01*
G01X75675Y81419D01*
G01X75670Y81400D01*
G01X75676Y81389D01*
G01X75690Y81376D01*
G01X75715Y81361D01*
G01X75749Y81344D01*
G01X75790Y81325D01*
G01X75830Y81303D01*
G01X75870Y81278D01*
G01X75909Y81250D01*
G01X75948Y81217D01*
G01X75982Y81181D01*
G01X76012Y81140D01*
G01X76039Y81095D01*
G01X76057Y81046D01*
G01X76062Y80993D01*
G01X76052Y80938D01*
G01X76029Y80879D01*
G01X75976Y80775D01*
G01X75917Y80683D01*
G01X75851Y80602D01*
G01X75780Y80534D01*
G01X75634Y80419D01*
G01X75495Y80325D01*
G01X75370Y80247D01*
G01X75264Y80183D01*
G01X75223Y80156D01*
G01X75193Y80126D01*
G01X75176Y80093D01*
G01X75170Y80059D01*
G01X75203Y79934D01*
G01X75300Y79759D01*
G01X75367Y79658D01*
G01X75441Y79557D01*
G01X75520Y79454D01*
G01X75604Y79350D01*
G01X75692Y79247D01*
G01X75778Y79148D01*
G01X75865Y79054D01*
G01X75950Y78964D01*
G01X76095Y78821D01*
G01X76189Y78740D01*
G01X76212Y78700D01*
G01X76231Y78669D01*
G01X76245Y78649D01*
G01X76255Y78639D01*
G01X76262Y78637D01*
G01X76267Y78640D01*
G01X76272Y78650D01*
G01X76275Y78664D01*
G01X76278Y78684D01*
G01X76283Y78704D01*
G01X76288Y78728D01*
G01X76295Y78753D01*
G01X76304Y78779D01*
G01X76316Y78800D01*
G01X76331Y78817D01*
G01X76349Y78829D01*
G01X76359Y78847D01*
G01X76361Y78869D01*
G01X76354Y78897D01*
G01X76339Y78928D01*
G01X76319Y78964D01*
G01X76300Y78998D01*
G01X76280Y79031D01*
G01X76260Y79063D01*
G01X76241Y79095D01*
G01X76226Y79123D01*
G01X76213Y79148D01*
G01X76204Y79170D01*
G01X76202Y79187D01*
G01X76210Y79198D01*
G01X76230Y79202D01*
G01X76260Y79200D01*
G01X76333Y79145D01*
G01X76413Y79085D01*
G01X76500Y79021D01*
G01X76593Y78953D01*
G01X76692Y78881D01*
G01X76798Y78804D01*
G01X76910Y78727D01*
G01X77023Y78651D01*
G01X77139Y78576D01*
G01X77256Y78503D01*
G01X77377Y78431D01*
G01X77499Y78359D01*
G01X77623Y78291D01*
G01X77746Y78226D01*
G01X77870Y78164D01*
G01X77993Y78105D01*
G01X78115Y78051D01*
G01X78238Y77999D01*
G01X78359Y77954D01*
G01X78476Y77917D01*
G01X78586Y77889D01*
G01X78692Y77870D01*
G01X78793Y77861D01*
G01X78889Y77859D01*
G01X79003Y77869D01*
G01X79116Y77889D01*
G01X79227Y77919D01*
G01X79336Y77958D01*
G01X79439Y78008D01*
G01X79537Y78066D01*
G01X79629Y78131D01*
G01X79714Y78205D01*
G01X79793Y78285D01*
G01X79864Y78370D01*
G01X79928Y78460D01*
G01X79983Y78555D01*
G01X80031Y78654D01*
G01X80066Y78755D01*
G01X80089Y78860D01*
G01X80100Y78969D01*
G01X80102Y78999D01*
G01X80108Y79026D01*
G01X80119Y79051D01*
G01X80133Y79073D01*
G01X80149Y79096D01*
G01X80160Y79115D01*
G01X80167Y79134D01*
G01X80169Y79149D01*
G01X80159Y79215D01*
G01X80130Y79294D01*
G01X80081Y79386D01*
G01X80014Y79490D01*
G01X79934Y79599D01*
G01X79849Y79710D01*
G01X79759Y79822D01*
G01X79663Y79934D01*
G01X79567Y80045D01*
G01X79472Y80149D01*
G01X79378Y80247D01*
G01X79285Y80338D01*
G01X79130Y80484D01*
G01X79039Y80559D01*
G01X79034Y80558D01*
G01X79031Y80553D01*
G01X79029Y80545D01*
G01X79028Y80534D01*
G01X79028Y80522D01*
G01X79027Y80510D01*
G01X79023Y80488D01*
G01X79021Y80480D01*
G01X79016Y80472D01*
G01X79010Y80466D01*
G01X79000Y80460D01*
G01X78988Y80458D01*
G01X78972Y80460D01*
G01X78953Y80468D01*
G01X78929Y80480D01*
G01X78908Y80485D01*
G01X78884Y80492D01*
G01X78858Y80499D01*
G01X78830Y80508D01*
G01X78800Y80519D01*
G01X78772Y80531D01*
G01X78744Y80545D01*
G01X78718Y80559D01*
G01X78696Y80574D01*
G01X78675Y80590D01*
G01X78656Y80605D01*
G01X78640Y80620D01*
G01X78629Y80634D01*
G01X78625Y80649D01*
G01X78629Y80664D01*
G01X78640Y80678D01*
G01X78716Y80763D01*
G01X78797Y80835D01*
G01X78882Y80896D01*
G01X78970Y80945D01*
G01X79061Y80985D01*
G01X79155Y81018D01*
G01X79250Y81047D01*
G01X79348Y81070D01*
G01X79449Y81088D01*
G01X79550Y81102D01*
G01X79652Y81111D01*
G01X79755Y81115D01*
G01X79856Y81118D01*
G01X79956Y81119D01*
G01X80054Y81120D01*
G01X80149Y81120D01*
G01X80165Y81123D01*
G01X80175Y81129D01*
G01X80178Y81139D01*
G01X80174Y81153D01*
G01X80165Y81173D01*
G01X80156Y81194D01*
G01X80144Y81218D01*
G01X80131Y81245D01*
G01X80099Y81299D01*
G01X80065Y81354D01*
G01X80049Y81381D01*
G01X80038Y81406D01*
G01X80031Y81428D01*
G01X80029Y81448D01*
G01X80033Y81462D01*
G01X80043Y81471D01*
G01X80061Y81477D01*
G01X80085Y81479D01*
G01X80108Y81480D01*
G01X80125Y81484D01*
G01X80135Y81490D01*
G01X80138Y81499D01*
G01X80130Y81533D01*
G01X80113Y81564D01*
G01X80089Y81593D01*
G01X80055Y81618D01*
G01X80019Y81645D01*
G01X79988Y81674D01*
G01X79962Y81706D01*
G01X79940Y81740D01*
G01X79922Y81792D01*
G01X79907Y81847D01*
G01X79897Y81906D01*
G01X79889Y81969D01*
G01X79880Y82031D01*
G01X79862Y82087D01*
G01X79836Y82136D01*
G01X79801Y82180D01*
G01X79794Y82188D01*
G01X79787Y82192D01*
G01X79777Y82193D01*
G01X79765Y82190D01*
G01X79753Y82184D01*
G01X79741Y82177D01*
G01X79730Y82169D01*
G01X79719Y82159D01*
G01X79698Y82139D01*
G01X79674Y82119D01*
G01X79663Y82111D01*
G01X79654Y82106D01*
G01X79647Y82105D01*
G01X79641Y82109D01*
G01X79617Y82131D01*
G01X79595Y82157D01*
G01X79575Y82187D01*
G01X79559Y82220D01*
G01X79544Y82255D01*
G01X79496Y82360D01*
G01X79477Y82393D01*
G01X79459Y82423D01*
G01X79439Y82450D01*
G01X79420Y82474D01*
G01X79398Y82494D01*
G01X79372Y82506D01*
G37*

%LPC*%
G36*
G01X77640Y80528D02*
G01X77560Y80529D01*
G01X77445Y80489D01*
G01X77344Y80409D01*
G01X77263Y80300D01*
G01X77205Y80170D01*
G01X77172Y80028D01*
G01X77164Y79883D01*
G01X77186Y79750D01*
G01X77240Y79640D01*
G01X77356Y79537D01*
G01X77545Y79444D01*
G01X77659Y79404D01*
G01X77777Y79367D01*
G01X77899Y79334D01*
G01X78025Y79304D01*
G01X78151Y79279D01*
G01X78276Y79258D01*
G01X78399Y79241D01*
G01X78520Y79228D01*
G01X78727Y79222D01*
G01X78868Y79238D01*
G01X78927Y79237D01*
G01X78971Y79243D01*
G01X79001Y79258D01*
G01X79016Y79279D01*
G01X79020Y79306D01*
G01X79022Y79336D01*
G01X79020Y79368D01*
G01X79016Y79403D01*
G01X79008Y79442D01*
G01X79000Y79478D01*
G01X78993Y79514D01*
G01X78985Y79548D01*
G01X78982Y79581D01*
G01X78988Y79609D01*
G01X79004Y79632D01*
G01X79028Y79650D01*
G01X78939Y79771D01*
G01X78790Y79914D01*
G01X78697Y79991D01*
G01X78599Y80065D01*
G01X78495Y80138D01*
G01X78386Y80209D01*
G01X78273Y80276D01*
G01X78160Y80338D01*
G01X78047Y80394D01*
G01X77934Y80445D01*
G01X77826Y80485D01*
G01X77728Y80513D01*
G01X77640Y80528D01*
G37*

%LPD*%
G36*
G01X73338Y79128D02*
G01X73189Y79149D01*
G01X73146Y79144D01*
G01X73116Y79128D01*
G01X73099Y79100D01*
G01X73095Y79061D01*
G01X73100Y79013D01*
G01X73110Y78960D01*
G01X73125Y78902D01*
G01X73146Y78840D01*
G01X73192Y78707D01*
G01X73245Y78570D01*
G01X73269Y78503D01*
G01X73287Y78442D01*
G01X73297Y78387D01*
G01X73301Y78339D01*
G01X73289Y78097D01*
G01X73284Y77976D01*
G01X73281Y77856D01*
G01X73278Y77735D01*
G01X73276Y77493D01*
G01X73276Y77373D01*
G01X73277Y77252D01*
G01X73279Y77132D01*
G01X73282Y77011D01*
G01X73286Y76891D01*
G01X73291Y76771D01*
G01X73297Y76651D01*
G01X73303Y76530D01*
G01X73319Y76290D01*
G01X73329Y76170D01*
G01X73359Y76118D01*
G01X73377Y76063D01*
G01X73384Y76005D01*
G01X73379Y75944D01*
G01X73354Y75818D01*
G01X73282Y75562D01*
G01X73250Y75438D01*
G01X73240Y75381D01*
G01X73242Y75327D01*
G01X73255Y75277D01*
G01X73280Y75230D01*
G01X73344Y75071D01*
G01X73440Y74933D01*
G01X73555Y74808D01*
G01X73679Y74679D01*
G01X73757Y74603D01*
G01X73832Y74523D01*
G01X73902Y74440D01*
G01X73969Y74354D01*
G01X74039Y74273D01*
G01X74118Y74203D01*
G01X74204Y74146D01*
G01X74299Y74100D01*
G01X74316Y74094D01*
G01X74328Y74096D01*
G01X74334Y74107D01*
G01X74334Y74125D01*
G01X74331Y74149D01*
G01X74328Y74176D01*
G01X74324Y74206D01*
G01X74319Y74240D01*
G01X74311Y74308D01*
G01X74307Y74341D01*
G01X74304Y74374D01*
G01X74304Y74405D01*
G01X74310Y74429D01*
G01X74322Y74446D01*
G01X74340Y74458D01*
G01X74360Y74461D01*
G01X74382Y74459D01*
G01X74405Y74452D01*
G01X74428Y74440D01*
G01X74454Y74425D01*
G01X74479Y74409D01*
G01X74505Y74392D01*
G01X74530Y74374D01*
G01X74553Y74357D01*
G01X74575Y74343D01*
G01X74595Y74330D01*
G01X74614Y74318D01*
G01X74630Y74312D01*
G01X74643Y74313D01*
G01X74653Y74322D01*
G01X74660Y74339D01*
G01X74667Y74385D01*
G01X74670Y74432D01*
G01X74667Y74480D01*
G01X74660Y74529D01*
G01X74649Y74579D01*
G01X74637Y74630D01*
G01X74624Y74682D01*
G01X74609Y74735D01*
G01X74579Y74839D01*
G01X74565Y74891D01*
G01X74550Y74943D01*
G01X74538Y74997D01*
G01X74530Y75051D01*
G01X74527Y75105D01*
G01X74530Y75159D01*
G01X74536Y75177D01*
G01X74555Y75190D01*
G01X74586Y75197D01*
G01X74629Y75200D01*
G01X74675Y75198D01*
G01X74712Y75192D01*
G01X74740Y75183D01*
G01X74759Y75169D01*
G01X74788Y75143D01*
G01X74813Y75114D01*
G01X74836Y75083D01*
G01X74855Y75050D01*
G01X74873Y75015D01*
G01X74890Y74981D01*
G01X74924Y74915D01*
G01X74942Y74883D01*
G01X74962Y74852D01*
G01X74983Y74822D01*
G01X75005Y74793D01*
G01X75029Y74768D01*
G01X75054Y74746D01*
G01X75081Y74726D01*
G01X75109Y74709D01*
G01X75201Y74672D01*
G01X75295Y74642D01*
G01X75391Y74618D01*
G01X75490Y74600D01*
G01X75590Y74586D01*
G01X75690Y74574D01*
G01X75791Y74563D01*
G01X76100Y74539D01*
G01X76203Y74532D01*
G01X76305Y74524D01*
G01X76406Y74515D01*
G01X76506Y74503D01*
G01X76603Y74487D01*
G01X76699Y74468D01*
G01X76723Y74462D01*
G01X76744Y74451D01*
G01X76761Y74438D01*
G01X76775Y74420D01*
G01X76787Y74400D01*
G01X76811Y74356D01*
G01X76824Y74334D01*
G01X76837Y74313D01*
G01X76851Y74292D01*
G01X76865Y74273D01*
G01X76880Y74255D01*
G01X76895Y74239D01*
G01X76913Y74226D01*
G01X76931Y74216D01*
G01X76951Y74209D01*
G01X76959Y74212D01*
G01X76965Y74218D01*
G01X76970Y74229D01*
G01X76974Y74245D01*
G01X76977Y74263D01*
G01X76980Y74282D01*
G01X76984Y74303D01*
G01X76989Y74323D01*
G01X76994Y74346D01*
G01X77000Y74367D01*
G01X77014Y74405D01*
G01X77023Y74420D01*
G01X77036Y74432D01*
G01X77051Y74438D01*
G01X77070Y74440D01*
G01X77200Y74439D01*
G01X77331Y74434D01*
G01X77463Y74425D01*
G01X77596Y74413D01*
G01X77730Y74398D01*
G01X77865Y74379D01*
G01X78000Y74359D01*
G01X78135Y74341D01*
G01X78269Y74323D01*
G01X78405Y74306D01*
G01X78540Y74290D01*
G01X78675Y74275D01*
G01X78810Y74261D01*
G01X78945Y74250D01*
G01X79080Y74241D01*
G01X79215Y74235D01*
G01X79350Y74231D01*
G01X79486Y74229D01*
G01X79620Y74232D01*
G01X79754Y74242D01*
G01X79889Y74257D01*
G01X80023Y74278D01*
G01X80157Y74306D01*
G01X80291Y74339D01*
G01X80342Y74340D01*
G01X80374Y74351D01*
G01X80388Y74375D01*
G01X80385Y74410D01*
G01X80369Y74452D01*
G01X80347Y74501D01*
G01X80320Y74555D01*
G01X80286Y74616D01*
G01X80207Y74744D01*
G01X80126Y74880D01*
G01X80061Y75012D01*
G01X80039Y75129D01*
G01X80050Y75154D01*
G01X80064Y75169D01*
G01X80078Y75174D01*
G01X80095Y75169D01*
G01X80113Y75159D01*
G01X80147Y75131D01*
G01X80164Y75113D01*
G01X80182Y75098D01*
G01X80199Y75084D01*
G01X80217Y75071D01*
G01X80235Y75060D01*
G01X80251Y75055D01*
G01X80262Y75062D01*
G01X80268Y75080D01*
G01X80270Y75108D01*
G01X80287Y75132D01*
G01X80288Y75173D01*
G01X80274Y75230D01*
G01X80245Y75304D01*
G01X80203Y75389D01*
G01X80153Y75479D01*
G01X80095Y75575D01*
G01X80029Y75675D01*
G01X79956Y75776D01*
G01X79878Y75875D01*
G01X79794Y75971D01*
G01X79704Y76063D01*
G01X79612Y76149D01*
G01X79520Y76220D01*
G01X79429Y76277D01*
G01X79338Y76320D01*
G01X79238Y76166D01*
G01X79094Y76063D01*
G01X79009Y76031D01*
G01X78915Y76008D01*
G01X78816Y75995D01*
G01X78708Y75990D01*
G01X78597Y75993D01*
G01X78482Y76001D01*
G01X78362Y76016D01*
G01X78238Y76035D01*
G01X77990Y76081D01*
G01X77865Y76104D01*
G01X77617Y76154D01*
G01X77497Y76175D01*
G01X77382Y76193D01*
G01X77271Y76208D01*
G01X77164Y76219D01*
G01X77065Y76222D01*
G01X76974Y76216D01*
G01X76890Y76200D01*
G01X76809Y76312D01*
G01X76829Y76470D01*
G01X76868Y76562D01*
G01X76913Y76659D01*
G01X76965Y76759D01*
G01X77024Y76863D01*
G01X77086Y76972D01*
G01X77146Y77079D01*
G01X77204Y77188D01*
G01X77261Y77295D01*
G01X77305Y77399D01*
G01X77327Y77495D01*
G01X77329Y77585D01*
G01X77309Y77669D01*
G01X77285Y77720D01*
G01X77253Y77764D01*
G01X77213Y77798D01*
G01X77164Y77824D01*
G01X77111Y77845D01*
G01X77055Y77863D01*
G01X76996Y77878D01*
G01X76935Y77890D01*
G01X76808Y77911D01*
G01X76679Y77935D01*
G01X76617Y77951D01*
G01X76559Y77973D01*
G01X76508Y78003D01*
G01X76460Y78039D01*
G01X76427Y78069D01*
G01X76389Y78107D01*
G01X76345Y78154D01*
G01X76295Y78210D01*
G01X76189Y78325D01*
G01X76085Y78433D01*
G01X76033Y78483D01*
G01X75983Y78524D01*
G01X75936Y78558D01*
G01X75889Y78583D01*
G01X75849Y78597D01*
G01X75817Y78593D01*
G01X75794Y78570D01*
G01X75780Y78530D01*
G01X75755Y78392D01*
G01X75741Y78250D01*
G01X75737Y78102D01*
G01X75744Y77948D01*
G01X75759Y77794D01*
G01X75777Y77642D01*
G01X75800Y77492D01*
G01X75825Y77343D01*
G01X75852Y77198D01*
G01X75877Y77055D01*
G01X75901Y76916D01*
G01X75924Y76780D01*
G01X75943Y76650D01*
G01X75954Y76530D01*
G01X75956Y76420D01*
G01X75950Y76320D01*
G01X75898Y76250D01*
G01X75832Y76189D01*
G01X75753Y76137D01*
G01X75660Y76094D01*
G01X75559Y76062D01*
G01X75455Y76040D01*
G01X75348Y76028D01*
G01X75239Y76025D01*
G01X75130Y76032D01*
G01X75023Y76048D01*
G01X74918Y76071D01*
G01X74815Y76104D01*
G01X74717Y76146D01*
G01X74630Y76196D01*
G01X74554Y76254D01*
G01X74489Y76320D01*
G01X74427Y76401D01*
G01X74380Y76485D01*
G01X74347Y76571D01*
G01X74329Y76660D01*
G01X74322Y76835D01*
G01X74340Y77003D01*
G01X74375Y77162D01*
G01X74418Y77305D01*
G01X74441Y77370D01*
G01X74456Y77429D01*
G01X74466Y77482D01*
G01X74469Y77529D01*
G01X74467Y77569D01*
G01X74460Y77605D01*
G01X74449Y77638D01*
G01X74434Y77669D01*
G01X74421Y77699D01*
G01X74416Y77727D01*
G01X74418Y77754D01*
G01X74428Y77780D01*
G01X74448Y77904D01*
G01X74505Y78034D01*
G01X74548Y78163D01*
G01X74530Y78278D01*
G01X74512Y78302D01*
G01X74487Y78321D01*
G01X74456Y78338D01*
G01X74418Y78349D01*
G01X74378Y78359D01*
G01X74337Y78366D01*
G01X74294Y78372D01*
G01X74251Y78375D01*
G01X74206Y78378D01*
G01X74162Y78382D01*
G01X74121Y78388D01*
G01X74080Y78395D01*
G01X74042Y78405D01*
G01X74009Y78419D01*
G01X73981Y78437D01*
G01X73959Y78459D01*
G01X73929Y78493D01*
G01X73897Y78534D01*
G01X73864Y78583D01*
G01X73829Y78639D01*
G01X73755Y78757D01*
G01X73669Y78870D01*
G01X73574Y78973D01*
G01X73466Y79063D01*
G01X73338Y79128D01*
G37*

%LPD*%
G54D38*
G01X80001Y61249D03*
G01X80001Y65750D03*
G01X73498Y61249D03*
G01X73498Y65750D03*
G01X69001Y56249D03*
G01X69001Y60750D03*
G01X62498Y56249D03*
G01X62498Y60750D03*
G01X80001Y25249D03*
G01X80001Y29750D03*
G01X73498Y25249D03*
G01X73498Y29750D03*
G01X69001Y29249D03*
G01X69001Y33750D03*
G01X62498Y29249D03*
G01X62498Y33750D03*
G01X69001Y20249D03*
G01X69001Y24750D03*
G01X62498Y20249D03*
G01X62498Y24750D03*
G01X80001Y16249D03*
G01X80001Y20750D03*
G01X73498Y16249D03*
G01X73498Y20750D03*
G01X69001Y47249D03*
G01X69001Y51750D03*
G01X62498Y47249D03*
G01X62498Y51750D03*
G01X80001Y52249D03*
G01X80001Y56750D03*
G01X73498Y52249D03*
G01X73498Y56750D03*
G01X69001Y11249D03*
G01X69001Y15750D03*
G01X62498Y11249D03*
G01X62498Y15750D03*
G01X80001Y7249D03*
G01X80001Y11750D03*
G01X73498Y7249D03*
G01X73498Y11750D03*
G01X80001Y34249D03*
G01X80001Y38750D03*
G01X73498Y34249D03*
G01X73498Y38750D03*
G01X80001Y43249D03*
G01X80001Y47750D03*
G01X73498Y43249D03*
G01X73498Y47750D03*
G36*
G01X67449Y173448D02*
G01X67449Y175552D01*
G01X68851Y175552D01*
G01X68851Y173448D01*
G01X67449Y173448D01*
G37*
G36*
G01X70649Y173448D02*
G01X70649Y175552D01*
G01X72051Y175552D01*
G01X72051Y173448D01*
G01X70649Y173448D01*
G37*
G36*
G01X79110Y173771D02*
G01X79110Y175549D01*
G01X80888Y175549D01*
G01X80888Y173771D01*
G01X79110Y173771D01*
G37*
G54D41*
G01X79999Y172120D03*
G01X79999Y169580D03*
G01X79999Y167040D03*
G01X79999Y164500D03*
G01X79999Y161960D03*
G01X79999Y159420D03*
G01X79999Y156880D03*
G54D42*
G01X56210Y161500D03*
G01X61290Y161500D03*
G01X56210Y150500D03*
G01X61290Y150500D03*
G54D37*
G01X56245Y172499D03*
G01X61254Y172499D03*
G36*
G01X33649Y178447D02*
G01X33649Y180550D01*
G01X35051Y180550D01*
G01X35051Y178447D01*
G01X33649Y178447D01*
G37*
G36*
G01X30448Y178447D02*
G01X30448Y180550D01*
G01X31850Y180550D01*
G01X31850Y178447D01*
G01X30448Y178447D01*
G37*
G36*
G01X44398Y153857D02*
G01X44398Y156062D01*
G01X47101Y156062D01*
G01X47101Y153857D01*
G01X44398Y153857D01*
G37*
G36*
G01X44398Y63858D02*
G01X44398Y66062D01*
G01X47101Y66062D01*
G01X47101Y63858D01*
G01X44398Y63858D01*
G37*
G54D43*
G01X45750Y79959D03*
G01X45750Y49959D03*
G36*
G01X44398Y33858D02*
G01X44398Y36062D01*
G01X47101Y36062D01*
G01X47101Y33858D01*
G01X44398Y33858D01*
G37*
G36*
G01X44398Y123857D02*
G01X44398Y126062D01*
G01X47101Y126062D01*
G01X47101Y123857D01*
G01X44398Y123857D01*
G37*
G36*
G01X44398Y138856D02*
G01X44398Y141061D01*
G01X47101Y141061D01*
G01X47101Y138856D01*
G01X44398Y138856D01*
G37*
G01X45750Y19960D03*
G36*
G01X44398Y3858D02*
G01X44398Y6062D01*
G01X47101Y6062D01*
G01X47101Y3858D01*
G01X44398Y3858D01*
G37*
G36*
G01X44398Y93858D02*
G01X44398Y96062D01*
G01X47101Y96062D01*
G01X47101Y93858D01*
G01X44398Y93858D01*
G37*
G01X45750Y109960D03*
G36*
G01X60608Y136149D02*
G01X60608Y138851D01*
G01X62813Y138851D01*
G01X62813Y136149D01*
G01X60608Y136149D01*
G37*
G36*
G01X14398Y158937D02*
G01X14398Y161142D01*
G01X17101Y161142D01*
G01X17101Y158937D01*
G01X14398Y158937D01*
G37*
G36*
G01X14398Y68938D02*
G01X14398Y71142D01*
G01X17101Y71142D01*
G01X17101Y68938D01*
G01X14398Y68938D01*
G37*
G36*
G01X14398Y83936D02*
G01X14398Y86141D01*
G01X17101Y86141D01*
G01X17101Y83936D01*
G01X14398Y83936D01*
G37*
G36*
G01X14398Y53936D02*
G01X14398Y56141D01*
G01X17101Y56141D01*
G01X17101Y53936D01*
G01X14398Y53936D01*
G37*
G36*
G01X14398Y38938D02*
G01X14398Y41142D01*
G01X17101Y41142D01*
G01X17101Y38938D01*
G01X14398Y38938D01*
G37*
G36*
G01X14398Y128937D02*
G01X14398Y131142D01*
G01X17101Y131142D01*
G01X17101Y128937D01*
G01X14398Y128937D01*
G37*
G36*
G01X14398Y143936D02*
G01X14398Y146141D01*
G01X17101Y146141D01*
G01X17101Y143936D01*
G01X14398Y143936D01*
G37*
G36*
G01X14398Y23936D02*
G01X14398Y26141D01*
G01X17101Y26141D01*
G01X17101Y23936D01*
G01X14398Y23936D01*
G37*
G36*
G01X14398Y8938D02*
G01X14398Y11142D01*
G01X17101Y11142D01*
G01X17101Y8938D01*
G01X14398Y8938D01*
G37*
G36*
G01X14398Y98938D02*
G01X14398Y101142D01*
G01X17101Y101142D01*
G01X17101Y98938D01*
G01X14398Y98938D01*
G37*
G36*
G01X14398Y113936D02*
G01X14398Y116141D01*
G01X17101Y116141D01*
G01X17101Y113936D01*
G01X14398Y113936D01*
G37*
G36*
G01X27748Y160601D02*
G01X27748Y162016D01*
G01X30131Y162016D01*
G01X30131Y160601D01*
G01X27748Y160601D01*
G37*
G36*
G01X27748Y158061D02*
G01X27748Y159476D01*
G01X30131Y159476D01*
G01X30131Y158061D01*
G01X27748Y158061D01*
G37*
G36*
G01X35368Y158061D02*
G01X35368Y159476D01*
G01X37751Y159476D01*
G01X37751Y158061D01*
G01X35368Y158061D01*
G37*
G36*
G01X35368Y160601D02*
G01X35368Y162016D01*
G01X37751Y162016D01*
G01X37751Y160601D01*
G01X35368Y160601D01*
G37*
G36*
G01X27748Y155521D02*
G01X27748Y156936D01*
G01X30131Y156936D01*
G01X30131Y155521D01*
G01X27748Y155521D01*
G37*
G36*
G01X27748Y152981D02*
G01X27748Y154396D01*
G01X30131Y154396D01*
G01X30131Y152981D01*
G01X27748Y152981D01*
G37*
G36*
G01X35368Y155521D02*
G01X35368Y156936D01*
G01X37751Y156936D01*
G01X37751Y155521D01*
G01X35368Y155521D01*
G37*
G36*
G01X35368Y152981D02*
G01X35368Y154396D01*
G01X37751Y154396D01*
G01X37751Y152981D01*
G01X35368Y152981D01*
G37*
G36*
G01X27748Y70601D02*
G01X27748Y72016D01*
G01X30131Y72016D01*
G01X30131Y70601D01*
G01X27748Y70601D01*
G37*
G36*
G01X27748Y68061D02*
G01X27748Y69476D01*
G01X30131Y69476D01*
G01X30131Y68061D01*
G01X27748Y68061D01*
G37*
G36*
G01X35368Y68061D02*
G01X35368Y69476D01*
G01X37751Y69476D01*
G01X37751Y68061D01*
G01X35368Y68061D01*
G37*
G36*
G01X35368Y70601D02*
G01X35368Y72016D01*
G01X37751Y72016D01*
G01X37751Y70601D01*
G01X35368Y70601D01*
G37*
G36*
G01X27748Y65521D02*
G01X27748Y66936D01*
G01X30131Y66936D01*
G01X30131Y65521D01*
G01X27748Y65521D01*
G37*
G36*
G01X27748Y62981D02*
G01X27748Y64396D01*
G01X30131Y64396D01*
G01X30131Y62981D01*
G01X27748Y62981D01*
G37*
G36*
G01X35368Y65521D02*
G01X35368Y66936D01*
G01X37751Y66936D01*
G01X37751Y65521D01*
G01X35368Y65521D01*
G37*
G36*
G01X35368Y62981D02*
G01X35368Y64396D01*
G01X37751Y64396D01*
G01X37751Y62981D01*
G01X35368Y62981D01*
G37*
G36*
G01X27748Y85603D02*
G01X27748Y87017D01*
G01X30131Y87017D01*
G01X30131Y85603D01*
G01X27748Y85603D01*
G37*
G36*
G01X27748Y83063D02*
G01X27748Y84477D01*
G01X30131Y84477D01*
G01X30131Y83063D01*
G01X27748Y83063D01*
G37*
G36*
G01X35368Y83063D02*
G01X35368Y84477D01*
G01X37751Y84477D01*
G01X37751Y83063D01*
G01X35368Y83063D01*
G37*
G36*
G01X35368Y85603D02*
G01X35368Y87017D01*
G01X37751Y87017D01*
G01X37751Y85603D01*
G01X35368Y85603D01*
G37*
G36*
G01X27748Y80523D02*
G01X27748Y81937D01*
G01X30131Y81937D01*
G01X30131Y80523D01*
G01X27748Y80523D01*
G37*
G36*
G01X27748Y77983D02*
G01X27748Y79397D01*
G01X30131Y79397D01*
G01X30131Y77983D01*
G01X27748Y77983D01*
G37*
G36*
G01X35368Y80523D02*
G01X35368Y81937D01*
G01X37751Y81937D01*
G01X37751Y80523D01*
G01X35368Y80523D01*
G37*
G36*
G01X35368Y77983D02*
G01X35368Y79397D01*
G01X37751Y79397D01*
G01X37751Y77983D01*
G01X35368Y77983D01*
G37*
G36*
G01X27748Y55603D02*
G01X27748Y57017D01*
G01X30131Y57017D01*
G01X30131Y55603D01*
G01X27748Y55603D01*
G37*
G36*
G01X27748Y53063D02*
G01X27748Y54477D01*
G01X30131Y54477D01*
G01X30131Y53063D01*
G01X27748Y53063D01*
G37*
G36*
G01X35368Y53063D02*
G01X35368Y54477D01*
G01X37751Y54477D01*
G01X37751Y53063D01*
G01X35368Y53063D01*
G37*
G36*
G01X35368Y55603D02*
G01X35368Y57017D01*
G01X37751Y57017D01*
G01X37751Y55603D01*
G01X35368Y55603D01*
G37*
G36*
G01X27748Y50523D02*
G01X27748Y51937D01*
G01X30131Y51937D01*
G01X30131Y50523D01*
G01X27748Y50523D01*
G37*
G36*
G01X27748Y47983D02*
G01X27748Y49397D01*
G01X30131Y49397D01*
G01X30131Y47983D01*
G01X27748Y47983D01*
G37*
G36*
G01X35368Y50523D02*
G01X35368Y51937D01*
G01X37751Y51937D01*
G01X37751Y50523D01*
G01X35368Y50523D01*
G37*
G36*
G01X35368Y47983D02*
G01X35368Y49397D01*
G01X37751Y49397D01*
G01X37751Y47983D01*
G01X35368Y47983D01*
G37*
G36*
G01X27748Y40601D02*
G01X27748Y42016D01*
G01X30131Y42016D01*
G01X30131Y40601D01*
G01X27748Y40601D01*
G37*
G36*
G01X27748Y38061D02*
G01X27748Y39476D01*
G01X30131Y39476D01*
G01X30131Y38061D01*
G01X27748Y38061D01*
G37*
G36*
G01X35368Y38061D02*
G01X35368Y39476D01*
G01X37751Y39476D01*
G01X37751Y38061D01*
G01X35368Y38061D01*
G37*
G36*
G01X35368Y40601D02*
G01X35368Y42016D01*
G01X37751Y42016D01*
G01X37751Y40601D01*
G01X35368Y40601D01*
G37*
G36*
G01X27748Y35521D02*
G01X27748Y36936D01*
G01X30131Y36936D01*
G01X30131Y35521D01*
G01X27748Y35521D01*
G37*
G36*
G01X27748Y32981D02*
G01X27748Y34396D01*
G01X30131Y34396D01*
G01X30131Y32981D01*
G01X27748Y32981D01*
G37*
G36*
G01X35368Y35521D02*
G01X35368Y36936D01*
G01X37751Y36936D01*
G01X37751Y35521D01*
G01X35368Y35521D01*
G37*
G36*
G01X35368Y32981D02*
G01X35368Y34396D01*
G01X37751Y34396D01*
G01X37751Y32981D01*
G01X35368Y32981D01*
G37*
G36*
G01X27748Y130601D02*
G01X27748Y132016D01*
G01X30131Y132016D01*
G01X30131Y130601D01*
G01X27748Y130601D01*
G37*
G36*
G01X27748Y128061D02*
G01X27748Y129476D01*
G01X30131Y129476D01*
G01X30131Y128061D01*
G01X27748Y128061D01*
G37*
G36*
G01X35368Y128061D02*
G01X35368Y129476D01*
G01X37751Y129476D01*
G01X37751Y128061D01*
G01X35368Y128061D01*
G37*
G36*
G01X35368Y130601D02*
G01X35368Y132016D01*
G01X37751Y132016D01*
G01X37751Y130601D01*
G01X35368Y130601D01*
G37*
G36*
G01X27748Y125521D02*
G01X27748Y126936D01*
G01X30131Y126936D01*
G01X30131Y125521D01*
G01X27748Y125521D01*
G37*
G36*
G01X27748Y122981D02*
G01X27748Y124396D01*
G01X30131Y124396D01*
G01X30131Y122981D01*
G01X27748Y122981D01*
G37*
G36*
G01X35368Y125521D02*
G01X35368Y126936D01*
G01X37751Y126936D01*
G01X37751Y125521D01*
G01X35368Y125521D01*
G37*
G36*
G01X35368Y122981D02*
G01X35368Y124396D01*
G01X37751Y124396D01*
G01X37751Y122981D01*
G01X35368Y122981D01*
G37*
G36*
G01X27748Y145602D02*
G01X27748Y147017D01*
G01X30131Y147017D01*
G01X30131Y145602D01*
G01X27748Y145602D01*
G37*
G36*
G01X27748Y143062D02*
G01X27748Y144477D01*
G01X30131Y144477D01*
G01X30131Y143062D01*
G01X27748Y143062D01*
G37*
G36*
G01X35368Y143062D02*
G01X35368Y144477D01*
G01X37751Y144477D01*
G01X37751Y143062D01*
G01X35368Y143062D01*
G37*
G36*
G01X35368Y145602D02*
G01X35368Y147017D01*
G01X37751Y147017D01*
G01X37751Y145602D01*
G01X35368Y145602D01*
G37*
G36*
G01X27748Y140522D02*
G01X27748Y141937D01*
G01X30131Y141937D01*
G01X30131Y140522D01*
G01X27748Y140522D01*
G37*
G36*
G01X27748Y137982D02*
G01X27748Y139397D01*
G01X30131Y139397D01*
G01X30131Y137982D01*
G01X27748Y137982D01*
G37*
G36*
G01X35368Y140522D02*
G01X35368Y141937D01*
G01X37751Y141937D01*
G01X37751Y140522D01*
G01X35368Y140522D01*
G37*
G36*
G01X35368Y137982D02*
G01X35368Y139397D01*
G01X37751Y139397D01*
G01X37751Y137982D01*
G01X35368Y137982D01*
G37*
G36*
G01X27748Y25603D02*
G01X27748Y27017D01*
G01X30131Y27017D01*
G01X30131Y25603D01*
G01X27748Y25603D01*
G37*
G36*
G01X27748Y23063D02*
G01X27748Y24477D01*
G01X30131Y24477D01*
G01X30131Y23063D01*
G01X27748Y23063D01*
G37*
G36*
G01X35368Y23063D02*
G01X35368Y24477D01*
G01X37751Y24477D01*
G01X37751Y23063D01*
G01X35368Y23063D01*
G37*
G36*
G01X35368Y25603D02*
G01X35368Y27017D01*
G01X37751Y27017D01*
G01X37751Y25603D01*
G01X35368Y25603D01*
G37*
G36*
G01X27748Y20523D02*
G01X27748Y21937D01*
G01X30131Y21937D01*
G01X30131Y20523D01*
G01X27748Y20523D01*
G37*
G36*
G01X27748Y17983D02*
G01X27748Y19397D01*
G01X30131Y19397D01*
G01X30131Y17983D01*
G01X27748Y17983D01*
G37*
G36*
G01X35368Y20523D02*
G01X35368Y21937D01*
G01X37751Y21937D01*
G01X37751Y20523D01*
G01X35368Y20523D01*
G37*
G36*
G01X35368Y17983D02*
G01X35368Y19397D01*
G01X37751Y19397D01*
G01X37751Y17983D01*
G01X35368Y17983D01*
G37*
G36*
G01X27748Y10601D02*
G01X27748Y12016D01*
G01X30131Y12016D01*
G01X30131Y10601D01*
G01X27748Y10601D01*
G37*
G36*
G01X27748Y8061D02*
G01X27748Y9476D01*
G01X30131Y9476D01*
G01X30131Y8061D01*
G01X27748Y8061D01*
G37*
G36*
G01X35368Y8061D02*
G01X35368Y9476D01*
G01X37751Y9476D01*
G01X37751Y8061D01*
G01X35368Y8061D01*
G37*
G36*
G01X35368Y10601D02*
G01X35368Y12016D01*
G01X37751Y12016D01*
G01X37751Y10601D01*
G01X35368Y10601D01*
G37*
G36*
G01X27748Y5521D02*
G01X27748Y6936D01*
G01X30131Y6936D01*
G01X30131Y5521D01*
G01X27748Y5521D01*
G37*
G36*
G01X27748Y2981D02*
G01X27748Y4396D01*
G01X30131Y4396D01*
G01X30131Y2981D01*
G01X27748Y2981D01*
G37*
G36*
G01X35368Y5521D02*
G01X35368Y6936D01*
G01X37751Y6936D01*
G01X37751Y5521D01*
G01X35368Y5521D01*
G37*
G36*
G01X35368Y2981D02*
G01X35368Y4396D01*
G01X37751Y4396D01*
G01X37751Y2981D01*
G01X35368Y2981D01*
G37*
G36*
G01X27748Y100601D02*
G01X27748Y102016D01*
G01X30131Y102016D01*
G01X30131Y100601D01*
G01X27748Y100601D01*
G37*
G36*
G01X27748Y98061D02*
G01X27748Y99476D01*
G01X30131Y99476D01*
G01X30131Y98061D01*
G01X27748Y98061D01*
G37*
G36*
G01X35368Y98061D02*
G01X35368Y99476D01*
G01X37751Y99476D01*
G01X37751Y98061D01*
G01X35368Y98061D01*
G37*
G36*
G01X35368Y100601D02*
G01X35368Y102016D01*
G01X37751Y102016D01*
G01X37751Y100601D01*
G01X35368Y100601D01*
G37*
G36*
G01X27748Y95521D02*
G01X27748Y96936D01*
G01X30131Y96936D01*
G01X30131Y95521D01*
G01X27748Y95521D01*
G37*
G36*
G01X27748Y92981D02*
G01X27748Y94396D01*
G01X30131Y94396D01*
G01X30131Y92981D01*
G01X27748Y92981D01*
G37*
G36*
G01X35368Y95521D02*
G01X35368Y96936D01*
G01X37751Y96936D01*
G01X37751Y95521D01*
G01X35368Y95521D01*
G37*
G36*
G01X35368Y92981D02*
G01X35368Y94396D01*
G01X37751Y94396D01*
G01X37751Y92981D01*
G01X35368Y92981D01*
G37*
G36*
G01X27748Y115602D02*
G01X27748Y117017D01*
G01X30131Y117017D01*
G01X30131Y115602D01*
G01X27748Y115602D01*
G37*
G36*
G01X27748Y113062D02*
G01X27748Y114477D01*
G01X30131Y114477D01*
G01X30131Y113062D01*
G01X27748Y113062D01*
G37*
G36*
G01X35368Y113062D02*
G01X35368Y114477D01*
G01X37751Y114477D01*
G01X37751Y113062D01*
G01X35368Y113062D01*
G37*
G36*
G01X35368Y115602D02*
G01X35368Y117017D01*
G01X37751Y117017D01*
G01X37751Y115602D01*
G01X35368Y115602D01*
G37*
G36*
G01X27748Y110522D02*
G01X27748Y111937D01*
G01X30131Y111937D01*
G01X30131Y110522D01*
G01X27748Y110522D01*
G37*
G36*
G01X27748Y107982D02*
G01X27748Y109397D01*
G01X30131Y109397D01*
G01X30131Y107982D01*
G01X27748Y107982D01*
G37*
G36*
G01X35368Y110522D02*
G01X35368Y111937D01*
G01X37751Y111937D01*
G01X37751Y110522D01*
G01X35368Y110522D01*
G37*
G36*
G01X35368Y107982D02*
G01X35368Y109397D01*
G01X37751Y109397D01*
G01X37751Y107982D01*
G01X35368Y107982D01*
G37*
G36*
G01X27748Y175602D02*
G01X27748Y177017D01*
G01X30131Y177017D01*
G01X30131Y175602D01*
G01X27748Y175602D01*
G37*
G36*
G01X27748Y173062D02*
G01X27748Y174477D01*
G01X30131Y174477D01*
G01X30131Y173062D01*
G01X27748Y173062D01*
G37*
G36*
G01X35368Y173062D02*
G01X35368Y174477D01*
G01X37751Y174477D01*
G01X37751Y173062D01*
G01X35368Y173062D01*
G37*
G36*
G01X35368Y175602D02*
G01X35368Y177017D01*
G01X37751Y177017D01*
G01X37751Y175602D01*
G01X35368Y175602D01*
G37*
G36*
G01X27748Y170522D02*
G01X27748Y171937D01*
G01X30131Y171937D01*
G01X30131Y170522D01*
G01X27748Y170522D01*
G37*
G36*
G01X27748Y167982D02*
G01X27748Y169397D01*
G01X30131Y169397D01*
G01X30131Y167982D01*
G01X27748Y167982D01*
G37*
G36*
G01X35368Y170522D02*
G01X35368Y171937D01*
G01X37751Y171937D01*
G01X37751Y170522D01*
G01X35368Y170522D01*
G37*
G36*
G01X35368Y167982D02*
G01X35368Y169397D01*
G01X37751Y169397D01*
G01X37751Y167982D01*
G01X35368Y167982D01*
G37*
G36*
G01X44398Y168856D02*
G01X44398Y171061D01*
G01X47101Y171061D01*
G01X47101Y168856D01*
G01X44398Y168856D01*
G37*
G36*
G01X14398Y173936D02*
G01X14398Y176141D01*
G01X17101Y176141D01*
G01X17101Y173936D01*
G01X14398Y173936D01*
G37*
G54D37*
G01X4750Y169995D03*
G01X4750Y175004D03*
G01X4750Y154995D03*
G01X4750Y160004D03*
G01X4750Y64995D03*
G01X4750Y70004D03*
G01X4750Y79995D03*
G01X4750Y85004D03*
G01X4750Y49995D03*
G01X4750Y55004D03*
G01X4750Y34995D03*
G01X4750Y40004D03*
G01X4750Y124995D03*
G01X4750Y130004D03*
G01X4750Y139995D03*
G01X4750Y145004D03*
G01X4750Y19995D03*
G01X4750Y25004D03*
G01X4750Y4995D03*
G01X4750Y10004D03*
G01X4750Y94995D03*
G01X4750Y100004D03*
G01X4750Y109995D03*
G01X4750Y115004D03*
G54D46*
G01X66750Y163230D03*
G01X66750Y165770D03*
G01X21750Y168229D03*
G01X21750Y170769D03*
G01X21750Y153230D03*
G01X21750Y155770D03*
G01X21750Y123230D03*
G01X21750Y125770D03*
G01X21750Y138230D03*
G01X21750Y140770D03*
G01X21750Y78229D03*
G01X21750Y80769D03*
G01X21750Y63229D03*
G01X21750Y65769D03*
G01X21750Y93229D03*
G01X21750Y95769D03*
G01X21750Y108230D03*
G01X21750Y110770D03*
G01X21750Y48229D03*
G01X21750Y50769D03*
G01X21750Y33230D03*
G01X21750Y35770D03*
G01X21750Y18230D03*
G01X21750Y20770D03*
G01X21750Y3230D03*
G01X21750Y5770D03*
G36*
G01X24698Y173197D02*
G01X24698Y174602D01*
G01X26801Y174602D01*
G01X26801Y173197D01*
G01X24698Y173197D01*
G37*
G36*
G01X24698Y176397D02*
G01X24698Y177802D01*
G01X26801Y177802D01*
G01X26801Y176397D01*
G01X24698Y176397D01*
G37*
G36*
G01X19699Y176397D02*
G01X19699Y177802D01*
G01X21802Y177802D01*
G01X21802Y176397D01*
G01X19699Y176397D01*
G37*
G36*
G01X19699Y173197D02*
G01X19699Y174602D01*
G01X21802Y174602D01*
G01X21802Y173197D01*
G01X19699Y173197D01*
G37*
G36*
G01X33649Y163448D02*
G01X33649Y165552D01*
G01X35051Y165552D01*
G01X35051Y163448D01*
G01X33649Y163448D01*
G37*
G36*
G01X30448Y163448D02*
G01X30448Y165552D01*
G01X31850Y165552D01*
G01X31850Y163448D01*
G01X30448Y163448D01*
G37*
G36*
G01X19699Y161399D02*
G01X19699Y162801D01*
G01X21802Y162801D01*
G01X21802Y161399D01*
G01X19699Y161399D01*
G37*
G36*
G01X19699Y158198D02*
G01X19699Y159600D01*
G01X21802Y159600D01*
G01X21802Y158198D01*
G01X19699Y158198D01*
G37*
G36*
G01X24698Y158198D02*
G01X24698Y159600D01*
G01X26801Y159600D01*
G01X26801Y158198D01*
G01X24698Y158198D01*
G37*
G36*
G01X24698Y161399D02*
G01X24698Y162801D01*
G01X26801Y162801D01*
G01X26801Y161399D01*
G01X24698Y161399D01*
G37*
G36*
G01X24698Y68198D02*
G01X24698Y69601D01*
G01X26801Y69601D01*
G01X26801Y68198D01*
G01X24698Y68198D01*
G37*
G36*
G01X24698Y71399D02*
G01X24698Y72801D01*
G01X26801Y72801D01*
G01X26801Y71399D01*
G01X24698Y71399D01*
G37*
G36*
G01X19699Y71399D02*
G01X19699Y72801D01*
G01X21802Y72801D01*
G01X21802Y71399D01*
G01X19699Y71399D01*
G37*
G36*
G01X19699Y68198D02*
G01X19699Y69601D01*
G01X21802Y69601D01*
G01X21802Y68198D01*
G01X19699Y68198D01*
G37*
G36*
G01X33649Y73449D02*
G01X33649Y75552D01*
G01X35051Y75552D01*
G01X35051Y73449D01*
G01X33649Y73449D01*
G37*
G36*
G01X30448Y73449D02*
G01X30448Y75552D01*
G01X31850Y75552D01*
G01X31850Y73449D01*
G01X30448Y73449D01*
G37*
G36*
G01X33649Y88447D02*
G01X33649Y90550D01*
G01X35051Y90550D01*
G01X35051Y88447D01*
G01X33649Y88447D01*
G37*
G36*
G01X30448Y88447D02*
G01X30448Y90550D01*
G01X31850Y90550D01*
G01X31850Y88447D01*
G01X30448Y88447D01*
G37*
G36*
G01X19699Y86398D02*
G01X19699Y87802D01*
G01X21802Y87802D01*
G01X21802Y86398D01*
G01X19699Y86398D01*
G37*
G36*
G01X19699Y83197D02*
G01X19699Y84602D01*
G01X21802Y84602D01*
G01X21802Y83197D01*
G01X19699Y83197D01*
G37*
G36*
G01X24698Y83197D02*
G01X24698Y84602D01*
G01X26801Y84602D01*
G01X26801Y83197D01*
G01X24698Y83197D01*
G37*
G36*
G01X24698Y86398D02*
G01X24698Y87802D01*
G01X26801Y87802D01*
G01X26801Y86398D01*
G01X24698Y86398D01*
G37*
G36*
G01X24698Y53197D02*
G01X24698Y54602D01*
G01X26801Y54602D01*
G01X26801Y53197D01*
G01X24698Y53197D01*
G37*
G36*
G01X24698Y56398D02*
G01X24698Y57802D01*
G01X26801Y57802D01*
G01X26801Y56398D01*
G01X24698Y56398D01*
G37*
G36*
G01X19699Y56398D02*
G01X19699Y57802D01*
G01X21802Y57802D01*
G01X21802Y56398D01*
G01X19699Y56398D01*
G37*
G36*
G01X19699Y53197D02*
G01X19699Y54602D01*
G01X21802Y54602D01*
G01X21802Y53197D01*
G01X19699Y53197D01*
G37*
G36*
G01X33649Y58447D02*
G01X33649Y60551D01*
G01X35051Y60551D01*
G01X35051Y58447D01*
G01X33649Y58447D01*
G37*
G36*
G01X30448Y58447D02*
G01X30448Y60551D01*
G01X31850Y60551D01*
G01X31850Y58447D01*
G01X30448Y58447D01*
G37*
G36*
G01X33649Y43449D02*
G01X33649Y45552D01*
G01X35051Y45552D01*
G01X35051Y43449D01*
G01X33649Y43449D01*
G37*
G36*
G01X30448Y43449D02*
G01X30448Y45552D01*
G01X31850Y45552D01*
G01X31850Y43449D01*
G01X30448Y43449D01*
G37*
G36*
G01X19699Y41399D02*
G01X19699Y42801D01*
G01X21802Y42801D01*
G01X21802Y41399D01*
G01X19699Y41399D01*
G37*
G36*
G01X19699Y38199D02*
G01X19699Y39601D01*
G01X21802Y39601D01*
G01X21802Y38199D01*
G01X19699Y38199D01*
G37*
G36*
G01X24698Y38199D02*
G01X24698Y39601D01*
G01X26801Y39601D01*
G01X26801Y38199D01*
G01X24698Y38199D01*
G37*
G36*
G01X24698Y41399D02*
G01X24698Y42801D01*
G01X26801Y42801D01*
G01X26801Y41399D01*
G01X24698Y41399D01*
G37*
G36*
G01X24698Y128198D02*
G01X24698Y129600D01*
G01X26801Y129600D01*
G01X26801Y128198D01*
G01X24698Y128198D01*
G37*
G36*
G01X24698Y131399D02*
G01X24698Y132801D01*
G01X26801Y132801D01*
G01X26801Y131399D01*
G01X24698Y131399D01*
G37*
G36*
G01X19699Y131399D02*
G01X19699Y132801D01*
G01X21802Y132801D01*
G01X21802Y131399D01*
G01X19699Y131399D01*
G37*
G36*
G01X19699Y128198D02*
G01X19699Y129600D01*
G01X21802Y129600D01*
G01X21802Y128198D01*
G01X19699Y128198D01*
G37*
G36*
G01X33649Y133449D02*
G01X33649Y135552D01*
G01X35051Y135552D01*
G01X35051Y133449D01*
G01X33649Y133449D01*
G37*
G36*
G01X30448Y133449D02*
G01X30448Y135552D01*
G01X31850Y135552D01*
G01X31850Y133449D01*
G01X30448Y133449D01*
G37*
G36*
G01X33649Y148447D02*
G01X33649Y150550D01*
G01X35051Y150550D01*
G01X35051Y148447D01*
G01X33649Y148447D01*
G37*
G36*
G01X30448Y148447D02*
G01X30448Y150550D01*
G01X31850Y150550D01*
G01X31850Y148447D01*
G01X30448Y148447D01*
G37*
G36*
G01X19699Y146397D02*
G01X19699Y147802D01*
G01X21802Y147802D01*
G01X21802Y146397D01*
G01X19699Y146397D01*
G37*
G36*
G01X19699Y143197D02*
G01X19699Y144602D01*
G01X21802Y144602D01*
G01X21802Y143197D01*
G01X19699Y143197D01*
G37*
G36*
G01X24698Y143197D02*
G01X24698Y144602D01*
G01X26801Y144602D01*
G01X26801Y143197D01*
G01X24698Y143197D01*
G37*
G36*
G01X24698Y146397D02*
G01X24698Y147802D01*
G01X26801Y147802D01*
G01X26801Y146397D01*
G01X24698Y146397D01*
G37*
G36*
G01X24698Y23197D02*
G01X24698Y24602D01*
G01X26801Y24602D01*
G01X26801Y23197D01*
G01X24698Y23197D01*
G37*
G36*
G01X24698Y26398D02*
G01X24698Y27802D01*
G01X26801Y27802D01*
G01X26801Y26398D01*
G01X24698Y26398D01*
G37*
G36*
G01X19699Y26398D02*
G01X19699Y27802D01*
G01X21802Y27802D01*
G01X21802Y26398D01*
G01X19699Y26398D01*
G37*
G36*
G01X19699Y23197D02*
G01X19699Y24602D01*
G01X21802Y24602D01*
G01X21802Y23197D01*
G01X19699Y23197D01*
G37*
G36*
G01X33649Y28447D02*
G01X33649Y30551D01*
G01X35051Y30551D01*
G01X35051Y28447D01*
G01X33649Y28447D01*
G37*
G36*
G01X30448Y28447D02*
G01X30448Y30551D01*
G01X31850Y30551D01*
G01X31850Y28447D01*
G01X30448Y28447D01*
G37*
G36*
G01X33649Y13449D02*
G01X33649Y15552D01*
G01X35051Y15552D01*
G01X35051Y13449D01*
G01X33649Y13449D01*
G37*
G36*
G01X30448Y13449D02*
G01X30448Y15552D01*
G01X31850Y15552D01*
G01X31850Y13449D01*
G01X30448Y13449D01*
G37*
G36*
G01X19699Y11399D02*
G01X19699Y12801D01*
G01X21802Y12801D01*
G01X21802Y11399D01*
G01X19699Y11399D01*
G37*
G36*
G01X19699Y8199D02*
G01X19699Y9601D01*
G01X21802Y9601D01*
G01X21802Y8199D01*
G01X19699Y8199D01*
G37*
G36*
G01X24698Y8199D02*
G01X24698Y9601D01*
G01X26801Y9601D01*
G01X26801Y8199D01*
G01X24698Y8199D01*
G37*
G36*
G01X24698Y11399D02*
G01X24698Y12801D01*
G01X26801Y12801D01*
G01X26801Y11399D01*
G01X24698Y11399D01*
G37*
G36*
G01X24698Y98198D02*
G01X24698Y99600D01*
G01X26801Y99600D01*
G01X26801Y98198D01*
G01X24698Y98198D01*
G37*
G36*
G01X24698Y101399D02*
G01X24698Y102801D01*
G01X26801Y102801D01*
G01X26801Y101399D01*
G01X24698Y101399D01*
G37*
G36*
G01X19699Y101399D02*
G01X19699Y102801D01*
G01X21802Y102801D01*
G01X21802Y101399D01*
G01X19699Y101399D01*
G37*
G36*
G01X19699Y98198D02*
G01X19699Y99600D01*
G01X21802Y99600D01*
G01X21802Y98198D01*
G01X19699Y98198D01*
G37*
G36*
G01X33649Y103449D02*
G01X33649Y105552D01*
G01X35051Y105552D01*
G01X35051Y103449D01*
G01X33649Y103449D01*
G37*
G36*
G01X30448Y103449D02*
G01X30448Y105552D01*
G01X31850Y105552D01*
G01X31850Y103449D01*
G01X30448Y103449D01*
G37*
G36*
G01X33649Y118447D02*
G01X33649Y120550D01*
G01X35051Y120550D01*
G01X35051Y118447D01*
G01X33649Y118447D01*
G37*
G36*
G01X30448Y118447D02*
G01X30448Y120550D01*
G01X31850Y120550D01*
G01X31850Y118447D01*
G01X30448Y118447D01*
G37*
G36*
G01X19699Y116397D02*
G01X19699Y117802D01*
G01X21802Y117802D01*
G01X21802Y116397D01*
G01X19699Y116397D01*
G37*
G36*
G01X19699Y113197D02*
G01X19699Y114602D01*
G01X21802Y114602D01*
G01X21802Y113197D01*
G01X19699Y113197D01*
G37*
G36*
G01X24698Y113197D02*
G01X24698Y114602D01*
G01X26801Y114602D01*
G01X26801Y113197D01*
G01X24698Y113197D01*
G37*
G36*
G01X24698Y116397D02*
G01X24698Y117802D01*
G01X26801Y117802D01*
G01X26801Y116397D01*
G01X24698Y116397D01*
G37*
G36*
G01X49699Y172397D02*
G01X49699Y173801D01*
G01X51802Y173801D01*
G01X51802Y172397D01*
G01X49699Y172397D01*
G37*
G36*
G01X49699Y169199D02*
G01X49699Y170601D01*
G01X51802Y170601D01*
G01X51802Y169199D01*
G01X49699Y169199D01*
G37*
G36*
G01X39699Y173197D02*
G01X39699Y174602D01*
G01X41802Y174602D01*
G01X41802Y173197D01*
G01X39699Y173197D01*
G37*
G36*
G01X39699Y176397D02*
G01X39699Y177802D01*
G01X41802Y177802D01*
G01X41802Y176397D01*
G01X39699Y176397D01*
G37*
G36*
G01X49699Y157398D02*
G01X49699Y158800D01*
G01X51802Y158800D01*
G01X51802Y157398D01*
G01X49699Y157398D01*
G37*
G36*
G01X49699Y154198D02*
G01X49699Y155600D01*
G01X51802Y155600D01*
G01X51802Y154198D01*
G01X49699Y154198D01*
G37*
G36*
G01X39699Y158198D02*
G01X39699Y159600D01*
G01X41802Y159600D01*
G01X41802Y158198D01*
G01X39699Y158198D01*
G37*
G36*
G01X39699Y161399D02*
G01X39699Y162801D01*
G01X41802Y162801D01*
G01X41802Y161399D01*
G01X39699Y161399D01*
G37*
G36*
G01X49699Y142397D02*
G01X49699Y143802D01*
G01X51802Y143802D01*
G01X51802Y142397D01*
G01X49699Y142397D01*
G37*
G36*
G01X49699Y139197D02*
G01X49699Y140601D01*
G01X51802Y140601D01*
G01X51802Y139197D01*
G01X49699Y139197D01*
G37*
G36*
G01X39699Y143197D02*
G01X39699Y144602D01*
G01X41802Y144602D01*
G01X41802Y143197D01*
G01X39699Y143197D01*
G37*
G36*
G01X39699Y146397D02*
G01X39699Y147802D01*
G01X41802Y147802D01*
G01X41802Y146397D01*
G01X39699Y146397D01*
G37*
G36*
G01X49699Y127398D02*
G01X49699Y128800D01*
G01X51802Y128800D01*
G01X51802Y127398D01*
G01X49699Y127398D01*
G37*
G36*
G01X49699Y124198D02*
G01X49699Y125600D01*
G01X51802Y125600D01*
G01X51802Y124198D01*
G01X49699Y124198D01*
G37*
G36*
G01X39699Y128198D02*
G01X39699Y129600D01*
G01X41802Y129600D01*
G01X41802Y128198D01*
G01X39699Y128198D01*
G37*
G36*
G01X39699Y131399D02*
G01X39699Y132801D01*
G01X41802Y132801D01*
G01X41802Y131399D01*
G01X39699Y131399D01*
G37*
G36*
G01X49699Y112397D02*
G01X49699Y113802D01*
G01X51802Y113802D01*
G01X51802Y112397D01*
G01X49699Y112397D01*
G37*
G36*
G01X49699Y109197D02*
G01X49699Y110601D01*
G01X51802Y110601D01*
G01X51802Y109197D01*
G01X49699Y109197D01*
G37*
G36*
G01X39699Y113197D02*
G01X39699Y114602D01*
G01X41802Y114602D01*
G01X41802Y113197D01*
G01X39699Y113197D01*
G37*
G36*
G01X39699Y116397D02*
G01X39699Y117802D01*
G01X41802Y117802D01*
G01X41802Y116397D01*
G01X39699Y116397D01*
G37*
G36*
G01X49699Y97398D02*
G01X49699Y98800D01*
G01X51802Y98800D01*
G01X51802Y97398D01*
G01X49699Y97398D01*
G37*
G36*
G01X49699Y94198D02*
G01X49699Y95600D01*
G01X51802Y95600D01*
G01X51802Y94198D01*
G01X49699Y94198D01*
G37*
G36*
G01X39699Y98198D02*
G01X39699Y99600D01*
G01X41802Y99600D01*
G01X41802Y98198D01*
G01X39699Y98198D01*
G37*
G36*
G01X39699Y101399D02*
G01X39699Y102801D01*
G01X41802Y102801D01*
G01X41802Y101399D01*
G01X39699Y101399D01*
G37*
G36*
G01X49699Y82397D02*
G01X49699Y83802D01*
G01X51802Y83802D01*
G01X51802Y82397D01*
G01X49699Y82397D01*
G37*
G36*
G01X49699Y79197D02*
G01X49699Y80601D01*
G01X51802Y80601D01*
G01X51802Y79197D01*
G01X49699Y79197D01*
G37*
G36*
G01X39699Y83197D02*
G01X39699Y84602D01*
G01X41802Y84602D01*
G01X41802Y83197D01*
G01X39699Y83197D01*
G37*
G36*
G01X39699Y86398D02*
G01X39699Y87802D01*
G01X41802Y87802D01*
G01X41802Y86398D01*
G01X39699Y86398D01*
G37*
G36*
G01X49699Y67398D02*
G01X49699Y68800D01*
G01X51802Y68800D01*
G01X51802Y67398D01*
G01X49699Y67398D01*
G37*
G36*
G01X49699Y64198D02*
G01X49699Y65600D01*
G01X51802Y65600D01*
G01X51802Y64198D01*
G01X49699Y64198D01*
G37*
G36*
G01X39699Y68198D02*
G01X39699Y69601D01*
G01X41802Y69601D01*
G01X41802Y68198D01*
G01X39699Y68198D01*
G37*
G36*
G01X39699Y71399D02*
G01X39699Y72801D01*
G01X41802Y72801D01*
G01X41802Y71399D01*
G01X39699Y71399D01*
G37*
G36*
G01X49699Y52397D02*
G01X49699Y53802D01*
G01X51802Y53802D01*
G01X51802Y52397D01*
G01X49699Y52397D01*
G37*
G36*
G01X49699Y49197D02*
G01X49699Y50601D01*
G01X51802Y50601D01*
G01X51802Y49197D01*
G01X49699Y49197D01*
G37*
G36*
G01X39699Y53197D02*
G01X39699Y54602D01*
G01X41802Y54602D01*
G01X41802Y53197D01*
G01X39699Y53197D01*
G37*
G36*
G01X39699Y56398D02*
G01X39699Y57802D01*
G01X41802Y57802D01*
G01X41802Y56398D01*
G01X39699Y56398D01*
G37*
G36*
G01X49699Y37398D02*
G01X49699Y38800D01*
G01X51802Y38800D01*
G01X51802Y37398D01*
G01X49699Y37398D01*
G37*
G36*
G01X49699Y34198D02*
G01X49699Y35600D01*
G01X51802Y35600D01*
G01X51802Y34198D01*
G01X49699Y34198D01*
G37*
G36*
G01X39699Y38199D02*
G01X39699Y39601D01*
G01X41802Y39601D01*
G01X41802Y38199D01*
G01X39699Y38199D01*
G37*
G36*
G01X39699Y41399D02*
G01X39699Y42801D01*
G01X41802Y42801D01*
G01X41802Y41399D01*
G01X39699Y41399D01*
G37*
G36*
G01X49699Y22397D02*
G01X49699Y23802D01*
G01X51802Y23802D01*
G01X51802Y22397D01*
G01X49699Y22397D01*
G37*
G36*
G01X49699Y19197D02*
G01X49699Y20601D01*
G01X51802Y20601D01*
G01X51802Y19197D01*
G01X49699Y19197D01*
G37*
G36*
G01X39699Y23197D02*
G01X39699Y24602D01*
G01X41802Y24602D01*
G01X41802Y23197D01*
G01X39699Y23197D01*
G37*
G36*
G01X39699Y26398D02*
G01X39699Y27802D01*
G01X41802Y27802D01*
G01X41802Y26398D01*
G01X39699Y26398D01*
G37*
G36*
G01X49699Y7398D02*
G01X49699Y8801D01*
G01X51802Y8801D01*
G01X51802Y7398D01*
G01X49699Y7398D01*
G37*
G36*
G01X49699Y4198D02*
G01X49699Y5600D01*
G01X51802Y5600D01*
G01X51802Y4198D01*
G01X49699Y4198D01*
G37*
G36*
G01X39699Y8199D02*
G01X39699Y9601D01*
G01X41802Y9601D01*
G01X41802Y8199D01*
G01X39699Y8199D01*
G37*
G36*
G01X39699Y11399D02*
G01X39699Y12801D01*
G01X41802Y12801D01*
G01X41802Y11399D01*
G01X39699Y11399D01*
G37*
G36*
G01X64149Y140949D02*
G01X64149Y143052D01*
G01X65551Y143052D01*
G01X65551Y140949D01*
G01X64149Y140949D01*
G37*
G36*
G01X60949Y140949D02*
G01X60949Y143052D01*
G01X62351Y143052D01*
G01X62351Y140949D01*
G01X60949Y140949D01*
G37*
G36*
G01X62948Y131447D02*
G01X62948Y133550D01*
G01X64352Y133550D01*
G01X64352Y131447D01*
G01X62948Y131447D01*
G37*
G36*
G01X66148Y131447D02*
G01X66148Y133550D01*
G01X67550Y133550D01*
G01X67550Y131447D01*
G01X66148Y131447D01*
G37*
G36*
G01X62198Y94447D02*
G01X62198Y96550D01*
G01X63600Y96550D01*
G01X63600Y94447D01*
G01X62198Y94447D01*
G37*
G36*
G01X65399Y94447D02*
G01X65399Y96550D01*
G01X66801Y96550D01*
G01X66801Y94447D01*
G01X65399Y94447D01*
G37*
G36*
G01X62198Y123449D02*
G01X62198Y125552D01*
G01X63600Y125552D01*
G01X63600Y123449D01*
G01X62198Y123449D01*
G37*
G36*
G01X65399Y123449D02*
G01X65399Y125552D01*
G01X66801Y125552D01*
G01X66801Y123449D01*
G01X65399Y123449D01*
G37*
G54D38*
G01X11750Y177099D03*
G01X11750Y167900D03*
G01X11750Y162099D03*
G01X11750Y152900D03*
G01X11750Y72099D03*
G01X11750Y62900D03*
G01X11750Y87099D03*
G01X11750Y77899D03*
G01X11750Y57099D03*
G01X11750Y47900D03*
G01X11750Y42099D03*
G01X11750Y32900D03*
G01X11750Y132100D03*
G01X11750Y122900D03*
G01X11750Y147099D03*
G01X11750Y137900D03*
G01X11750Y27099D03*
G01X11750Y17900D03*
G01X11750Y12100D03*
G01X11750Y2900D03*
G01X11750Y102099D03*
G01X11750Y92899D03*
G01X11750Y117100D03*
G01X11750Y107900D03*
G36*
G01X59889Y120588D02*
G01X59889Y122189D01*
G01X61490Y122189D01*
G01X61490Y120588D01*
G01X59889Y120588D01*
G37*
G54D49*
G01X60690Y118850D03*
G01X60690Y116310D03*
G01X60690Y113770D03*
G01X60690Y111230D03*
G01X60690Y108690D03*
G01X60690Y106150D03*
G01X60690Y103610D03*
G01X68310Y103610D03*
G01X68310Y106150D03*
G01X68310Y108690D03*
G01X68310Y111230D03*
G01X68310Y113770D03*
G01X68310Y116310D03*
G01X68310Y118850D03*
G01X68310Y121390D03*
G36*
G01X59889Y91589D02*
G01X59889Y93190D01*
G01X61490Y93190D01*
G01X61490Y91589D01*
G01X59889Y91589D01*
G37*
G01X60690Y89849D03*
G01X60690Y87309D03*
G01X60690Y84769D03*
G01X60690Y82229D03*
G01X60690Y79689D03*
G01X60690Y77149D03*
G01X60690Y74609D03*
G01X68310Y74609D03*
G01X68310Y77149D03*
G01X68310Y79689D03*
G01X68310Y82229D03*
G01X68310Y84769D03*
G01X68310Y87309D03*
G01X68310Y89849D03*
G01X68310Y92389D03*
G36*
G01X24698Y170398D02*
G01X24698Y171800D01*
G01X26801Y171800D01*
G01X26801Y170398D01*
G01X24698Y170398D01*
G37*
G36*
G01X24698Y167197D02*
G01X24698Y168602D01*
G01X26801Y168602D01*
G01X26801Y167197D01*
G01X24698Y167197D01*
G37*
G54D47*
G01X25750Y156099D03*
G01X25750Y152899D03*
G01X25750Y126100D03*
G01X25750Y122899D03*
G36*
G01X24698Y140398D02*
G01X24698Y141800D01*
G01X26801Y141800D01*
G01X26801Y140398D01*
G01X24698Y140398D01*
G37*
G36*
G01X24698Y137198D02*
G01X24698Y138602D01*
G01X26801Y138602D01*
G01X26801Y137198D01*
G01X24698Y137198D01*
G37*
G36*
G01X24698Y110398D02*
G01X24698Y111800D01*
G01X26801Y111800D01*
G01X26801Y110398D01*
G01X24698Y110398D01*
G37*
G36*
G01X24698Y107198D02*
G01X24698Y108602D01*
G01X26801Y108602D01*
G01X26801Y107198D01*
G01X24698Y107198D01*
G37*
G01X25750Y96100D03*
G01X25750Y92899D03*
G36*
G01X24698Y80398D02*
G01X24698Y81800D01*
G01X26801Y81800D01*
G01X26801Y80398D01*
G01X24698Y80398D01*
G37*
G36*
G01X24698Y77198D02*
G01X24698Y78600D01*
G01X26801Y78600D01*
G01X26801Y77198D01*
G01X24698Y77198D01*
G37*
G01X25750Y66100D03*
G01X25750Y62900D03*
G36*
G01X24698Y50398D02*
G01X24698Y51800D01*
G01X26801Y51800D01*
G01X26801Y50398D01*
G01X24698Y50398D01*
G37*
G36*
G01X24698Y47198D02*
G01X24698Y48600D01*
G01X26801Y48600D01*
G01X26801Y47198D01*
G01X24698Y47198D01*
G37*
G36*
G01X24698Y35397D02*
G01X24698Y36802D01*
G01X26801Y36802D01*
G01X26801Y35397D01*
G01X24698Y35397D01*
G37*
G01X25750Y32900D03*
G36*
G01X24698Y20398D02*
G01X24698Y21800D01*
G01X26801Y21800D01*
G01X26801Y20398D01*
G01X24698Y20398D01*
G37*
G36*
G01X24698Y17198D02*
G01X24698Y18600D01*
G01X26801Y18600D01*
G01X26801Y17198D01*
G01X24698Y17198D01*
G37*
G36*
G01X24698Y5397D02*
G01X24698Y6802D01*
G01X26801Y6802D01*
G01X26801Y5397D01*
G01X24698Y5397D01*
G37*
G01X25750Y2899D03*
G36*
G01X65698Y148198D02*
G01X65698Y149600D01*
G01X67802Y149600D01*
G01X67802Y148198D01*
G01X65698Y148198D01*
G37*
G36*
G01X65698Y151399D02*
G01X65698Y152801D01*
G01X67802Y152801D01*
G01X67802Y151399D01*
G01X65698Y151399D01*
G37*
M00*
M02*
