;Layer: Drill PTH
;EasyEDA v6.4.7, 2020-11-30T22:32:52--5:00
;76768ecdb7b1411bbbfdaf268766b05e,f351316c249842cba096f2da4b91d990,10
;Gerber Generator version 0.2
M48
METRIC,LZ,000.000
;Holesize 1 = 0.305 METRIC
T01C0.305
;Holesize 2 = 0.712 METRIC
T02C0.712
;Holesize 3 = 0.813 METRIC
T03C0.813
;Holesize 4 = 0.889 METRIC
T04C0.889
;Holesize 5 = 0.901 METRIC
T05C0.901
;Holesize 6 = 0.915 METRIC
T06C0.915
;Holesize 7 = 1.000 METRIC
T07C1.000
;Holesize 8 = 1.101 METRIC
T08C1.101
;Holesize 9 = 1.301 METRIC
T09C1.301
;Holesize 10 = 1.400 METRIC
T10C1.400
%
G05
G90
T01
X+050750Y+072249
X+042249Y+156250
X+042249Y+141249
X+042249Y+126250
X+042249Y+111249
X+042249Y+096250
X+042249Y+081249
X+042249Y+066250
X+042249Y+051249
X+042249Y+036250
X+042249Y+021249
X+042249Y+006500
X+042249Y+148999
T02
X+060689Y+121390
X+060689Y+118850
X+060689Y+116310
X+060689Y+113770
X+060689Y+111230
X+060689Y+108690
X+060689Y+106150
X+060689Y+103610
X+068309Y+103610
X+068309Y+106150
X+068309Y+108690
X+068309Y+111230
X+068309Y+113770
X+068309Y+116310
X+068309Y+118850
X+068309Y+121390
X+060689Y+092390
X+060689Y+089850
X+060689Y+087310
X+060689Y+084770
X+060689Y+082230
X+060689Y+079690
X+060689Y+077150
X+060689Y+074610
X+068309Y+074610
X+068309Y+077150
X+068309Y+079690
X+068309Y+082230
X+068309Y+084770
X+068309Y+087310
X+068309Y+089850
X+068309Y+092390
T03
X+028939Y+161310
X+028939Y+158770
X+036559Y+158770
X+036559Y+161310
X+028939Y+156230
X+028939Y+153690
X+036559Y+156230
X+036559Y+153690
X+028939Y+071310
X+028939Y+068770
X+036559Y+068770
X+036559Y+071310
X+028939Y+066230
X+028939Y+063690
X+036559Y+066230
X+036559Y+063690
X+028939Y+086310
X+028939Y+083770
X+036559Y+083770
X+036559Y+086310
X+028939Y+081230
X+028939Y+078690
X+036559Y+081230
X+036559Y+078690
X+028939Y+056309
X+028939Y+053769
X+036559Y+053769
X+036559Y+056309
X+028939Y+051229
X+028939Y+048689
X+036559Y+051229
X+036559Y+048689
X+028939Y+041310
X+028939Y+038770
X+036559Y+038770
X+036559Y+041310
X+028939Y+036230
X+028939Y+033690
X+036559Y+036230
X+036559Y+033690
X+028939Y+131309
X+028939Y+128769
X+036559Y+128769
X+036559Y+131309
X+028939Y+126229
X+028939Y+123689
X+036559Y+126229
X+036559Y+123689
X+028939Y+146309
X+028939Y+143769
X+036559Y+143769
X+036559Y+146309
X+028939Y+141229
X+028939Y+138689
X+036559Y+141229
X+036559Y+138689
X+028939Y+026310
X+028939Y+023770
X+036559Y+023770
X+036559Y+026310
X+028939Y+021230
X+028939Y+018690
X+036559Y+021230
X+036559Y+018690
X+028939Y+011310
X+028939Y+008770
X+036559Y+008770
X+036559Y+011310
X+028939Y+006230
X+028939Y+003690
X+036559Y+006230
X+036559Y+003690
X+028939Y+101310
X+028939Y+098770
X+036559Y+098770
X+036559Y+101310
X+028939Y+096230
X+028939Y+093690
X+036559Y+096230
X+036559Y+093690
X+028939Y+116310
X+028939Y+113770
X+036559Y+113770
X+036559Y+116310
X+028939Y+111230
X+028939Y+108690
X+036559Y+111230
X+036559Y+108690
X+028939Y+176310
X+028939Y+173770
X+036559Y+173770
X+036559Y+176310
X+028939Y+171230
X+028939Y+168690
X+036559Y+171230
X+036559Y+168690
T04
X+079999Y+174660
X+079999Y+172120
X+079999Y+169580
X+079999Y+167040
X+079999Y+164500
X+079999Y+161960
X+079999Y+159420
X+079999Y+156880
T05
X+066750Y+163230
X+066750Y+165770
X+021749Y+168230
X+021749Y+170770
X+021749Y+153229
X+021749Y+155769
X+021749Y+123230
X+021749Y+125770
X+021749Y+138230
X+021749Y+140770
X+021749Y+078229
X+021749Y+080769
X+021749Y+063229
X+021749Y+065769
X+021749Y+093230
X+021749Y+095770
X+021749Y+108230
X+021749Y+110770
X+021749Y+048230
X+021749Y+050770
X+021749Y+033230
X+021749Y+035770
X+021749Y+018230
X+021749Y+020770
X+021749Y+003229
X+021749Y+005769
T06
X+056209Y+161500
X+061289Y+161500
X+056209Y+150500
X+061289Y+150500
T07
X+011749Y+177100
X+011749Y+167900
X+011749Y+162100
X+011749Y+152900
X+011749Y+072099
X+011749Y+062900
X+011749Y+087100
X+011749Y+077900
X+011749Y+057099
X+011749Y+047900
X+011749Y+042099
X+011749Y+032900
X+011749Y+132099
X+011749Y+122900
X+011749Y+147099
X+011749Y+137900
X+011749Y+027099
X+011749Y+017900
X+011749Y+012100
X+011749Y+002900
X+011749Y+102099
X+011749Y+092900
X+011749Y+117099
X+011749Y+107900
T08
X+080001Y+061249
X+080001Y+065750
X+073498Y+061249
X+073498Y+065750
X+069001Y+056249
X+069001Y+060750
X+062498Y+056249
X+062498Y+060750
X+080001Y+025249
X+080001Y+029750
X+073498Y+025249
X+073498Y+029750
X+069001Y+029249
X+069001Y+033750
X+062498Y+029249
X+062498Y+033750
X+069001Y+020249
X+069001Y+024750
X+062498Y+020249
X+062498Y+024750
X+080001Y+016249
X+080001Y+020750
X+073498Y+016249
X+073498Y+020750
X+069001Y+047249
X+069001Y+051750
X+062498Y+047249
X+062498Y+051750
X+080001Y+052249
X+080001Y+056750
X+073498Y+052249
X+073498Y+056750
X+069001Y+011249
X+069001Y+015750
X+062498Y+011249
X+062498Y+015750
X+080001Y+007249
X+080001Y+011750
X+073498Y+007249
X+073498Y+011750
X+080001Y+034249
X+080001Y+038750
X+073498Y+034249
X+073498Y+038750
X+080001Y+043249
X+080001Y+047750
X+073498Y+043249
X+073498Y+047750
T09
X+056245Y+172500
X+061254Y+172500
X+004750Y+169995
X+004750Y+175004
X+004750Y+154995
X+004750Y+160004
X+004750Y+064995
X+004750Y+070004
X+004750Y+079995
X+004750Y+085004
X+004750Y+049995
X+004750Y+055004
X+004750Y+034995
X+004750Y+040004
X+004750Y+124995
X+004750Y+130004
X+004750Y+139995
X+004750Y+145004
X+004750Y+019995
X+004750Y+025004
X+004750Y+004995
X+004750Y+010004
X+004750Y+094995
X+004750Y+100004
X+004750Y+109995
X+004750Y+115004
T10
X+045749Y+157500
X+045749Y+160040
X+045749Y+154960
X+045749Y+067499
X+045749Y+070039
X+045749Y+064959
X+045749Y+082500
X+045749Y+085040
X+045749Y+079960
X+045749Y+052499
X+045749Y+055039
X+045749Y+049959
X+045749Y+037500
X+045749Y+040040
X+045749Y+034960
X+045749Y+127499
X+045749Y+130039
X+045749Y+124959
X+045749Y+142499
X+045749Y+145039
X+045749Y+139959
X+045749Y+022500
X+045749Y+025040
X+045749Y+019960
X+045749Y+007500
X+045749Y+010040
X+045749Y+004960
X+045749Y+097500
X+045749Y+100040
X+045749Y+094960
X+045750Y+112500
X+045750Y+115040
X+045750Y+109960
X+064249Y+137500
X+066789Y+137500
X+061709Y+137500
X+015750Y+160040
X+015750Y+154960
X+015750Y+157500
X+015750Y+070039
X+015750Y+064959
X+015750Y+067499
X+015749Y+085040
X+015749Y+079960
X+015749Y+082500
X+015749Y+055039
X+015749Y+049959
X+015749Y+052499
X+015749Y+040040
X+015749Y+034960
X+015749Y+037500
X+015749Y+130039
X+015749Y+124959
X+015749Y+127499
X+015750Y+145040
X+015750Y+139960
X+015750Y+142500
X+015749Y+025040
X+015749Y+019960
X+015749Y+022500
X+015750Y+010040
X+015750Y+004960
X+015750Y+007500
X+015750Y+100040
X+015750Y+094960
X+015750Y+097500
X+015750Y+115040
X+015750Y+109960
X+015750Y+112500
X+045749Y+172500
X+045749Y+175040
X+045749Y+169960
X+015749Y+175040
X+015749Y+169960
X+015749Y+172500
M30
