G04 Layer: BottomSilkLayer*
G04 EasyEDA v6.4.7, 2020-11-30T22:32:52--5:00*
G04 76768ecdb7b1411bbbfdaf268766b05e,f351316c249842cba096f2da4b91d990,10*
G04 Gerber Generator version 0.2*
G04 Scale: 100 percent, Rotated: No, Reflected: No *
G04 Dimensions in millimeters *
G04 leading zeros omitted , absolute positions ,3 integer and 3 decimal *
%FSLAX33Y33*%
%MOMM*%
G90*
D02*

%ADD29C,0.254000*%
%ADD36C,0.152400*%

%LPD*%
G54D29*
G01X33949Y171999D02*
G01X31550Y171999D01*
G01X31550Y175499D02*
G01X31550Y176999D01*
G01X33949Y175499D02*
G01X33949Y176999D01*
G01X31550Y173499D02*
G01X31550Y171999D01*
G01X33949Y173499D02*
G01X33949Y171999D01*
G01X33949Y176999D02*
G01X31550Y176999D01*
G01X33949Y156999D02*
G01X31550Y156999D01*
G01X31550Y160499D02*
G01X31550Y161999D01*
G01X33949Y160499D02*
G01X33949Y161999D01*
G01X31550Y158499D02*
G01X31550Y156999D01*
G01X33949Y158499D02*
G01X33949Y156999D01*
G01X33949Y161999D02*
G01X31550Y161999D01*
G01X33949Y66999D02*
G01X31550Y66999D01*
G01X31550Y70499D02*
G01X31550Y71999D01*
G01X33949Y70499D02*
G01X33949Y71999D01*
G01X31550Y68499D02*
G01X31550Y66999D01*
G01X33949Y68499D02*
G01X33949Y66999D01*
G01X33949Y71999D02*
G01X31550Y71999D01*
G01X33949Y81999D02*
G01X31550Y81999D01*
G01X31550Y85499D02*
G01X31550Y86999D01*
G01X33949Y85499D02*
G01X33949Y86999D01*
G01X31550Y83499D02*
G01X31550Y81999D01*
G01X33949Y83499D02*
G01X33949Y81999D01*
G01X33949Y86999D02*
G01X31550Y86999D01*
G01X33949Y51999D02*
G01X31550Y51999D01*
G01X31550Y55499D02*
G01X31550Y56999D01*
G01X33949Y55499D02*
G01X33949Y56999D01*
G01X31550Y53499D02*
G01X31550Y51999D01*
G01X33949Y53499D02*
G01X33949Y51999D01*
G01X33949Y56999D02*
G01X31550Y56999D01*
G01X33949Y36999D02*
G01X31550Y36999D01*
G01X31550Y40499D02*
G01X31550Y41999D01*
G01X33949Y40499D02*
G01X33949Y41999D01*
G01X31550Y38499D02*
G01X31550Y36999D01*
G01X33949Y38499D02*
G01X33949Y36999D01*
G01X33949Y41999D02*
G01X31550Y41999D01*
G01X33949Y126999D02*
G01X31550Y126999D01*
G01X31550Y130499D02*
G01X31550Y131999D01*
G01X33949Y130499D02*
G01X33949Y131999D01*
G01X31550Y128499D02*
G01X31550Y126999D01*
G01X33949Y128499D02*
G01X33949Y126999D01*
G01X33949Y131999D02*
G01X31550Y131999D01*
G01X33949Y141999D02*
G01X31550Y141999D01*
G01X31550Y145499D02*
G01X31550Y146999D01*
G01X33949Y145499D02*
G01X33949Y146999D01*
G01X31550Y143499D02*
G01X31550Y141999D01*
G01X33949Y143499D02*
G01X33949Y141999D01*
G01X33949Y146999D02*
G01X31550Y146999D01*
G01X33949Y21999D02*
G01X31550Y21999D01*
G01X31550Y25499D02*
G01X31550Y26999D01*
G01X33949Y25499D02*
G01X33949Y26999D01*
G01X31550Y23499D02*
G01X31550Y21999D01*
G01X33949Y23499D02*
G01X33949Y21999D01*
G01X33949Y26999D02*
G01X31550Y26999D01*
G01X33949Y6999D02*
G01X31550Y6999D01*
G01X31550Y10499D02*
G01X31550Y11999D01*
G01X33949Y10499D02*
G01X33949Y11999D01*
G01X31550Y8499D02*
G01X31550Y6999D01*
G01X33949Y8499D02*
G01X33949Y6999D01*
G01X33949Y11999D02*
G01X31550Y11999D01*
G01X33949Y96999D02*
G01X31550Y96999D01*
G01X31550Y100499D02*
G01X31550Y101999D01*
G01X33949Y100499D02*
G01X33949Y101999D01*
G01X31550Y98499D02*
G01X31550Y96999D01*
G01X33949Y98499D02*
G01X33949Y96999D01*
G01X33949Y101999D02*
G01X31550Y101999D01*
G01X33949Y111999D02*
G01X31550Y111999D01*
G01X31550Y115499D02*
G01X31550Y116999D01*
G01X33949Y115499D02*
G01X33949Y116999D01*
G01X31550Y113499D02*
G01X31550Y111999D01*
G01X33949Y113499D02*
G01X33949Y111999D01*
G01X33949Y116999D02*
G01X31550Y116999D01*
G54D36*
G01X33749Y171653D02*
G01X33749Y170563D01*
G01X33749Y171653D02*
G01X33282Y171653D01*
G01X33127Y171602D01*
G01X33074Y171549D01*
G01X33023Y171444D01*
G01X33023Y171340D01*
G01X33074Y171236D01*
G01X33127Y171185D01*
G01X33282Y171135D01*
G01X33749Y171135D01*
G01X33386Y171135D02*
G01X33023Y170563D01*
G01X32159Y171653D02*
G01X32680Y170926D01*
G01X31900Y170926D01*
G01X32159Y171653D02*
G01X32159Y170563D01*
G01X33749Y156653D02*
G01X33749Y155563D01*
G01X33749Y156653D02*
G01X33282Y156653D01*
G01X33127Y156602D01*
G01X33074Y156549D01*
G01X33023Y156444D01*
G01X33023Y156340D01*
G01X33074Y156236D01*
G01X33127Y156185D01*
G01X33282Y156134D01*
G01X33749Y156134D01*
G01X33386Y156134D02*
G01X33023Y155563D01*
G01X32055Y156653D02*
G01X32576Y156653D01*
G01X32627Y156185D01*
G01X32576Y156236D01*
G01X32419Y156289D01*
G01X32264Y156289D01*
G01X32109Y156236D01*
G01X32005Y156134D01*
G01X31951Y155977D01*
G01X31951Y155873D01*
G01X32005Y155718D01*
G01X32109Y155614D01*
G01X32264Y155563D01*
G01X32419Y155563D01*
G01X32576Y155614D01*
G01X32627Y155665D01*
G01X32680Y155769D01*
G01X33749Y66653D02*
G01X33749Y65563D01*
G01X33749Y66653D02*
G01X33282Y66653D01*
G01X33127Y66602D01*
G01X33074Y66549D01*
G01X33023Y66444D01*
G01X33023Y66340D01*
G01X33074Y66236D01*
G01X33127Y66185D01*
G01X33282Y66134D01*
G01X33749Y66134D01*
G01X33386Y66134D02*
G01X33023Y65563D01*
G01X32680Y66444D02*
G01X32576Y66498D01*
G01X32419Y66653D01*
G01X32419Y65563D01*
G01X32025Y66394D02*
G01X32025Y66444D01*
G01X31971Y66549D01*
G01X31921Y66602D01*
G01X31817Y66653D01*
G01X31608Y66653D01*
G01X31504Y66602D01*
G01X31453Y66549D01*
G01X31400Y66444D01*
G01X31400Y66340D01*
G01X31453Y66236D01*
G01X31557Y66081D01*
G01X32076Y65563D01*
G01X31349Y65563D01*
G01X33749Y81653D02*
G01X33749Y80563D01*
G01X33749Y81653D02*
G01X33282Y81653D01*
G01X33127Y81602D01*
G01X33074Y81549D01*
G01X33023Y81444D01*
G01X33023Y81340D01*
G01X33074Y81236D01*
G01X33127Y81185D01*
G01X33282Y81134D01*
G01X33749Y81134D01*
G01X33386Y81134D02*
G01X33023Y80563D01*
G01X32680Y81444D02*
G01X32576Y81498D01*
G01X32419Y81653D01*
G01X32419Y80563D01*
G01X31971Y81653D02*
G01X31400Y81653D01*
G01X31712Y81236D01*
G01X31557Y81236D01*
G01X31453Y81185D01*
G01X31400Y81134D01*
G01X31349Y80977D01*
G01X31349Y80873D01*
G01X31400Y80718D01*
G01X31504Y80614D01*
G01X31662Y80563D01*
G01X31817Y80563D01*
G01X31971Y80614D01*
G01X32025Y80665D01*
G01X32076Y80769D01*
G01X33749Y51653D02*
G01X33749Y50563D01*
G01X33749Y51653D02*
G01X33282Y51653D01*
G01X33127Y51602D01*
G01X33074Y51549D01*
G01X33023Y51444D01*
G01X33023Y51340D01*
G01X33074Y51236D01*
G01X33127Y51185D01*
G01X33282Y51135D01*
G01X33749Y51135D01*
G01X33386Y51135D02*
G01X33023Y50563D01*
G01X32627Y51394D02*
G01X32627Y51444D01*
G01X32576Y51549D01*
G01X32523Y51602D01*
G01X32419Y51653D01*
G01X32213Y51653D01*
G01X32109Y51602D01*
G01X32055Y51549D01*
G01X32005Y51444D01*
G01X32005Y51340D01*
G01X32055Y51236D01*
G01X32159Y51081D01*
G01X32680Y50563D01*
G01X31951Y50563D01*
G01X31298Y51653D02*
G01X31453Y51602D01*
G01X31557Y51444D01*
G01X31608Y51185D01*
G01X31608Y51030D01*
G01X31557Y50769D01*
G01X31453Y50614D01*
G01X31298Y50563D01*
G01X31194Y50563D01*
G01X31037Y50614D01*
G01X30933Y50769D01*
G01X30882Y51030D01*
G01X30882Y51185D01*
G01X30933Y51444D01*
G01X31037Y51602D01*
G01X31194Y51653D01*
G01X31298Y51653D01*
G01X33749Y36653D02*
G01X33749Y35563D01*
G01X33749Y36653D02*
G01X33282Y36653D01*
G01X33127Y36602D01*
G01X33074Y36549D01*
G01X33023Y36444D01*
G01X33023Y36340D01*
G01X33074Y36236D01*
G01X33127Y36185D01*
G01X33282Y36135D01*
G01X33749Y36135D01*
G01X33386Y36135D02*
G01X33023Y35563D01*
G01X32627Y36394D02*
G01X32627Y36444D01*
G01X32576Y36549D01*
G01X32523Y36602D01*
G01X32419Y36653D01*
G01X32213Y36653D01*
G01X32109Y36602D01*
G01X32055Y36549D01*
G01X32005Y36444D01*
G01X32005Y36340D01*
G01X32055Y36236D01*
G01X32159Y36081D01*
G01X32680Y35563D01*
G01X31951Y35563D01*
G01X31608Y36444D02*
G01X31504Y36498D01*
G01X31349Y36653D01*
G01X31349Y35563D01*
G01X33749Y126653D02*
G01X33749Y125563D01*
G01X33749Y126653D02*
G01X33282Y126653D01*
G01X33127Y126602D01*
G01X33074Y126549D01*
G01X33023Y126444D01*
G01X33023Y126340D01*
G01X33074Y126236D01*
G01X33127Y126185D01*
G01X33282Y126135D01*
G01X33749Y126135D01*
G01X33386Y126135D02*
G01X33023Y125563D01*
G01X32627Y126394D02*
G01X32627Y126444D01*
G01X32576Y126549D01*
G01X32523Y126602D01*
G01X32419Y126653D01*
G01X32213Y126653D01*
G01X32109Y126602D01*
G01X32055Y126549D01*
G01X32005Y126444D01*
G01X32005Y126340D01*
G01X32055Y126236D01*
G01X32159Y126081D01*
G01X32680Y125563D01*
G01X31951Y125563D01*
G01X31349Y126653D02*
G01X31504Y126602D01*
G01X31557Y126498D01*
G01X31557Y126394D01*
G01X31504Y126289D01*
G01X31400Y126236D01*
G01X31194Y126185D01*
G01X31037Y126135D01*
G01X30933Y126030D01*
G01X30882Y125926D01*
G01X30882Y125769D01*
G01X30933Y125665D01*
G01X30986Y125614D01*
G01X31141Y125563D01*
G01X31349Y125563D01*
G01X31504Y125614D01*
G01X31557Y125665D01*
G01X31608Y125769D01*
G01X31608Y125926D01*
G01X31557Y126030D01*
G01X31453Y126135D01*
G01X31298Y126185D01*
G01X31090Y126236D01*
G01X30986Y126289D01*
G01X30933Y126394D01*
G01X30933Y126498D01*
G01X30986Y126602D01*
G01X31141Y126653D01*
G01X31349Y126653D01*
G01X33749Y141653D02*
G01X33749Y140563D01*
G01X33749Y141653D02*
G01X33282Y141653D01*
G01X33127Y141602D01*
G01X33074Y141549D01*
G01X33023Y141444D01*
G01X33023Y141340D01*
G01X33074Y141236D01*
G01X33127Y141185D01*
G01X33282Y141134D01*
G01X33749Y141134D01*
G01X33386Y141134D02*
G01X33023Y140563D01*
G01X32627Y141394D02*
G01X32627Y141444D01*
G01X32576Y141549D01*
G01X32523Y141602D01*
G01X32419Y141653D01*
G01X32213Y141653D01*
G01X32109Y141602D01*
G01X32055Y141549D01*
G01X32005Y141444D01*
G01X32005Y141340D01*
G01X32055Y141236D01*
G01X32159Y141081D01*
G01X32680Y140563D01*
G01X31951Y140563D01*
G01X30933Y141289D02*
G01X30986Y141134D01*
G01X31090Y141030D01*
G01X31245Y140977D01*
G01X31298Y140977D01*
G01X31453Y141030D01*
G01X31557Y141134D01*
G01X31608Y141289D01*
G01X31608Y141340D01*
G01X31557Y141498D01*
G01X31453Y141602D01*
G01X31298Y141653D01*
G01X31245Y141653D01*
G01X31090Y141602D01*
G01X30986Y141498D01*
G01X30933Y141289D01*
G01X30933Y141030D01*
G01X30986Y140769D01*
G01X31090Y140614D01*
G01X31245Y140563D01*
G01X31349Y140563D01*
G01X31504Y140614D01*
G01X31557Y140718D01*
G01X33749Y21653D02*
G01X33749Y20563D01*
G01X33749Y21653D02*
G01X33282Y21653D01*
G01X33127Y21602D01*
G01X33074Y21549D01*
G01X33023Y21444D01*
G01X33023Y21340D01*
G01X33074Y21236D01*
G01X33127Y21185D01*
G01X33282Y21135D01*
G01X33749Y21135D01*
G01X33386Y21135D02*
G01X33023Y20563D01*
G01X32576Y21653D02*
G01X32005Y21653D01*
G01X32314Y21236D01*
G01X32159Y21236D01*
G01X32055Y21185D01*
G01X32005Y21135D01*
G01X31951Y20977D01*
G01X31951Y20873D01*
G01X32005Y20718D01*
G01X32109Y20614D01*
G01X32264Y20563D01*
G01X32419Y20563D01*
G01X32576Y20614D01*
G01X32627Y20665D01*
G01X32680Y20769D01*
G01X30986Y21498D02*
G01X31037Y21602D01*
G01X31194Y21653D01*
G01X31298Y21653D01*
G01X31453Y21602D01*
G01X31557Y21444D01*
G01X31608Y21185D01*
G01X31608Y20926D01*
G01X31557Y20718D01*
G01X31453Y20614D01*
G01X31298Y20563D01*
G01X31245Y20563D01*
G01X31090Y20614D01*
G01X30986Y20718D01*
G01X30933Y20873D01*
G01X30933Y20926D01*
G01X30986Y21081D01*
G01X31090Y21185D01*
G01X31245Y21236D01*
G01X31298Y21236D01*
G01X31453Y21185D01*
G01X31557Y21081D01*
G01X31608Y20926D01*
G01X33749Y6653D02*
G01X33749Y5563D01*
G01X33749Y6653D02*
G01X33282Y6653D01*
G01X33127Y6602D01*
G01X33074Y6549D01*
G01X33023Y6444D01*
G01X33023Y6340D01*
G01X33074Y6236D01*
G01X33127Y6185D01*
G01X33282Y6134D01*
G01X33749Y6134D01*
G01X33386Y6134D02*
G01X33023Y5563D01*
G01X32576Y6653D02*
G01X32005Y6653D01*
G01X32314Y6236D01*
G01X32159Y6236D01*
G01X32055Y6185D01*
G01X32005Y6134D01*
G01X31951Y5977D01*
G01X31951Y5873D01*
G01X32005Y5718D01*
G01X32109Y5614D01*
G01X32264Y5563D01*
G01X32419Y5563D01*
G01X32576Y5614D01*
G01X32627Y5665D01*
G01X32680Y5769D01*
G01X30882Y6653D02*
G01X31400Y5563D01*
G01X31608Y6653D02*
G01X30882Y6653D01*
G01X33749Y96653D02*
G01X33749Y95563D01*
G01X33749Y96653D02*
G01X33282Y96653D01*
G01X33127Y96602D01*
G01X33074Y96549D01*
G01X33023Y96444D01*
G01X33023Y96340D01*
G01X33074Y96236D01*
G01X33127Y96185D01*
G01X33282Y96135D01*
G01X33749Y96135D01*
G01X33386Y96135D02*
G01X33023Y95563D01*
G01X32159Y96653D02*
G01X32680Y95926D01*
G01X31900Y95926D01*
G01X32159Y96653D02*
G01X32159Y95563D01*
G01X31037Y96653D02*
G01X31557Y95926D01*
G01X30778Y95926D01*
G01X31037Y96653D02*
G01X31037Y95563D01*
G01X33749Y111653D02*
G01X33749Y110563D01*
G01X33749Y111653D02*
G01X33282Y111653D01*
G01X33127Y111602D01*
G01X33074Y111549D01*
G01X33023Y111444D01*
G01X33023Y111340D01*
G01X33074Y111236D01*
G01X33127Y111185D01*
G01X33282Y111135D01*
G01X33749Y111135D01*
G01X33386Y111135D02*
G01X33023Y110563D01*
G01X32159Y111653D02*
G01X32680Y110926D01*
G01X31900Y110926D01*
G01X32159Y111653D02*
G01X32159Y110563D01*
G01X30933Y111653D02*
G01X31453Y111653D01*
G01X31504Y111185D01*
G01X31453Y111236D01*
G01X31298Y111289D01*
G01X31141Y111289D01*
G01X30986Y111236D01*
G01X30882Y111135D01*
G01X30828Y110977D01*
G01X30828Y110873D01*
G01X30882Y110718D01*
G01X30986Y110614D01*
G01X31141Y110563D01*
G01X31298Y110563D01*
G01X31453Y110614D01*
G01X31504Y110665D01*
G01X31557Y110769D01*
M00*
M02*
