G04 Layer: TopPasteMaskLayer*
G04 EasyEDA v6.4.7, 2020-11-30T22:32:52--5:00*
G04 76768ecdb7b1411bbbfdaf268766b05e,f351316c249842cba096f2da4b91d990,10*
G04 Gerber Generator version 0.2*
G04 Scale: 100 percent, Rotated: No, Reflected: No *
G04 Dimensions in millimeters *
G04 leading zeros omitted , absolute positions ,3 integer and 3 decimal *
%FSLAX33Y33*%
%MOMM*%
G90*
D02*

%ADD16R,1.199998X1.899996*%
%ADD17R,1.899996X1.199998*%

%LPD*%
G36*
G01X67550Y175450D02*
G01X68750Y175450D01*
G01X68750Y173549D01*
G01X67550Y173549D01*
G01X67550Y175450D01*
G37*
G36*
G01X70750Y175450D02*
G01X71950Y175450D01*
G01X71950Y173549D01*
G01X70750Y173549D01*
G01X70750Y175450D01*
G37*
G36*
G01X33750Y180450D02*
G01X34950Y180450D01*
G01X34950Y178549D01*
G01X33750Y178549D01*
G01X33750Y180450D01*
G37*
G36*
G01X30549Y180450D02*
G01X31749Y180450D01*
G01X31749Y178549D01*
G01X30549Y178549D01*
G01X30549Y180450D01*
G37*
G54D17*
G01X25750Y173900D03*
G01X25750Y177100D03*
G01X20750Y177100D03*
G01X20750Y173900D03*
G36*
G01X33750Y165450D02*
G01X34950Y165450D01*
G01X34950Y163549D01*
G01X33750Y163549D01*
G01X33750Y165450D01*
G37*
G36*
G01X30549Y165450D02*
G01X31749Y165450D01*
G01X31749Y163549D01*
G01X30549Y163549D01*
G01X30549Y165450D01*
G37*
G01X20750Y162099D03*
G01X20750Y158899D03*
G01X25750Y158899D03*
G01X25750Y162099D03*
G01X25750Y68899D03*
G01X25750Y72100D03*
G01X20750Y72100D03*
G01X20750Y68899D03*
G36*
G01X33750Y75450D02*
G01X34950Y75450D01*
G01X34950Y73549D01*
G01X33750Y73549D01*
G01X33750Y75450D01*
G37*
G36*
G01X30549Y75450D02*
G01X31749Y75450D01*
G01X31749Y73549D01*
G01X30549Y73549D01*
G01X30549Y75450D01*
G37*
G36*
G01X33750Y90450D02*
G01X34950Y90450D01*
G01X34950Y88549D01*
G01X33750Y88549D01*
G01X33750Y90450D01*
G37*
G36*
G01X30549Y90450D02*
G01X31749Y90450D01*
G01X31749Y88549D01*
G01X30549Y88549D01*
G01X30549Y90450D01*
G37*
G01X20750Y87100D03*
G01X20750Y83899D03*
G01X25750Y83899D03*
G01X25750Y87100D03*
G01X25750Y53900D03*
G01X25750Y57100D03*
G01X20750Y57100D03*
G01X20750Y53900D03*
G36*
G01X33750Y60450D02*
G01X34950Y60450D01*
G01X34950Y58549D01*
G01X33750Y58549D01*
G01X33750Y60450D01*
G37*
G36*
G01X30549Y60450D02*
G01X31749Y60450D01*
G01X31749Y58549D01*
G01X30549Y58549D01*
G01X30549Y60450D01*
G37*
G36*
G01X33750Y45450D02*
G01X34950Y45450D01*
G01X34950Y43550D01*
G01X33750Y43550D01*
G01X33750Y45450D01*
G37*
G36*
G01X30549Y45450D02*
G01X31749Y45450D01*
G01X31749Y43550D01*
G01X30549Y43550D01*
G01X30549Y45450D01*
G37*
G01X20750Y42099D03*
G01X20750Y38899D03*
G01X25750Y38899D03*
G01X25750Y42099D03*
G01X25750Y128899D03*
G01X25750Y132100D03*
G01X20750Y132100D03*
G01X20750Y128899D03*
G36*
G01X33750Y135450D02*
G01X34950Y135450D01*
G01X34950Y133549D01*
G01X33750Y133549D01*
G01X33750Y135450D01*
G37*
G36*
G01X30549Y135450D02*
G01X31749Y135450D01*
G01X31749Y133549D01*
G01X30549Y133549D01*
G01X30549Y135450D01*
G37*
G36*
G01X33750Y150450D02*
G01X34950Y150450D01*
G01X34950Y148549D01*
G01X33750Y148549D01*
G01X33750Y150450D01*
G37*
G36*
G01X30549Y150450D02*
G01X31749Y150450D01*
G01X31749Y148549D01*
G01X30549Y148549D01*
G01X30549Y150450D01*
G37*
G01X20750Y147099D03*
G01X20750Y143899D03*
G01X25750Y143899D03*
G01X25750Y147099D03*
G01X25750Y23899D03*
G01X25750Y27099D03*
G01X20750Y27099D03*
G01X20750Y23899D03*
G36*
G01X33750Y30450D02*
G01X34950Y30450D01*
G01X34950Y28549D01*
G01X33750Y28549D01*
G01X33750Y30450D01*
G37*
G36*
G01X30549Y30450D02*
G01X31749Y30450D01*
G01X31749Y28549D01*
G01X30549Y28549D01*
G01X30549Y30450D01*
G37*
G36*
G01X33750Y15450D02*
G01X34950Y15450D01*
G01X34950Y13549D01*
G01X33750Y13549D01*
G01X33750Y15450D01*
G37*
G36*
G01X30549Y15450D02*
G01X31749Y15450D01*
G01X31749Y13549D01*
G01X30549Y13549D01*
G01X30549Y15450D01*
G37*
G01X20750Y12100D03*
G01X20750Y8899D03*
G01X25750Y8899D03*
G01X25750Y12100D03*
G01X25750Y98899D03*
G01X25750Y102100D03*
G01X20750Y102100D03*
G01X20750Y98899D03*
G36*
G01X33750Y105450D02*
G01X34950Y105450D01*
G01X34950Y103549D01*
G01X33750Y103549D01*
G01X33750Y105450D01*
G37*
G36*
G01X30549Y105450D02*
G01X31749Y105450D01*
G01X31749Y103549D01*
G01X30549Y103549D01*
G01X30549Y105450D01*
G37*
G36*
G01X33750Y120450D02*
G01X34950Y120450D01*
G01X34950Y118550D01*
G01X33750Y118550D01*
G01X33750Y120450D01*
G37*
G36*
G01X30549Y120450D02*
G01X31749Y120450D01*
G01X31749Y118550D01*
G01X30549Y118550D01*
G01X30549Y120450D01*
G37*
G01X20750Y117100D03*
G01X20750Y113899D03*
G01X25750Y113899D03*
G01X25750Y117100D03*
G01X50750Y173099D03*
G01X50750Y169899D03*
G01X40750Y173900D03*
G01X40750Y177100D03*
G01X50750Y158099D03*
G01X50750Y154899D03*
G01X40750Y158900D03*
G01X40750Y162100D03*
G01X50750Y143099D03*
G01X50750Y139899D03*
G01X40750Y143900D03*
G01X40750Y147100D03*
G01X50750Y128100D03*
G01X50750Y124899D03*
G01X40750Y128900D03*
G01X40750Y132100D03*
G01X50750Y113100D03*
G01X50750Y109899D03*
G01X40750Y113899D03*
G01X40750Y117100D03*
G01X50750Y98100D03*
G01X50750Y94899D03*
G01X40750Y98899D03*
G01X40750Y102100D03*
G01X50750Y83099D03*
G01X50750Y79899D03*
G01X40750Y83899D03*
G01X40750Y87100D03*
G01X50750Y68099D03*
G01X50750Y64899D03*
G01X40750Y68899D03*
G01X40750Y72100D03*
G01X50750Y53099D03*
G01X50750Y49899D03*
G01X40750Y53900D03*
G01X40750Y57100D03*
G01X50750Y38099D03*
G01X50750Y34899D03*
G01X40750Y38900D03*
G01X40750Y42100D03*
G01X50750Y23099D03*
G01X50750Y19899D03*
G01X40750Y23900D03*
G01X40750Y27100D03*
G01X50750Y8100D03*
G01X50750Y4899D03*
G01X40750Y8900D03*
G01X40750Y12100D03*
G54D16*
G01X64850Y141999D03*
G01X61649Y141999D03*
G36*
G01X63049Y133450D02*
G01X64249Y133450D01*
G01X64249Y131550D01*
G01X63049Y131550D01*
G01X63049Y133450D01*
G37*
G36*
G01X66250Y133450D02*
G01X67450Y133450D01*
G01X67450Y131550D01*
G01X66250Y131550D01*
G01X66250Y133450D01*
G37*
G36*
G01X62300Y96450D02*
G01X63500Y96450D01*
G01X63500Y94550D01*
G01X62300Y94550D01*
G01X62300Y96450D01*
G37*
G36*
G01X65500Y96450D02*
G01X66700Y96450D01*
G01X66700Y94550D01*
G01X65500Y94550D01*
G01X65500Y96450D01*
G37*
G36*
G01X62300Y125450D02*
G01X63500Y125450D01*
G01X63500Y123549D01*
G01X62300Y123549D01*
G01X62300Y125450D01*
G37*
G36*
G01X65500Y125450D02*
G01X66700Y125450D01*
G01X66700Y123549D01*
G01X65500Y123549D01*
G01X65500Y125450D01*
G37*
G54D17*
G01X25750Y171100D03*
G01X25750Y167900D03*
G01X25750Y156099D03*
G01X25750Y152899D03*
G01X25750Y126100D03*
G01X25750Y122899D03*
G01X25750Y141099D03*
G01X25750Y137899D03*
G01X25750Y111100D03*
G01X25750Y107899D03*
G01X25750Y96100D03*
G01X25750Y92899D03*
G01X25750Y81100D03*
G01X25750Y77899D03*
G01X25750Y66100D03*
G01X25750Y62900D03*
G01X25750Y51100D03*
G01X25750Y47900D03*
G01X25750Y36099D03*
G01X25750Y32900D03*
G01X25750Y21099D03*
G01X25750Y17899D03*
G01X25750Y6100D03*
G01X25750Y2899D03*
G01X66750Y148899D03*
G01X66750Y152099D03*
M00*
M02*
